<svg id="Absence" xmlns="http://www.w3.org/2000/svg" width="19.566" height="25" viewBox="0 0 19.566 25">
  <path id="icons8-sneeze" d="M6.813,1a.815.815,0,1,0,0,1.631,8.506,8.506,0,0,1,8.364,7.875.815.815,0,0,0,.175.436l2.6,3.252c.017.021.025,0,0,0l-2.172.76a.815.815,0,0,0-.546.771v1.032h-.272a4.545,4.545,0,0,0-2.341.593,2.227,2.227,0,0,0-1.192,1.852,2.227,2.227,0,0,0,1.192,1.852,4.545,4.545,0,0,0,2.341.593h.271v.384a.8.8,0,0,1-.757.813l-2.634.187a.816.816,0,0,0-.2.04,1.908,1.908,0,0,0-1.3,1.8v.3a.815.815,0,1,0,1.631,0v-.3a.26.26,0,0,1,.166-.23l2.454-.175a2.456,2.456,0,0,0,2.272-2.439v-1.2a.815.815,0,0,0-.815-.815H14.966a3.054,3.054,0,0,1-1.5-.361c-.335-.2-.4-.371-.4-.454s.065-.253.4-.454a3.054,3.054,0,0,1,1.5-.361h1.087a.815.815,0,0,0,.815-.815v-1.27l1.626-.569a1.655,1.655,0,0,0,.736-2.561l-2.48-3.1A10.133,10.133,0,0,0,6.813,1Zm3.761,8.694a.815.815,0,0,0-.153,1.608l2.174.543a.815.815,0,1,0,.395-1.582L10.816,9.72a.815.815,0,0,0-.242-.027Zm12,5.437a.815.815,0,1,0,.815.815A.815.815,0,0,0,22.575,15.13ZM20.4,16.761a.815.815,0,1,0,.815.815A.815.815,0,0,0,20.4,16.761Zm4.348,0a.815.815,0,1,0,.815.815A.815.815,0,0,0,24.749,16.761Zm-6.522,1.63a.815.815,0,1,0,.815.815A.815.815,0,0,0,18.227,18.391Zm4.348,0a.815.815,0,1,0,.815.815A.815.815,0,0,0,22.575,18.391ZM20.4,20.022a.815.815,0,1,0,.815.815A.815.815,0,0,0,20.4,20.022Zm4.348,0a.815.815,0,1,0,.815.815A.815.815,0,0,0,24.749,20.022Zm-2.174,1.63a.815.815,0,1,0,.815.815A.815.815,0,0,0,22.575,21.652Z" transform="translate(-5.998 -1)"/>
</svg>
