<svg xmlns="http://www.w3.org/2000/svg" width="50" height="66.667" viewBox="0 0 50 66.667">
  <path id="award-solid_1_" data-name="award-solid (1)" d="M12.644,47.21c-1.131-1.131-.542-.812-3.271-1.543a9.394,9.394,0,0,1-3.311-1.734L.155,58.417a2.084,2.084,0,0,0,2.009,2.868l6.861-.262,4.719,4.984a2.083,2.083,0,0,0,3.441-.646l6.777-16.617A9.344,9.344,0,0,1,12.644,47.21Zm37.2,11.207L43.934,43.933a9.373,9.373,0,0,1-3.311,1.734c-2.743.734-2.142.414-3.271,1.543a9.346,9.346,0,0,1-11.319,1.535L32.81,65.362a2.083,2.083,0,0,0,3.441.646l4.72-4.984,6.861.262A2.084,2.084,0,0,0,49.842,58.417Zm-15.6-14.153c1.99-2.025,2.217-1.85,5.051-2.622A5.291,5.291,0,0,0,43,37.868c.974-3.7.721-3.251,3.379-5.957a5.4,5.4,0,0,0,1.357-5.154c-.973-3.7-.974-3.18,0-6.879a5.4,5.4,0,0,0-1.357-5.154c-2.658-2.706-2.4-2.26-3.379-5.957a5.291,5.291,0,0,0-3.707-3.773C35.663,4,36.1,4.262,33.441,1.555A5.181,5.181,0,0,0,28.377.174c-3.629.99-3.122.991-6.758,0a5.178,5.178,0,0,0-5.064,1.381C13.9,4.261,14.335,4,10.7,4.994A5.291,5.291,0,0,0,7,8.768c-.973,3.7-.721,3.251-3.379,5.957a5.4,5.4,0,0,0-1.357,5.154c.973,3.693.974,3.177,0,6.878a5.4,5.4,0,0,0,1.357,5.155C6.276,34.616,6.023,34.17,7,37.868A5.291,5.291,0,0,0,10.7,41.641c2.914.794,3.131.669,5.049,2.622a5.175,5.175,0,0,0,6.476.758,5.166,5.166,0,0,1,5.538,0A5.173,5.173,0,0,0,34.243,44.263ZM12.714,22.9A12.286,12.286,0,1,1,25,35.407,12.395,12.395,0,0,1,12.714,22.9Z" transform="translate(0.002 0.008)" fill="#fffefe"/>
</svg>
