<svg id="bus" xmlns="http://www.w3.org/2000/svg" width="25" height="25" viewBox="0 0 25 25">
  <path id="icons8-school-bus_1_" data-name="icons8-school-bus (1)" d="M11.2,4A5.323,5.323,0,0,0,5.9,9.061a.938.938,0,0,0-.013.452v1.362h-.32a.938.938,0,0,0-.937.938v1.875a.938.938,0,0,0,.938.938H5.88v1A3.448,3.448,0,0,0,4,18.684l0,4.377a3.448,3.448,0,0,0,1.875,3.057V27.75A1.25,1.25,0,0,0,7.125,29h1.25a1.25,1.25,0,0,0,1.25-1.25V26.5h13.75v1.25A1.25,1.25,0,0,0,24.625,29h1.25a1.25,1.25,0,0,0,1.25-1.25V26.118A3.448,3.448,0,0,0,29,23.061V18.688a3.449,3.449,0,0,0-1.875-3.054V14.625h.313a.938.938,0,0,0,.938-.937V11.813a.938.938,0,0,0-.937-.937h-.312V9.466a.938.938,0,0,0-.011-.363,5.323,5.323,0,0,0-5.3-5.1Zm0,1.875H21.813a3.419,3.419,0,0,1,3.307,2.5H7.889A3.419,3.419,0,0,1,11.2,5.875ZM7.759,10.25h7.8V14h-1.25a3.436,3.436,0,0,0-2.643,1.25H7.755Zm9.679,0H25.25v5H21.33A3.436,3.436,0,0,0,18.688,14h-1.25Zm-3.125,5.625h4.375a1.549,1.549,0,0,1,1.563,1.563v7.188h-7.5V17.438A1.549,1.549,0,0,1,14.313,15.875Zm-6.875,1.25h3.453c-.009.1-.016.207-.016.313v7.188H7.438a1.549,1.549,0,0,1-1.562-1.564l0-4.376A1.546,1.546,0,0,1,7.438,17.125Zm14.672,0h3.453a1.549,1.549,0,0,1,1.563,1.563v4.374a1.549,1.549,0,0,1-1.562,1.564H22.125V17.438C22.125,17.332,22.119,17.228,22.109,17.125Zm-7.172.625a.938.938,0,1,0,0,1.875h3.125a.938.938,0,1,0,0-1.875ZM8.375,19.625a1.25,1.25,0,1,0,1.25,1.25A1.25,1.25,0,0,0,8.375,19.625Zm16.25,0a1.25,1.25,0,1,0,1.25,1.25A1.25,1.25,0,0,0,24.625,19.625Zm-9.687,1.25a.938.938,0,1,0,0,1.875h3.125a.938.938,0,1,0,0-1.875Z" transform="translate(-4 -4)"/>
</svg>
