<svg id="bus" xmlns="http://www.w3.org/2000/svg" width="24.67" height="24.67" viewBox="0 0 24.67 24.67">
  <path id="icons8-school-bus_2_" data-name="icons8-school-bus (2)" d="M11.1,4A5.256,5.256,0,0,0,5.859,9.24v1.544H5.542a.925.925,0,0,0-.925.925v1.85a.925.925,0,0,0,.925.925h.314V16.09A3.391,3.391,0,0,0,4,19.107l0,3.7a3.387,3.387,0,0,0,1.85,3.023v1.6A1.233,1.233,0,0,0,7.084,28.67H8.317a1.233,1.233,0,0,0,1.233-1.233V26.2h1.233V17.024a3.747,3.747,0,0,1,.239-1.306H7.705l0-6.167h7.7v4.934h-.853a2.542,2.542,0,0,0-2.539,2.539V26.2h8.634V17.024a2.542,2.542,0,0,0-2.539-2.539H17.26V9.551h7.709v6.167H21.647a3.745,3.745,0,0,1,.239,1.306V26.2h1.233v1.233a1.233,1.233,0,0,0,1.233,1.233h1.233a1.233,1.233,0,0,0,1.233-1.233v-1.6a3.387,3.387,0,0,0,1.85-3.022v-3.7a3.394,3.394,0,0,0-1.85-3.017V14.485h.308a.925.925,0,0,0,.925-.925v-1.85a.925.925,0,0,0-.925-.925h-.308V9.242A5.256,5.256,0,0,0,21.577,4Zm3.692,13.568h3.084a.925.925,0,1,1,0,1.85H14.793a.925.925,0,0,1,0-1.85ZM7.7,19.419a1.233,1.233,0,1,1-1.233,1.233A1.233,1.233,0,0,1,7.7,19.419Zm17.269,0a1.233,1.233,0,1,1-1.233,1.233A1.233,1.233,0,0,1,24.969,19.419Zm-10.176,1.85h3.084a.925.925,0,1,1,0,1.85H14.793a.925.925,0,0,1,0-1.85Z" transform="translate(-4 -4)"/>
</svg>
