<svg xmlns="http://www.w3.org/2000/svg" width="43.75" height="50" viewBox="0 0 43.75 50">
  <path id="calendar-day-solid_2_" data-name="calendar-day-solid (2)" d="M0,45.312A4.689,4.689,0,0,0,4.688,50H39.063a4.689,4.689,0,0,0,4.687-4.688V18.75H0Zm6.25-18.75A1.567,1.567,0,0,1,7.813,25h9.375a1.567,1.567,0,0,1,1.563,1.562v9.375A1.567,1.567,0,0,1,17.188,37.5H7.813A1.567,1.567,0,0,1,6.25,35.938ZM39.063,6.25H34.375V1.563A1.567,1.567,0,0,0,32.813,0H29.687a1.567,1.567,0,0,0-1.562,1.563V6.25h-12.5V1.563A1.567,1.567,0,0,0,14.062,0H10.937A1.567,1.567,0,0,0,9.375,1.563V6.25H4.688A4.689,4.689,0,0,0,0,10.937v4.688H43.75V10.937A4.689,4.689,0,0,0,39.063,6.25Z" fill="#fffefe"/>
</svg>
