<svg id="calendar" xmlns="http://www.w3.org/2000/svg" width="25" height="25" viewBox="0 0 25 25">
  <path id="icons8-calendar_4_" data-name="icons8-calendar (4)" d="M10.514,6A4.53,4.53,0,0,0,6,10.514V26.486A4.53,4.53,0,0,0,10.514,31H26.486A4.53,4.53,0,0,0,31,26.486V10.514A4.53,4.53,0,0,0,26.486,6Zm0,2.083H26.486a2.416,2.416,0,0,1,2.431,2.431v1.042H8.083V10.514A2.416,2.416,0,0,1,10.514,8.083ZM8.083,13.639H28.917V26.486a2.416,2.416,0,0,1-2.431,2.431H10.514a2.416,2.416,0,0,1-2.431-2.431ZM12.6,16.417a1.736,1.736,0,1,0,1.736,1.736A1.736,1.736,0,0,0,12.6,16.417Zm5.9,0a1.736,1.736,0,1,0,1.736,1.736A1.736,1.736,0,0,0,18.5,16.417Zm5.9,0a1.736,1.736,0,1,0,1.736,1.736A1.736,1.736,0,0,0,24.4,16.417ZM12.6,22.667A1.736,1.736,0,1,0,14.333,24.4,1.736,1.736,0,0,0,12.6,22.667Zm5.9,0A1.736,1.736,0,1,0,20.236,24.4,1.736,1.736,0,0,0,18.5,22.667Z" transform="translate(-6 -6)"/>
</svg>
