<svg xmlns="http://www.w3.org/2000/svg" width="47.334" height="47.331" viewBox="0 0 47.334 47.331">
  <path id="stethoscope-solid_1_" data-name="stethoscope-solid (1)" d="M41.334,10.38a5.915,5.915,0,0,0-2.866,11.038v10.41c0,5.3-4.641,9.615-10.354,9.615-5.547,0-10.1-4.077-10.345-9.171a14.831,14.831,0,0,0,11.815-14.5V3.409A2.217,2.217,0,0,0,27.8,1.236L21.984.072A2.213,2.213,0,0,0,19.377,1.81l-.3,1.451a2.213,2.213,0,0,0,1.738,2.607l2.838.564V17.655a8.875,8.875,0,1,1-17.75.111V6.441l2.838-.564A2.213,2.213,0,0,0,10.484,3.27L10.2,1.819A2.213,2.213,0,0,0,7.59.081L1.784,1.227A2.227,2.227,0,0,0,0,3.409V17.775a14.814,14.814,0,0,0,11.843,14.5c.24,8.357,7.442,15.088,16.262,15.088,8.968,0,16.271-6.971,16.271-15.531V21.418A5.916,5.916,0,0,0,41.334,10.38Zm.083,7.4A1.479,1.479,0,1,1,42.9,16.3,1.484,1.484,0,0,1,41.417,17.775Z" transform="translate(0 -0.028)" fill="#fffefe"/>
</svg>
