<svg xmlns="http://www.w3.org/2000/svg" width="17.424" height="17.423" viewBox="0 0 17.424 17.423">
  <path id="stethoscope-solid_1_" data-name="stethoscope-solid (1)" d="M15.215,3.838A2.177,2.177,0,0,0,14.16,7.9v3.832a3.687,3.687,0,0,1-3.812,3.539A3.7,3.7,0,0,1,6.541,11.9,5.459,5.459,0,0,0,10.89,6.561V1.273a.816.816,0,0,0-.657-.8L8.093.044a.815.815,0,0,0-.96.64l-.109.534a.815.815,0,0,0,.64.96l1.045.208V6.517a3.267,3.267,0,1,1-6.534.041V2.389l1.045-.208a.815.815,0,0,0,.64-.96L3.754.687a.815.815,0,0,0-.96-.64L.657.469a.82.82,0,0,0-.657.8V6.561A5.453,5.453,0,0,0,4.359,11.9a5.872,5.872,0,0,0,5.986,5.554,5.867,5.867,0,0,0,5.99-5.717V7.9a2.178,2.178,0,0,0-1.12-4.063Zm.031,2.722a.545.545,0,1,1,.545-.545A.546.546,0,0,1,15.246,6.561Z" transform="translate(0 -0.028)" fill="#fffefe"/>
</svg>
