<svg xmlns="http://www.w3.org/2000/svg" width="23.706" height="16.247" viewBox="0 0 23.706 16.247">
  <path id="cloud-upload-alt-solid" d="M19.913,39.057A3.441,3.441,0,0,0,20.15,37.8a3.52,3.52,0,0,0-3.556-3.481,3.592,3.592,0,0,0-1.974.587A5.945,5.945,0,0,0,9.482,32a5.864,5.864,0,0,0-5.927,5.8c0,.1,0,.2.007.294a5.209,5.209,0,0,0,1.771,10.15H18.965a4.634,4.634,0,0,0,.948-9.189Zm-5.341,2.227H12.149v4.062a.588.588,0,0,1-.593.58H9.779a.588.588,0,0,1-.593-.58V41.284H6.764a.578.578,0,0,1-.419-.99l3.9-3.822a.6.6,0,0,1,.837,0l3.9,3.822a.579.579,0,0,1-.419.99Z" transform="translate(0 -32)" fill="#fff"/>
</svg>
