<svg xmlns="http://www.w3.org/2000/svg" xmlns:xlink="http://www.w3.org/1999/xlink" width="273" height="273" viewBox="0 0 273 273">
  <defs>
    <style>
      .cls-1 {
        clip-path: url(#clip-Confirmed_the_event);
      }

      .cls-2 {
        fill: rgba(60,146,208,0.2);
      }

      .cls-3 {
        fill: #e0e0e0;
      }

      .cls-4 {
        fill: #fafafa;
      }

      .cls-5 {
        fill: #ebebeb;
      }

      .cls-12, .cls-6 {
        fill: #fff;
      }

      .cls-7 {
        fill: #f5f5f5;
      }

      .cls-8 {
        fill: #263238;
      }

      .cls-9 {
        fill: none;
        stroke: #e0e0e0;
        stroke-linecap: round;
        stroke-linejoin: round;
        stroke-width: 3px;
      }

      .cls-10 {
        fill: #455a64;
      }

      .cls-11 {
        fill: #3c92d0;
      }

      .cls-12 {
        opacity: 0.2;
      }
    </style>
    <clipPath id="clip-Confirmed_the_event">
      <rect width="273" height="273"/>
    </clipPath>
  </defs>
  <g id="Confirmed_the_event" data-name="Confirmed the event" class="cls-1">
    <g id="Group_8596" data-name="Group 8596" transform="translate(-4046.158 -4909.514)">
      <g id="Group_8595" data-name="Group 8595" transform="translate(4018 4391)">
        <g id="Group_8588" data-name="Group 8588" transform="translate(25 529.636)">
          <path id="Path_1050" data-name="Path 1050" class="cls-2" d="M91.6,0c34.5,0,55.312,23.514,71.184,51.838C170.1,64.9,184.909,75.693,184.909,92c0,18.851-.316,45.433-22.128,60.528-42.37,33.415-39.224,31.475-71.184,31.475-37.55,0-83.89-44.848-83.89-44.848s-16.425-25.79-16.425-39.052c0-28.15,13.482-51.787,33.609-68.841C40.715,17.858,68.935,0,91.6,0Z" transform="translate(49 33.364)"/>
        </g>
      </g>
    </g>
    <g id="Calendar-pana" transform="translate(-51.179 -7.548)">
      <g id="freepik--background-complete--inject-36" transform="translate(58.13 61.32)">
        <circle id="Ellipse_426" data-name="Ellipse 426" class="cls-3" cx="17.269" cy="17.269" r="17.269" transform="translate(178.092 34.273) rotate(-76.74)"/>
        <path id="Path_2795" data-name="Path 2795" class="cls-4" d="M529.111,98.959A3.507,3.507,0,0,1,528.5,99l-1.682.03c-1.42,0-3.407.034-5.648.039h-.112V97.839c0-2.5,0-4.768.034-6.4,0-.794.026-1.446.034-1.944a4.729,4.729,0,0,1,.043-.712,4.1,4.1,0,0,1,.043.712c0,.5.021,1.15.039,1.944,0,1.635.03,3.9.03,6.4v1.12l-.112-.112c2.24,0,4.227,0,5.648.039l1.682.034A3.884,3.884,0,0,1,529.111,98.959Z" transform="translate(-322.393 -76.995)"/>
        <path id="Path_2796" data-name="Path 2796" class="cls-4" d="M521.274,77.63a9.139,9.139,0,0,1,0,2.9,9.48,9.48,0,0,1,0-2.9Z" transform="translate(-322.444 -70.631)"/>
        <path id="Path_2797" data-name="Path 2797" class="cls-4" d="M537.091,83.06a9.154,9.154,0,0,1-2.021,2.021,9.155,9.155,0,0,1,2.021-2.021Z" transform="translate(-330.39 -73.73)"/>
        <path id="Path_2798" data-name="Path 2798" class="cls-4" d="M547.252,94.77a5.946,5.946,0,0,1-1.189.794,6.008,6.008,0,0,1-1.253.691,6.437,6.437,0,0,1,2.442-1.485Z" transform="translate(-335.95 -80.415)"/>
        <path id="Path_2799" data-name="Path 2799" class="cls-4" d="M551.527,112a17.6,17.6,0,0,1-3.957,0,17.6,17.6,0,0,1,3.957,0Z" transform="translate(-337.526 -90.188)"/>
        <path id="Path_2800" data-name="Path 2800" class="cls-4" d="M487.894,111.392a15.672,15.672,0,0,1-3.734,0,15.673,15.673,0,0,1,3.734,0Z" transform="translate(-301.328 -89.84)"/>
        <path id="Path_2801" data-name="Path 2801" class="cls-4" d="M493.445,124.48a8.3,8.3,0,0,1-1.412,1.287,8.119,8.119,0,0,1-1.554,1.107,8.1,8.1,0,0,1,1.412-1.287A7.911,7.911,0,0,1,493.445,124.48Z" transform="translate(-304.936 -97.375)"/>
        <path id="Path_2802" data-name="Path 2802" class="cls-4" d="M505.9,134.48a12.355,12.355,0,0,1-.961,1.665,11.7,11.7,0,0,1-1.021,1.631,6.437,6.437,0,0,1,.828-1.742,6.317,6.317,0,0,1,1.154-1.554Z" transform="translate(-312.608 -103.083)"/>
        <path id="Path_2803" data-name="Path 2803" class="cls-4" d="M521.274,142.127a17.587,17.587,0,0,1,0-3.957,16.947,16.947,0,0,1,0,3.957Z" transform="translate(-322.443 -105.19)"/>
        <path id="Path_2804" data-name="Path 2804" class="cls-4" d="M537.377,137.819a5.893,5.893,0,0,1-1.631-1.12,5.722,5.722,0,0,1-1.326-1.459,18,18,0,0,1,1.476,1.287A17.212,17.212,0,0,1,537.377,137.819Z" transform="translate(-330.019 -103.517)"/>
        <path id="Path_2805" data-name="Path 2805" class="cls-4" d="M547.392,127.933a14.847,14.847,0,0,1-2.442-2.463,7.009,7.009,0,0,1,1.313,1.15,6.866,6.866,0,0,1,1.129,1.313Z" transform="translate(-336.03 -97.94)"/>
        <path id="Path_2806" data-name="Path 2806" class="cls-4" d="M494.134,96.274a10.391,10.391,0,0,1-2.154-2.154,10.39,10.39,0,0,1,2.154,2.154Z" transform="translate(-305.792 -80.044)"/>
        <path id="Path_2807" data-name="Path 2807" class="cls-4" d="M505.656,84.2a5.046,5.046,0,0,1-1.137-.974,4.965,4.965,0,0,1-.978-1.133,9.985,9.985,0,0,1,2.116,2.107Z" transform="translate(-312.391 -73.177)"/>
        <path id="Path_2808" data-name="Path 2808" class="cls-3" d="M58.25,180.866h1.06l2.97-.034,10.574-.094-.09.094c-.026-5.27-.06-11.613-.094-18.454l.112.112h-14.6l.1-.1v18.355a.352.352,0,0,1,0,.094.563.563,0,0,1,0-.082c0-.064,0-.146,0-.249v-.987c0-.884-.021-2.146-.039-3.759-.026-3.262-.064-7.879-.107-13.36v-.1h.1l6.961-.039h7.643c-.1-.1.142.137.116.116,0,6.824.039,13.166.056,18.454v.094H58.563Z" transform="translate(-58.13 -118.926)"/>
        <rect id="Rectangle_2515" data-name="Rectangle 2515" class="cls-5" width="2.026" height="0.494" transform="translate(6.141 61.631)"/>
        <rect id="Rectangle_2516" data-name="Rectangle 2516" class="cls-3" width="4.429" height="6.399" transform="translate(4.94 50.056)"/>
        <rect id="Rectangle_2517" data-name="Rectangle 2517" class="cls-5" width="2.026" height="0.421" transform="translate(6.707 43.225) rotate(-0.23)"/>
        <rect id="Rectangle_2518" data-name="Rectangle 2518" class="cls-6" width="15.042" height="10.137" transform="translate(236.212 12.579) rotate(-5.42)"/>
        <path id="Path_2809" data-name="Path 2809" class="cls-3" d="M624.333,97.325a1.339,1.339,0,0,1-.026-.189c0-.137-.039-.313-.064-.541-.047-.481-.12-1.167-.215-2.034-.176-1.764-.429-4.292-.742-7.321l.1.082-14.969,1.442.1-.12h0v.326l.03.335.064.669c.039.429.082.884.125,1.322q.124,1.313.24,2.575c.159,1.691.313,3.313.455,4.854l-.112-.094,10.767-.97,3.094-.266.828-.064h.292a1.858,1.858,0,0,1-.266.039l-.807.086-3.064.318-10.823,1.081h-.1v-.1c-.15-1.536-.3-3.163-.468-4.849l-.249-2.575c-.039-.429-.082-.858-.124-1.322l-.064-.669L608.3,89v-.326h0l.1-.124,14.973-1.4h.09v.086c.27,3.077.494,5.609.652,7.386.073.858.129,1.541.167,2.021a4.587,4.587,0,0,0,.043.524,1.277,1.277,0,0,1,0,.159Z" transform="translate(-372.193 -76.065)"/>
        <path id="Path_2810" data-name="Path 2810" class="cls-3" d="M623.507,87.34a3.991,3.991,0,0,1-.455.571l-1.313,1.511c-1.116,1.287-2.674,3-4.42,4.961l-.06.069-.082-.051-.4-.253c-2.292-1.459-4.36-2.794-5.854-3.768l-1.764-1.163-.472-.326c-.107-.077-.163-.12-.159-.129a.791.791,0,0,1,.18.09l.5.292,1.8,1.1c1.511.94,3.6,2.253,5.888,3.712l.4.257h-.142c1.751-1.923,3.33-3.656,4.455-4.875l1.365-1.463a5.255,5.255,0,0,1,.536-.536Z" transform="translate(-372.324 -76.173)"/>
        <path id="Path_2811" data-name="Path 2811" class="cls-3" d="M432.873,71.189a.94.94,0,0,0,.373-.142.738.738,0,0,0,.262-.395,4.062,4.062,0,0,0,.021-.669c0-1.047,0-2.528.026-4.352v-2.21a2.122,2.122,0,0,0,0-.373.661.661,0,0,0-.163-.3.588.588,0,0,0-.3-.163,3.832,3.832,0,0,0-.395,0H422.166a.6.6,0,0,0-.566.558v1.026c0,.682,0,1.352-.03,2.013-.021,1.322-.043,2.575-.064,3.811v.455a.6.6,0,0,0,.09.369.562.562,0,0,0,.279.24,1.133,1.133,0,0,0,.395.039h4.678l4.352.034h1.184l-1.184.021-4.352.034h-4.678a1.288,1.288,0,0,1-.464-.052.768.768,0,0,1-.382-.318.858.858,0,0,1-.124-.481V69.9c0-1.219.034-2.493.052-3.811,0-.661,0-1.335.026-2.017V63.035a.82.82,0,0,1,.8-.755h10.527a3.029,3.029,0,0,1,.429,0,.764.764,0,0,1,.4.219.777.777,0,0,1,.206.4,1.938,1.938,0,0,1,0,.429V64.1c0,.5-.021.978-.03,1.442-.039,1.82-.073,3.3-.094,4.347a4.173,4.173,0,0,1-.047.687.747.747,0,0,1-.3.429.674.674,0,0,1-.3.107.312.312,0,0,1-.1.082Z" transform="translate(-265.444 -61.864)"/>
        <path id="Path_2812" data-name="Path 2812" class="cls-3" d="M434.848,69.988l1.463.888-1.5.88-1.493.875.03-1.764.03-1.768Z" transform="translate(-272.306 -65.761)"/>
        <path id="Path_2813" data-name="Path 2813" class="cls-5" d="M124.43,61.32H103.17V89.039l21.26.532Z" transform="translate(-83.841 -61.32)"/>
        <path id="Path_2814" data-name="Path 2814" class="cls-4" d="M124.409,63.62h-18.6V88.76l18.6.627Z" transform="translate(-85.348 -62.633)"/>
        <path id="Path_2815" data-name="Path 2815" class="cls-3" d="M125.437,73.638,113.09,73.17V90.739h12.347Z" transform="translate(-89.504 -68.085)"/>
        <path id="Path_2816" data-name="Path 2816" class="cls-7" d="M113.09,90.739l12.347-9.025L113.09,73.17Z" transform="translate(-89.504 -68.085)"/>
        <path id="Path_2817" data-name="Path 2817" class="cls-5" d="M509.491,334.8c-7.781-5.433-9.544-15.522-9.235-24.59.052-1.515-.116-3.111.605-4.437s2.4-2.236,3.755-1.6c1.124.532,1.614,1.837,2.244,2.918a8.814,8.814,0,0,0,3.549,3.39,3.368,3.368,0,0,0,3.107.283c1.287-.721,1.459-2.523,1.451-4.03l-.052-8.42a14.728,14.728,0,0,1,.455-4.472,4.629,4.629,0,0,1,2.935-3.154,2.839,2.839,0,0,1,3.506,1.9,14.353,14.353,0,0,1,.043,1.875,1.576,1.576,0,0,0,.923,1.489,1.843,1.843,0,0,0,1.656-.691,19.927,19.927,0,0,0,3.592-5.424,27.7,27.7,0,0,1,3.352-5.6,8.151,8.151,0,0,1,5.519-3.094,4.868,4.868,0,0,1,5,3.326c.545,2.116-.691,4.292-2.038,6.008a33.684,33.684,0,0,1-7,6.669,2.738,2.738,0,0,0-1.172,1.257c-.326,1,.622,2,1.614,2.33a17.432,17.432,0,0,0,3.515.395,3.38,3.38,0,0,1,2.888,1.768c.618,1.536-.669,3.15-1.936,4.206a28.715,28.715,0,0,1-8.519,4.918,9.791,9.791,0,0,0-3.167,1.541c-.893.777.494,3.532,1.034,4.592s0,0,1.159-.215a21.442,21.442,0,0,0,3.3-1.262c2.069-.781,4.721-.639,6.064,1.15a4.8,4.8,0,0,1,.506,4.214,10.987,10.987,0,0,1-2.279,3.721,28.977,28.977,0,0,1-12.364,8.686c-4.8,1.665-9.244,2.116-14.016.369" transform="translate(-310.498 -186.799)"/>
        <path id="Path_2818" data-name="Path 2818" class="cls-3" d="M521.55,343.226a65.983,65.983,0,0,1,2.459-12.411,134.793,134.793,0,0,1,5.356-14.523c.536-1.262,1.073-2.506,1.6-3.734s1.051-2.442,1.635-3.6a68.044,68.044,0,0,1,3.738-6.446c1.287-1.991,2.575-3.837,3.811-5.553s2.4-3.3,3.536-4.686a53.68,53.68,0,0,1,5.832-6.163c.742-.669,1.335-1.172,1.742-1.506l.463-.378a1.121,1.121,0,0,1,.167-.12,1.323,1.323,0,0,1-.15.142l-.429.4c-.395.348-.974.858-1.717,1.545a56.614,56.614,0,0,0-5.751,6.206c-1.12,1.4-2.287,2.978-3.506,4.695s-2.5,3.571-3.785,5.579a68.689,68.689,0,0,0-3.712,6.437c-.579,1.15-1.1,2.352-1.626,3.583s-1.06,2.472-1.6,3.734a137.058,137.058,0,0,0-5.364,14.488,66.952,66.952,0,0,0-2.506,12.325" transform="translate(-322.672 -188.499)"/>
        <path id="Path_2819" data-name="Path 2819" class="cls-3" d="M544.557,319.971a3.146,3.146,0,0,1-.146-.639c-.082-.429-.176-1.021-.279-1.772-.215-1.5-.429-3.579-.674-5.875s-.494-4.365-.725-5.858c-.116-.747-.215-1.348-.292-1.764a2.908,2.908,0,0,1-.082-.652,3.36,3.36,0,0,1,.189.631c.107.408.236,1.009.373,1.751.288,1.489.571,3.566.811,5.862s.429,4.313.592,5.879c.073.708.137,1.287.189,1.781A3,3,0,0,1,544.557,319.971Z" transform="translate(-334.552 -199.517)"/>
        <path id="Path_2820" data-name="Path 2820" class="cls-3" d="M566.84,333.529a3.994,3.994,0,0,1-.772.094c-.494.043-1.214.1-2.1.206-1.772.193-4.214.541-6.866,1.047s-5.1,1.073-6.819,1.528c-.858.223-1.558.429-2.038.558a3.766,3.766,0,0,1-.755.185,4.4,4.4,0,0,1,.721-.288c.472-.167,1.163-.395,2.021-.644,1.717-.511,4.12-1.1,6.8-1.618a69.3,69.3,0,0,1,6.918-.966c.893-.077,1.618-.107,2.116-.116A4.532,4.532,0,0,1,566.84,333.529Z" transform="translate(-337.48 -216.696)"/>
        <path id="Path_2821" data-name="Path 2821" class="cls-3" d="M514.866,359.229a1.127,1.127,0,0,1-.133-.236l-.331-.7c-.283-.609-.674-1.5-1.137-2.609-.936-2.219-2.146-5.321-3.4-8.763s-2.438-6.557-3.322-8.789c-.429-1.086-.794-1.978-1.06-2.644l-.283-.721a1.076,1.076,0,0,1-.082-.258.927.927,0,0,1,.133.236c.09.189.2.429.33.7.288.609.674,1.5,1.142,2.609.936,2.219,2.146,5.321,3.4,8.768s2.433,6.553,3.322,8.785l1.056,2.644c.116.288.206.528.283.721A.913.913,0,0,1,514.866,359.229Z" transform="translate(-313.293 -217.27)"/>
        <path id="Path_2822" data-name="Path 2822" class="cls-3" d="M553.548,372.8a1.239,1.239,0,0,1-.258.1l-.747.253-2.759.893c-2.326.751-5.523,1.832-9.059,3.026s-6.746,2.249-9.089,2.957c-1.172.352-2.12.627-2.781.807l-.764.2a.857.857,0,0,1-.27.052,1.242,1.242,0,0,1,.258-.1l.747-.249,2.751-.893c2.326-.755,5.527-1.837,9.064-3.03s6.746-2.249,9.089-2.957c1.172-.352,2.12-.627,2.781-.807l.764-.2A.858.858,0,0,1,553.548,372.8Z" transform="translate(-326.252 -239.128)"/>
      </g>
      <g id="freepik--Floor--inject-36" transform="translate(58.177 226.007)">
        <path id="Path_2823" data-name="Path 2823" class="cls-8" d="M58.24,445.182c0-.064,62.927-.112,140.534-.112s140.547.047,140.547.112-62.914.112-140.547.112S58.24,445.242,58.24,445.182Z" transform="translate(-58.24 -445.07)"/>
      </g>
      <g id="freepik--Calendar--inject-36" transform="translate(105.997 84.529)">
        <path id="Path_2824" data-name="Path 2824" class="cls-3" d="M171.6,172.52S163.558,259.3,180.307,287.2l148.976,1.76s-24.676-75.222-22.539-118.708Z" transform="translate(-169.668 -146.711)"/>
        <path id="Path_2825" data-name="Path 2825" class="cls-5" d="M172.241,175.54s-9.441,89.483,19.977,108.605H335.795S310.312,240.462,308.3,175.54Z" transform="translate(-170.313 -149.731)"/>
        <rect id="Rectangle_2519" data-name="Rectangle 2519" class="cls-8" width="139.68" height="22.397" transform="translate(1.198 4.884)"/>
        <path id="Path_2826" data-name="Path 2826" class="cls-9" d="M201.55,120.46s1.408-5.06,6.54-5.06a6.452,6.452,0,0,1,6.54,6.729A6.584,6.584,0,0,1,208.09,129" transform="translate(-187.868 -115.4)"/>
        <rect id="Rectangle_2520" data-name="Rectangle 2520" class="cls-8" width="6.892" height="3.077" transform="translate(11.605 4.807)"/>
        <path id="Path_2827" data-name="Path 2827" class="cls-9" d="M263.38,120.46s1.408-5.06,6.54-5.06a6.452,6.452,0,0,1,6.54,6.729A6.584,6.584,0,0,1,269.92,129" transform="translate(-223.163 -115.4)"/>
        <rect id="Rectangle_2521" data-name="Rectangle 2521" class="cls-8" width="6.892" height="3.077" transform="translate(38.144 4.807)"/>
        <path id="Path_2828" data-name="Path 2828" class="cls-9" d="M325.22,120.46s1.408-5.06,6.54-5.06a6.452,6.452,0,0,1,6.54,6.729A6.584,6.584,0,0,1,331.76,129" transform="translate(-258.464 -115.4)"/>
        <rect id="Rectangle_2522" data-name="Rectangle 2522" class="cls-8" width="6.892" height="3.077" transform="translate(64.678 4.807)"/>
        <path id="Path_2829" data-name="Path 2829" class="cls-9" d="M387.05,120.46s1.408-5.06,6.54-5.06a6.452,6.452,0,0,1,6.54,6.729A6.584,6.584,0,0,1,393.59,129" transform="translate(-293.76 -115.4)"/>
        <rect id="Rectangle_2523" data-name="Rectangle 2523" class="cls-8" width="6.892" height="3.077" transform="translate(91.217 4.807)"/>
        <path id="Path_2830" data-name="Path 2830" class="cls-9" d="M448.89,120.46s1.408-5.06,6.54-5.06a6.452,6.452,0,0,1,6.54,6.729A6.584,6.584,0,0,1,455.43,129" transform="translate(-329.061 -115.4)"/>
        <rect id="Rectangle_2524" data-name="Rectangle 2524" class="cls-8" width="6.892" height="3.077" transform="translate(117.752 4.807)"/>
        <path id="Path_2831" data-name="Path 2831" class="cls-7" d="M172.474,180.91s-1.545,99.722,30.779,99.722l132.775.047s-18.977-19.363-24.6-99.769Z" transform="translate(-171.263 -152.796)"/>
        <path id="Path_2832" data-name="Path 2832" class="cls-8" d="M333.462,281.351c-.03-.086-.172-.489-.485-1.365s-.8-2.214-1.378-3.974c-1.189-3.5-2.85-8.669-4.751-15.351a453.653,453.653,0,0,1-12.016-56.8l.09.077H201.27l.112-.129c2.026,14.437,4.107,28.509,7.476,41.688a149.911,149.911,0,0,0,6.107,18.943,110.747,110.747,0,0,0,8.437,16.857l-.086-.047,110.142.1-110.142.1h-.056l-.03-.047a110.978,110.978,0,0,1-8.471-16.866,150.493,150.493,0,0,1-6.12-18.964c-3.377-13.2-5.459-27.273-7.489-41.714v-.129h1.2l112.579.021h.077v.077a459.878,459.878,0,0,0,11.939,56.8c1.888,6.686,3.528,11.862,4.721,15.364S333.406,281.175,333.462,281.351Z" transform="translate(-187.639 -165.823)"/>
        <path id="Path_2833" data-name="Path 2833" class="cls-8" d="M331,294.012c0,.064-25.354.112-56.622.112s-56.648-.047-56.648-.112,25.35-.112,56.648-.112S331,293.943,331,294.012Z" transform="translate(-197.104 -217.296)"/>
        <path id="Path_2834" data-name="Path 2834" class="cls-8" d="M345.186,342.282c0,.06-25.363.112-56.648.112s-56.648-.051-56.648-.112,25.354-.112,56.648-.112S345.186,342.217,345.186,342.282Z" transform="translate(-205.187 -244.851)"/>
        <path id="Path_2835" data-name="Path 2835" class="cls-8" d="M322.07,247.5c0,.06-25.354.112-56.622.112s-56.648-.051-56.648-.112,25.35-.112,56.648-.112S322.07,247.437,322.07,247.5Z" transform="translate(-192.006 -190.746)"/>
        <path id="Path_2836" data-name="Path 2836" class="cls-8" d="M271.219,281.493s-.026-.064-.069-.193-.107-.33-.185-.575c-.163-.519-.395-1.266-.7-2.219-.6-1.927-1.442-4.721-2.459-8.184-2.021-6.927-4.7-16.531-7.3-27.234-1.287-5.352-2.442-10.471-3.433-15.14s-1.8-8.888-2.433-12.445c-.33-1.777-.6-3.386-.858-4.8s-.429-2.631-.592-3.626-.27-1.764-.352-2.3c-.034-.257-.064-.455-.086-.6a1.636,1.636,0,0,1-.021-.2,1.745,1.745,0,0,1,.047.2c.026.146.06.343.107.6l.391,2.287c.163,1,.378,2.214.631,3.622s.532,3,.858,4.789c.652,3.549,1.5,7.759,2.48,12.445s2.146,9.78,3.433,15.132c2.575,10.7,5.24,20.307,7.223,27.243,1,3.463,1.811,6.266,2.39,8.2.279.961.5,1.717.652,2.227l.163.584A.53.53,0,0,1,271.219,281.493Z" transform="translate(-217.089 -165.966)"/>
        <path id="Path_2837" data-name="Path 2837" class="cls-8" d="M322.454,281.5s-.026-.064-.069-.2l-.18-.575-.678-2.223c-.588-1.927-1.412-4.721-2.416-8.193-1.991-6.935-4.686-16.535-7.3-27.23s-4.682-20.458-5.952-27.56c-.326-1.772-.609-3.382-.833-4.8s-.429-2.631-.579-3.631-.258-1.76-.335-2.3c-.034-.257-.06-.455-.082-.6S304,204,304,204a.775.775,0,0,0,.043.2l.1.592c.09.536.215,1.287.378,2.292s.369,2.214.614,3.626.532,3,.858,4.789c1.309,7.09,3.373,16.844,6.008,27.534s5.287,20.29,7.24,27.234l2.352,8.218c.275.961.485,1.717.635,2.232l.159.584A1.468,1.468,0,0,1,322.454,281.5Z" transform="translate(-246.351 -165.977)"/>
        <path id="Path_2838" data-name="Path 2838" class="cls-8" d="M375.966,281.533a2.016,2.016,0,0,1-.073-.193c-.043-.142-.107-.33-.189-.575l-.7-2.219c-.614-1.923-1.468-4.721-2.511-8.154-2.06-6.918-4.845-16.5-7.506-27.187s-4.686-20.483-5.854-27.59c-.3-1.777-.558-3.39-.755-4.811s-.386-2.639-.5-3.643-.215-1.768-.279-2.309c-.03-.253-.051-.455-.069-.6a.563.563,0,0,1,0-.2.95.95,0,0,0,.034.2l.09.6c.077.536.185,1.287.322,2.3s.322,2.223.541,3.639.481,3.026.785,4.8c1.21,7.115,3.236,16.883,5.914,27.564s5.42,20.269,7.446,27.2c1.026,3.455,1.858,6.248,2.438,8.193.283.961.506,1.717.661,2.232q.107.369.167.579C375.953,281.465,375.966,281.533,375.966,281.533Z" transform="translate(-276.904 -166.006)"/>
        <path id="Path_2839" data-name="Path 2839" class="cls-8" d="M429.454,281.5a2.017,2.017,0,0,1-.073-.193l-.193-.575c-.172-.515-.429-1.257-.725-2.21-.627-1.918-1.511-4.721-2.575-8.154-2.146-6.9-5-16.462-7.725-27.144-1.373-5.339-2.575-10.454-3.519-15.136-.506-2.335-.906-4.57-1.287-6.656q-.27-1.571-.519-3.03c-.167-.97-.322-1.905-.429-2.8C411.266,208.463,411,204,411,204a1.031,1.031,0,0,0,.03.2c.03.133.043.343.073.6.06.541.142,1.318.253,2.313s.27,2.227.455,3.648.429,3.038.7,4.819c.129.893.292,1.828.464,2.8s.348,1.978.528,3.026c.408,2.081.815,4.313,1.322,6.643.974,4.673,2.167,9.789,3.536,15.128,2.725,10.673,5.579,20.239,7.665,27.148l2.515,8.175c.3.957.528,1.717.687,2.223.073.249.129.429.172.579S429.454,281.5,429.454,281.5Z" transform="translate(-307.432 -165.977)"/>
        <path id="Path_2840" data-name="Path 2840" class="cls-10" d="M260.352,215.829s.966,9.4,4.7,15.274h21.985s-5.343-9.51-6.008-16.119l-.481-3.7H260Z" transform="translate(-221.234 -170.133)"/>
        <path id="Path_2841" data-name="Path 2841" class="cls-4" d="M284.742,225.572c0,.064-3.129.112-6.991.112s-6.991-.047-6.991-.112,3.129-.112,6.991-.112S284.742,225.512,284.742,225.572Z" transform="translate(-227.376 -178.228)"/>
        <path id="Path_2842" data-name="Path 2842" class="cls-4" d="M286.4,231.112c0,.064-3.129.112-6.991.112s-6.991-.047-6.991-.112,3.129-.112,6.991-.112S286.4,231.051,286.4,231.112Z" transform="translate(-228.324 -181.39)"/>
        <path id="Path_2843" data-name="Path 2843" class="cls-4" d="M287.99,236.652c0,.06-3.129.112-6.991.112s-7-.051-7-.112,3.129-.112,6.991-.112S287.99,236.592,287.99,236.652Z" transform="translate(-229.226 -184.553)"/>
        <path id="Path_2844" data-name="Path 2844" class="cls-4" d="M289.632,242.192c0,.06-3.129.112-6.991.112s-6.991-.052-6.991-.112,3.129-.112,6.991-.112S289.632,242.127,289.632,242.192Z" transform="translate(-230.167 -187.715)"/>
        <path id="Path_2845" data-name="Path 2845" class="cls-8" d="M436.139,269.833s.966,9.4,4.7,15.269h21.977s-5.343-9.506-6.008-16.115l-.481-3.708H435.77Z" transform="translate(-321.572 -200.959)"/>
        <path id="Path_2846" data-name="Path 2846" class="cls-3" d="M460.552,278.482c0,.064-3.129.112-6.991.112s-6.991-.047-6.991-.112,3.133-.112,6.991-.112S460.552,278.421,460.552,278.482Z" transform="translate(-327.737 -208.431)"/>
        <path id="Path_2847" data-name="Path 2847" class="cls-3" d="M462.182,284.022c0,.06-3.129.112-6.991.112s-6.991-.052-6.991-.112,3.129-.112,6.991-.112S462.182,283.949,462.182,284.022Z" transform="translate(-328.667 -211.594)"/>
        <path id="Path_2848" data-name="Path 2848" class="cls-3" d="M463.812,289.562c0,.06-3.129.112-6.991.112s-6.991-.052-6.991-.112,3.129-.112,6.991-.112S463.812,289.5,463.812,289.562Z" transform="translate(-329.598 -214.756)"/>
        <path id="Path_2849" data-name="Path 2849" class="cls-3" d="M465.4,295.1c0,.06-3.129.112-6.991.112s-6.991-.051-6.991-.112,3.129-.112,6.991-.112S465.4,295.037,465.4,295.1Z" transform="translate(-330.505 -217.919)"/>
        <path id="Path_2850" data-name="Path 2850" class="cls-11" d="M383.1,208.078c.227.185-2.618,3.974-6.918,7.9s-8.308,6.437-8.471,6.2,3.489-3.141,7.725-7.025S382.853,207.867,383.1,208.078Z" transform="translate(-282.719 -168.3)"/>
        <path id="Path_2851" data-name="Path 2851" class="cls-11" d="M384.771,223.086c-.18.253-4.982-2.871-10.9-6.729s-10.7-7-10.54-7.3,5.218,2.459,11.158,6.339S384.947,222.838,384.771,223.086Z" transform="translate(-280.22 -168.855)"/>
        <path id="Path_2852" data-name="Path 2852" class="cls-11" d="M316.649,222.692c-.189-.245,2.974-2.965,7.06-6.077s7.549-5.433,7.725-5.188-2.974,2.965-7.06,6.077S316.834,222.936,316.649,222.692Z" transform="translate(-253.567 -170.206)"/>
        <path id="Path_2853" data-name="Path 2853" class="cls-11" d="M331.32,224.274c-.2.257-4.4-2.708-9.746-6.115s-9.785-6.008-9.639-6.279,4.862,1.888,10.244,5.339S331.5,224.042,331.32,224.274Z" transform="translate(-250.879 -170.462)"/>
        <path id="Path_2854" data-name="Path 2854" class="cls-11" d="M343.456,298.013c0-.034.219-.086.648-.116a7.155,7.155,0,0,1,1.88.189,8.531,8.531,0,0,1,2.764,1.184,8.747,8.747,0,0,1,2.777,2.892,9.416,9.416,0,0,1,1.266,4.721,10.328,10.328,0,0,1-.343,2.721,10.022,10.022,0,0,1-1.176,2.674,11.055,11.055,0,0,1-11.248,4.905,11.227,11.227,0,0,1-5.922-3,10.188,10.188,0,0,1-2.862-5.5,10.467,10.467,0,0,1,.515-5.579,8.978,8.978,0,0,1,2.91-3.91,9.712,9.712,0,0,1,3.6-1.747,8.8,8.8,0,0,1,3-.249,3.953,3.953,0,0,1,.579.073c.18.03.348.052.5.09.3.086.562.146.764.227.4.163.6.266.588.3-.034.107-.858-.249-2.455-.257a9.191,9.191,0,0,0-2.8.429,9.363,9.363,0,0,0-3.27,1.764,8.3,8.3,0,0,0-2.536,3.618,9.6,9.6,0,0,0-.369,5.064,9.2,9.2,0,0,0,2.6,4.9,10.21,10.21,0,0,0,5.352,2.682,9.97,9.97,0,0,0,5.931-.734,10.1,10.1,0,0,0,4.257-3.626,9.074,9.074,0,0,0,1.094-2.378,9.508,9.508,0,0,0,.365-2.459,8.807,8.807,0,0,0-1.026-4.292,8.364,8.364,0,0,0-2.446-2.768,8.812,8.812,0,0,0-2.523-1.287A23.819,23.819,0,0,0,343.456,298.013Z" transform="translate(-261.804 -219.156)"/>
        <path id="Path_2855" data-name="Path 2855" class="cls-11" d="M217.652,268.4c-.232-.193,2.472-3.862,6.27-8.025,3.734-4.09,7.158-7.24,7.433-6.961s-2.837,3.583-6.609,7.725S217.9,268.6,217.652,268.4Z" transform="translate(-197.051 -194.177)"/>
        <path id="Path_2856" data-name="Path 2856" class="cls-11" d="M232.918,268.613c-.163.262-4.553-2.146-9.806-5.4s-9.381-6.094-9.218-6.356,4.5,2.146,9.759,5.4S233.081,268.351,232.918,268.613Z" transform="translate(-194.911 -196.138)"/>
        <path id="Path_2857" data-name="Path 2857" class="cls-11" d="M347.513,306.673l1.678,2.408a.721.721,0,0,0,.609.318h2.935a.742.742,0,0,1,.6,1.189l-1.772,2.339a.738.738,0,0,0-.112.678l.923,2.785a.738.738,0,0,1-.944.931l-2.772-.961a.76.76,0,0,0-.682.1l-2.365,1.742a.738.738,0,0,1-1.176-.614l.056-2.931a.747.747,0,0,0-.309-.618l-2.382-1.717a.734.734,0,0,1,.215-1.287l2.811-.858a.747.747,0,0,0,.489-.485l.888-2.794a.742.742,0,0,1,1.313-.227Z" transform="translate(-267.759 -224.413)"/>
        <path id="Path_2858" data-name="Path 2858" class="cls-11" d="M438.779,208.315c.206.227-3.532,3.914-8.351,8.227s-8.892,7.622-9.1,7.39,3.532-3.91,8.351-8.223S438.568,208.083,438.779,208.315Z" transform="translate(-313.324 -168.434)"/>
        <path id="Path_2859" data-name="Path 2859" class="cls-11" d="M438.056,223.914c-.137.275-5.377-2.073-11.7-5.24s-11.342-5.965-11.2-6.244,5.373,2.073,11.7,5.244S438.193,223.64,438.056,223.914Z" transform="translate(-309.803 -170.777)"/>
        <path id="Path_2860" data-name="Path 2860" class="cls-10" d="M449.83,219.84h25.59l6.141,4.751-5.416,4.442-24.535-.026Z" transform="translate(-329.598 -175.019)"/>
        <path id="Path_2861" data-name="Path 2861" class="cls-12" d="M347.513,306.673l1.678,2.408a.721.721,0,0,0,.609.318h2.935a.742.742,0,0,1,.6,1.189l-1.772,2.339a.738.738,0,0,0-.112.678l.923,2.785a.738.738,0,0,1-.944.931l-2.772-.961a.76.76,0,0,0-.682.1l-2.365,1.742a.738.738,0,0,1-1.176-.614l.056-2.931a.747.747,0,0,0-.309-.618l-2.382-1.717a.734.734,0,0,1,.215-1.287l2.811-.858a.747.747,0,0,0,.489-.485l.888-2.794a.742.742,0,0,1,1.313-.227Z" transform="translate(-267.759 -224.413)"/>
      </g>
    </g>
    <ellipse id="Ellipse_433" data-name="Ellipse 433" class="cls-11" cx="35.967" cy="35.967" rx="35.967" ry="35.967" transform="matrix(0.859, -0.512, 0.512, 0.859, 136.5, 83.531)"/>
    <path id="Path_3026" data-name="Path 3026" class="cls-6" d="M205.793,292.964,187.14,277.328l5.465-6.506L205.1,281.3l19.181-20.384,6.2,5.816Z" transform="translate(-22.56 -180.193)"/>
  </g>
</svg>
