<svg xmlns="http://www.w3.org/2000/svg" enable-background="new 0 0 64 64" viewBox="0 0 64 64" id="Flask"><path d="M47.78,26.719c-1.188-3.266-3.645-5.903-6.78-7.356V17h0.484C42.32,17,43,16.32,43,15.484v-2.968
		C43,11.68,42.32,11,41.484,11H41V9h1.153C43.172,9,44,8.171,44,7.153V2.457C44,1.102,42.897,0,41.543,0h-4.764
		c-0.822,0-1.586,0.409-2.043,1.093c-0.001,0-0.001,0.001-0.001,0.001l-0.458,0.687C33.769,2.544,32.917,3,32,3
		s-1.769-0.456-2.277-1.218l-0.459-0.689C28.807,0.409,28.043,0,27.221,0h-4.764C21.103,0,20,1.102,20,2.457V3h-1
		c-3.309,0-6,2.691-6,6s2.691,6,6,6h2v0.484C21,16.32,21.68,17,22.516,17H23v2.362c-3.135,1.453-5.592,4.09-6.781,7.356
		c-1.466,4.035-1.96,8.418-1.428,12.676L17,57.062v3.803C17,62.594,18.406,64,20.136,64h23.729C45.594,64,47,62.594,47,60.864
		v-3.803l2.208-17.667C49.741,35.138,49.247,30.754,47.78,26.719z M41,15h-1H24h-1v-2h1h16h1V15z M39,11H25V9h14V11z M22,2.457
		C22,2.205,22.205,2,22.457,2h4.764c0.153,0,0.295,0.076,0.38,0.203l0.458,0.688C28.939,4.211,30.413,5,32,5s3.061-0.789,3.941-2.11
		l0.457-0.686C36.484,2.076,36.626,2,36.779,2h4.764C41.795,2,42,2.205,42,2.457V7h-2H24h-2V2.457z M19,13c-2.206,0-4-1.794-4-4
		s1.794-4,4-4h1v2.153C20,8.171,20.828,9,21.847,9H23v2h-0.484C21.68,11,21,11.68,21,12.516V13H19z M39,17v2h-2H27h-2v-2H39z M28,21
		h8v2c0,2.206-1.794,4-4,4s-4-1.794-4-4V21z M45,60.864C45,61.49,44.49,62,43.864,62H20.136C19.51,62,19,61.49,19,60.864V58h26
		V60.864z M47.224,39.146L45.117,56H18.883l-2.107-16.854c-0.493-3.945-0.036-8.006,1.323-11.744
		c1.053-2.891,3.269-5.214,6.099-6.402H26v2c0,3.309,2.691,6,6,6s6-2.691,6-6v-2h1.803c2.83,1.188,5.046,3.512,6.099,6.402
		C47.26,31.141,47.717,35.202,47.224,39.146z" fill="#6d9c34" class="color000000 svgShape"></path><path d="M30.795 33.096C29.004 35.437 26 39.729 26 42.176c0 3.309 2.691 6 6 6s6-2.691 6-6c0-2.447-3.004-6.739-4.796-9.082C32.624 32.34 31.377 32.338 30.795 33.096zM32 46.176c-2.206 0-4-1.794-4-4 0-1.234 1.557-4.088 4-7.358 2.443 3.271 4 6.124 4 7.358C36 44.382 34.206 46.176 32 46.176zM32.02 25c.553 0 1-.447 1-1s-.447-1-1-1h-.01c-.552 0-.995.447-.995 1S31.468 25 32.02 25z" fill="#6d9c34" class="color000000 svgShape"></path></svg>