<svg xmlns="http://www.w3.org/2000/svg" width="48.407" height="43.02" viewBox="0 0 48.407 43.02">
  <path id="edit-solid" d="M33.834,7.084l7.58,7.58a.822.822,0,0,1,0,1.16L23.061,34.178l-7.8.866a1.635,1.635,0,0,1-1.807-1.807l.866-7.8L32.675,7.084a.822.822,0,0,1,1.16,0ZM47.449,5.159l-4.1-4.1a3.287,3.287,0,0,0-4.639,0L35.734,4.033a.822.822,0,0,0,0,1.16l7.58,7.58a.822.822,0,0,0,1.16,0L47.449,9.8a3.287,3.287,0,0,0,0-4.639ZM32.271,29.186v8.555H5.379V10.849H24.691a1.033,1.033,0,0,0,.714-.294l3.362-3.362a1.008,1.008,0,0,0-.714-1.723H4.034A4.035,4.035,0,0,0,0,9.5V39.086A4.035,4.035,0,0,0,4.034,43.12H33.616a4.035,4.035,0,0,0,4.034-4.034V25.825a1.01,1.01,0,0,0-1.723-.714l-3.362,3.362A1.033,1.033,0,0,0,32.271,29.186Z" transform="translate(0 -0.1)" fill="#fff"/>
</svg>
