<svg xmlns="http://www.w3.org/2000/svg"  viewBox="0 0 64 64" width="48px" height="48px"><path d="M 15 13 C 11.686 13 9 15.686 9 19 L 9 45 C 9 48.314 11.686 51 15 51 L 49 51 C 52.314 51 55 48.314 55 45 L 55 19 C 55 15.686 52.314 13 49 13 L 15 13 z M 15 17 L 49 17 C 50.105 17 51 17.895 51 19 L 51 45 C 51 46.105 50.105 47 49 47 L 15 47 C 13.895 47 13 46.105 13 45 L 13 19 C 13 17.895 13.895 17 15 17 z M 43.498047 21 C 43.114297 21 42.7305 21.146453 42.4375 21.439453 L 40.498047 23.378906 L 39.560547 22.439453 C 38.974547 21.853453 38.025453 21.853453 37.439453 22.439453 C 36.853453 23.024453 36.853453 23.975547 37.439453 24.560547 L 39.439453 26.560547 C 39.732453 26.853547 40.116 27 40.5 27 C 40.884 27 41.267594 26.853547 41.558594 26.560547 L 44.558594 23.560547 C 45.144594 22.975547 45.144594 22.024453 44.558594 21.439453 C 44.265594 21.146453 43.881797 21 43.498047 21 z M 19.5 23 C 18.672 23 18 23.671 18 24.5 C 18 25.329 18.672 26 19.5 26 L 31.5 26 C 32.328 26 33 25.329 33 24.5 C 33 23.671 32.328 23 31.5 23 L 19.5 23 z M 43.498047 29 C 43.114297 29 42.7305 29.146453 42.4375 29.439453 L 40.498047 31.378906 L 39.560547 30.439453 C 38.974547 29.853453 38.025453 29.853453 37.439453 30.439453 C 36.853453 31.024453 36.853453 31.975547 37.439453 32.560547 L 39.439453 34.560547 C 39.732453 34.853547 40.116 35 40.5 35 C 40.884 35 41.267594 34.853547 41.558594 34.560547 L 44.558594 31.560547 C 45.144594 30.975547 45.144594 30.024453 44.558594 29.439453 C 44.265594 29.146453 43.881797 29 43.498047 29 z M 19.5 31 C 18.672 31 18 31.671 18 32.5 C 18 33.329 18.672 34 19.5 34 L 31.5 34 C 32.328 34 33 33.329 33 32.5 C 33 31.671 32.328 31 31.5 31 L 19.5 31 z M 43.498047 37 C 43.114297 37 42.7305 37.146453 42.4375 37.439453 L 40.498047 39.378906 L 39.560547 38.439453 C 38.974547 37.853453 38.025453 37.853453 37.439453 38.439453 C 36.853453 39.024453 36.853453 39.975547 37.439453 40.560547 L 39.439453 42.560547 C 39.732453 42.853547 40.116 43 40.5 43 C 40.884 43 41.267594 42.853547 41.558594 42.560547 L 44.558594 39.560547 C 45.144594 38.975547 45.144594 38.024453 44.558594 37.439453 C 44.265594 37.146453 43.881797 37 43.498047 37 z M 19.5 39 C 18.672 39 18 39.671 18 40.5 C 18 41.329 18.672 42 19.5 42 L 31.5 42 C 32.328 42 33 41.329 33 40.5 C 33 39.671 32.328 39 31.5 39 L 19.5 39 z"/></svg>