<?xml version="1.0" standalone="no"?>
<!DOCTYPE svg PUBLIC "-//W3C//DTD SVG 20010904//EN"
 "http://www.w3.org/TR/2001/REC-SVG-20010904/DTD/svg10.dtd">
<svg version="1.0" xmlns="http://www.w3.org/2000/svg"
 width="512.000000pt" height="512.000000pt" viewBox="0 0 512.000000 512.000000"
 preserveAspectRatio="xMidYMid meet">

<g transform="translate(0.000000,512.000000) scale(0.100000,-0.100000)"
fill="#000000" stroke="none">
<path d="M1805 4530 c-114 -38 -218 -144 -251 -258 -25 -86 -16 -202 22 -282
76 -162 258 -256 426 -221 171 35 289 158 320 331 28 163 -72 345 -230 418
-78 35 -200 41 -287 12z"/>
<path d="M1540 3629 c-76 -15 -187 -76 -249 -138 -60 -60 -113 -155 -130 -231
-5 -25 -26 -246 -47 -491 -37 -444 -37 -446 -18 -485 39 -80 135 -108 204 -61
67 44 68 49 100 463 33 421 36 452 52 471 9 11 53 19 60 11 2 -2 5 -559 8
-1238 l5 -1235 23 -37 c27 -44 72 -74 125 -83 78 -15 173 49 196 132 7 25 11
272 11 711 l0 672 55 0 55 0 0 -682 c0 -643 2 -685 19 -723 60 -130 229 -143
308 -23 l28 42 5 1229 c5 1153 6 1231 22 1241 14 8 22 6 38 -9 16 -16 34 -90
85 -343 35 -178 72 -336 81 -351 36 -61 131 -88 194 -56 33 17 66 59 75 97 8
30 -135 721 -166 803 -27 74 -88 164 -140 209 -54 48 -147 92 -218 106 -65 12
-717 12 -781 -1z"/>
<path d="M3312 2802 c-66 -24 -118 -65 -159 -126 -43 -64 -56 -116 -51 -206 7
-121 69 -215 176 -267 49 -24 69 -28 142 -28 73 0 93 4 142 28 193 95 244 348
102 506 -88 98 -232 136 -352 93z"/>
<path d="M2780 2367 c-45 -16 -80 -68 -80 -120 0 -100 144 -275 280 -339 41
-20 83 -39 93 -42 16 -5 17 -42 17 -597 0 -525 2 -595 16 -625 21 -43 56 -72
100 -80 48 -9 79 2 122 41 l37 33 3 346 3 346 44 0 45 0 0 -328 c0 -298 2
-330 18 -361 37 -68 129 -91 193 -48 71 47 69 30 69 630 0 408 3 538 12 535
21 -7 48 -110 59 -227 11 -125 24 -155 73 -179 40 -20 90 -7 120 29 24 28 26
38 26 129 0 131 -21 232 -68 333 -50 106 -97 158 -180 199 l-66 33 -240 6
c-136 4 -258 13 -281 19 -105 32 -184 91 -244 183 -52 81 -105 106 -171 84z"/>
</g>
</svg>
