<svg id="Filter" xmlns="http://www.w3.org/2000/svg" width="25" height="25" viewBox="0 0 25 25">
  <path id="icons8-funnel_1_" data-name="icons8-funnel (1)" d="M7.736,6A1.752,1.752,0,0,0,6,7.736V9.882a5.211,5.211,0,0,0,1.986,4.091l0,0,7.038,5.492V29.958a1.042,1.042,0,0,0,1.647.848l4.861-3.472a1.042,1.042,0,0,0,.437-.848V19.467l7.038-5.492,0,0A5.211,5.211,0,0,0,31,9.882V7.736A1.752,1.752,0,0,0,29.264,6Zm.347,2.083H28.917v1.8a3.121,3.121,0,0,1-1.191,2.454l-7.435,5.8a1.042,1.042,0,0,0-.4.822V25.95l-2.778,1.984V18.958a1.042,1.042,0,0,0-.4-.822l-7.435-5.8A3.121,3.121,0,0,1,8.083,9.882Z" transform="translate(-6 -6)"/>
</svg>
