<svg xmlns="http://www.w3.org/2000/svg" width="231.946" height="213.091" viewBox="0 0 231.946 213.091">
  <g id="Group_9225" data-name="Group 9225" transform="translate(-79 -217.524)">
    <g id="Group_9165" data-name="Group 9165" transform="translate(79 217.524)">
      <path id="Path_19981" data-name="Path 19981" d="M120.57,215.277c35.675-1.074,73.048-2.61,103.877-20.559,14.653-8.528,28.258-22.969,27.14-39.883-1.105-16.72-15.608-28.763-27.021-41.044a139.352,139.352,0,0,1-33.577-63.72c-4.133-18.318-19.835-36.274-37.46-42.748-14.928-5.482-31.473-4.483-47.1-1.548C97.826,7.392,89.266,9.6,81.381,13.4,56.008,25.623,41.148,52.525,31.752,79.078c-12.818,36.212-18.181,77.511-2,112.381,2.585,5.569,5.781,11.013,10.489,14.984,7.117,5.919,16.72,7.729,25.929,8.822C86.656,217.65,99.961,215.9,120.57,215.277Z" transform="translate(-19.706 -3.39)" fill="#4797d6" opacity="0.18"/>
      <g id="undraw_breakfast_psiw" transform="translate(4.689 37.608)" opacity="0.611">
        <circle id="Ellipse_314" data-name="Ellipse 314" cx="71.204" cy="71.204" r="71.204" transform="translate(27.387 0)" fill="#3d8ccb"/>
        <path id="Path_19945" data-name="Path 19945" d="M476.013,376.486a51.972,51.972,0,1,1,36.75-15.222A51.972,51.972,0,0,1,476.013,376.486Zm0-100.739a48.767,48.767,0,1,0,48.767,48.767A48.822,48.822,0,0,0,476.013,275.747Z" transform="translate(-377.422 -253.309)" opacity="0.2"/>
        <circle id="Ellipse_315" data-name="Ellipse 315" cx="50.369" cy="50.369" r="50.369" transform="translate(48.221 20.835)" fill="#3f3d56"/>
        <path id="Path_19946" data-name="Path 19946" d="M471.657,358.364a6.392,6.392,0,0,1,11.393-5.8l14.231,27.945a6.392,6.392,0,1,1-11.393,5.8Z" transform="translate(-410.525 -307.301)" fill="#ff6584"/>
        <path id="Path_19947" data-name="Path 19947" d="M477.143,374.224l-.657-1.29a36.914,36.914,0,0,1,11.393-5.8l.657,1.29C483.919,369.384,479.991,371.163,477.143,374.224Z" transform="translate(-414.424 -320.044)" opacity="0.2"/>
        <path id="Path_19948" data-name="Path 19948" d="M487.55,394.66l-.657-1.29a36.913,36.913,0,0,1,11.393-5.8l.657,1.29C494.326,389.819,490.4,391.6,487.55,394.66Z" transform="translate(-421.766 -334.46)" opacity="0.2"/>
        <path id="Path_19949" data-name="Path 19949" d="M497.956,415.1l-.657-1.29a36.915,36.915,0,0,1,11.393-5.8l.657,1.29C504.732,410.255,500.8,412.034,497.956,415.1Z" transform="translate(-429.107 -348.877)" opacity="0.2"/>
        <path id="Path_19950" data-name="Path 19950" d="M508.363,435.53l-.657-1.29a36.914,36.914,0,0,1,11.393-5.8l.657,1.29C515.139,430.69,511.211,432.469,508.363,435.53Z" transform="translate(-436.449 -363.293)" opacity="0.2"/>
        <path id="Path_19951" data-name="Path 19951" d="M518.77,455.966l-.657-1.29a36.914,36.914,0,0,1,11.393-5.8l.657,1.29C525.546,451.125,521.618,452.9,518.77,455.966Z" transform="translate(-443.79 -377.71)" opacity="0.2"/>
        <path id="Path_19952" data-name="Path 19952" d="M435.408,393.883a6.393,6.393,0,0,1,11.393-5.8l14.231,27.945a6.392,6.392,0,0,1-11.393,5.8Z" transform="translate(-384.953 -332.358)" fill="#ff6584"/>
        <path id="Path_19953" data-name="Path 19953" d="M440.895,409.743l-.657-1.29a36.914,36.914,0,0,1,11.393-5.8l.657,1.29C447.671,404.9,443.743,406.682,440.895,409.743Z" transform="translate(-388.852 -345.102)" opacity="0.2"/>
        <path id="Path_19954" data-name="Path 19954" d="M451.3,430.179l-.657-1.29a36.913,36.913,0,0,1,11.393-5.8l.657,1.29C458.078,425.338,454.15,427.118,451.3,430.179Z" transform="translate(-396.194 -359.518)" opacity="0.2"/>
        <path id="Path_19955" data-name="Path 19955" d="M461.708,450.614l-.657-1.29a36.914,36.914,0,0,1,11.393-5.8l.657,1.29C468.484,445.774,464.556,447.553,461.708,450.614Z" transform="translate(-403.535 -373.934)" opacity="0.2"/>
        <path id="Path_19956" data-name="Path 19956" d="M472.115,471.049l-.657-1.29a36.915,36.915,0,0,1,11.393-5.8l.657,1.29C478.891,466.209,474.963,467.988,472.115,471.049Z" transform="translate(-410.877 -388.351)" opacity="0.2"/>
        <path id="Path_19957" data-name="Path 19957" d="M482.521,491.485l-.657-1.29a36.915,36.915,0,0,1,11.393-5.8l.657,1.29C489.3,486.644,485.369,488.424,482.521,491.485Z" transform="translate(-418.218 -402.767)" opacity="0.2"/>
        <path id="Path_19958" data-name="Path 19958" d="M616.609,361.224h.045a7.625,7.625,0,0,0,7.139-4.782,24.958,24.958,0,1,0-33.248,13.671,7.56,7.56,0,0,0,8.4-1.557A24.876,24.876,0,0,1,616.609,361.224Z" transform="translate(-484.363 -288.417)" fill="#e6e6e6"/>
        <circle id="Ellipse_316" data-name="Ellipse 316" cx="8.242" cy="8.242" r="8.242" transform="translate(111.183 48.767)" fill="#f9a825"/>
        <ellipse id="Ellipse_317" data-name="Ellipse 317" cx="0.971" cy="0.971" rx="0.971" ry="0.971" transform="translate(100.541 54.14)" fill="#3f3d56"/>
        <ellipse id="Ellipse_318" data-name="Ellipse 318" cx="0.971" cy="0.971" rx="0.971" ry="0.971" transform="translate(68.488 55.056)" fill="#3f3d56"/>
        <ellipse id="Ellipse_319" data-name="Ellipse 319" cx="0.971" cy="0.971" rx="0.971" ry="0.971" transform="translate(105.716 44.077)" fill="#3f3d56"/>
        <ellipse id="Ellipse_320" data-name="Ellipse 320" cx="0.971" cy="0.971" rx="0.971" ry="0.971" transform="translate(105.688 72.065)" fill="#3f3d56"/>
        <ellipse id="Ellipse_321" data-name="Ellipse 321" cx="0.971" cy="0.971" rx="0.971" ry="0.971" transform="translate(124.92 42.072)" fill="#3f3d56"/>
        <ellipse id="Ellipse_322" data-name="Ellipse 322" cx="0.971" cy="0.971" rx="0.971" ry="0.971" transform="translate(62.187 68.63)" fill="#3f3d56"/>
        <ellipse id="Ellipse_323" data-name="Ellipse 323" cx="0.971" cy="0.971" rx="0.971" ry="0.971" transform="translate(69.285 82.597)" fill="#3f3d56"/>
        <circle id="Ellipse_324" data-name="Ellipse 324" cx="3.663" cy="3.663" r="3.663" transform="translate(111.183 81.736)" fill="#ff6584"/>
        <path id="Path_19959" data-name="Path 19959" d="M651.866,497.982a2.747,2.747,0,1,1-5.495,0" transform="translate(-534.273 -412.354)" opacity="0.2"/>
        <path id="Path_19960" data-name="Path 19960" d="M646.371,489.847a2.747,2.747,0,1,1,5.495,0" transform="translate(-534.273 -404.677)" opacity="0.2"/>
        <ellipse id="Ellipse_325" data-name="Ellipse 325" cx="0.229" cy="0.343" rx="0.229" ry="0.343" transform="translate(113.244 83.797)" fill="#ff6584"/>
        <ellipse id="Ellipse_326" data-name="Ellipse 326" cx="0.229" cy="0.343" rx="0.229" ry="0.343" transform="translate(114.617 83.339)" fill="#ff6584"/>
        <ellipse id="Ellipse_327" data-name="Ellipse 327" cx="0.229" cy="0.343" rx="0.229" ry="0.343" transform="translate(114.617 86.315)" fill="#ff6584"/>
        <ellipse id="Ellipse_328" data-name="Ellipse 328" cx="0.229" cy="0.343" rx="0.229" ry="0.343" transform="translate(115.991 84.483)" fill="#ff6584"/>
        <ellipse id="Ellipse_329" data-name="Ellipse 329" cx="0.229" cy="0.343" rx="0.229" ry="0.343" transform="translate(115.762 87.002)" fill="#ff6584"/>
        <ellipse id="Ellipse_330" data-name="Ellipse 330" cx="0.229" cy="0.343" rx="0.229" ry="0.343" transform="translate(113.015 85.857)" fill="#ff6584"/>
        <circle id="Ellipse_331" data-name="Ellipse 331" cx="3.663" cy="3.663" r="3.663" transform="translate(118.509 71.891)" fill="#ff6584"/>
        <path id="Path_19961" data-name="Path 19961" d="M676.741,464.556a2.747,2.747,0,1,1-5.495,0" transform="translate(-551.821 -388.773)" opacity="0.2"/>
        <path id="Path_19962" data-name="Path 19962" d="M671.246,456.421a2.747,2.747,0,1,1,5.495,0" transform="translate(-551.821 -381.096)" opacity="0.2"/>
        <ellipse id="Ellipse_332" data-name="Ellipse 332" cx="0.229" cy="0.343" rx="0.229" ry="0.343" transform="translate(120.57 73.952)" fill="#ff6584"/>
        <ellipse id="Ellipse_333" data-name="Ellipse 333" cx="0.229" cy="0.343" rx="0.229" ry="0.343" transform="translate(121.944 73.494)" fill="#ff6584"/>
        <ellipse id="Ellipse_334" data-name="Ellipse 334" cx="0.229" cy="0.343" rx="0.229" ry="0.343" transform="translate(121.944 76.47)" fill="#ff6584"/>
        <ellipse id="Ellipse_335" data-name="Ellipse 335" cx="0.229" cy="0.343" rx="0.229" ry="0.343" transform="translate(123.317 74.638)" fill="#ff6584"/>
        <ellipse id="Ellipse_336" data-name="Ellipse 336" cx="0.229" cy="0.343" rx="0.229" ry="0.343" transform="translate(123.089 77.157)" fill="#ff6584"/>
        <ellipse id="Ellipse_337" data-name="Ellipse 337" cx="0.229" cy="0.343" rx="0.229" ry="0.343" transform="translate(120.341 76.012)" fill="#ff6584"/>
        <circle id="Ellipse_338" data-name="Ellipse 338" cx="3.663" cy="3.663" r="3.663" transform="translate(125.836 76.928)" fill="#3d8ccb"/>
        <path id="Path_19963" data-name="Path 19963" d="M701.616,481.658a2.747,2.747,0,0,1-5.495,0" transform="translate(-569.37 -400.838)" opacity="0.2"/>
        <path id="Path_19964" data-name="Path 19964" d="M696.121,473.523a2.747,2.747,0,0,1,5.495,0" transform="translate(-569.37 -393.16)" opacity="0.2"/>
        <ellipse id="Ellipse_339" data-name="Ellipse 339" cx="0.229" cy="0.343" rx="0.229" ry="0.343" transform="translate(127.897 78.989)" fill="#3d8ccb"/>
        <ellipse id="Ellipse_340" data-name="Ellipse 340" cx="0.229" cy="0.343" rx="0.229" ry="0.343" transform="translate(129.27 78.531)" fill="#3d8ccb"/>
        <ellipse id="Ellipse_341" data-name="Ellipse 341" cx="0.229" cy="0.343" rx="0.229" ry="0.343" transform="translate(129.27 81.507)" fill="#3d8ccb"/>
        <ellipse id="Ellipse_342" data-name="Ellipse 342" cx="0.229" cy="0.343" rx="0.229" ry="0.343" transform="translate(130.644 79.675)" fill="#3d8ccb"/>
        <ellipse id="Ellipse_343" data-name="Ellipse 343" cx="0.229" cy="0.343" rx="0.229" ry="0.343" transform="translate(130.415 82.194)" fill="#3d8ccb"/>
        <ellipse id="Ellipse_344" data-name="Ellipse 344" cx="0.229" cy="0.343" rx="0.229" ry="0.343" transform="translate(127.668 81.049)" fill="#3d8ccb"/>
        <circle id="Ellipse_345" data-name="Ellipse 345" cx="3.663" cy="3.663" r="3.663" transform="translate(107.52 77.386)" fill="#3d8ccb"/>
        <path id="Path_19965" data-name="Path 19965" d="M639.429,483.213a2.747,2.747,0,1,1-5.495,0" transform="translate(-525.498 -401.935)" opacity="0.2"/>
        <path id="Path_19966" data-name="Path 19966" d="M633.934,475.077a2.747,2.747,0,1,1,5.495,0" transform="translate(-525.498 -394.257)" opacity="0.2"/>
        <ellipse id="Ellipse_346" data-name="Ellipse 346" cx="0.229" cy="0.343" rx="0.229" ry="0.343" transform="translate(109.58 79.446)" fill="#3d8ccb"/>
        <ellipse id="Ellipse_347" data-name="Ellipse 347" cx="0.229" cy="0.343" rx="0.229" ry="0.343" transform="translate(110.954 78.989)" fill="#3d8ccb"/>
        <ellipse id="Ellipse_348" data-name="Ellipse 348" cx="0.229" cy="0.343" rx="0.229" ry="0.343" transform="translate(110.954 81.965)" fill="#3d8ccb"/>
        <ellipse id="Ellipse_349" data-name="Ellipse 349" cx="0.229" cy="0.343" rx="0.229" ry="0.343" transform="translate(112.328 80.133)" fill="#3d8ccb"/>
        <ellipse id="Ellipse_350" data-name="Ellipse 350" cx="0.229" cy="0.343" rx="0.229" ry="0.343" transform="translate(112.099 82.652)" fill="#3d8ccb"/>
        <ellipse id="Ellipse_351" data-name="Ellipse 351" cx="0.229" cy="0.343" rx="0.229" ry="0.343" transform="translate(109.351 81.507)" fill="#3d8ccb"/>
        <circle id="Ellipse_352" data-name="Ellipse 352" cx="3.663" cy="3.663" r="3.663" transform="translate(115.762 78.989)" fill="#3d8ccb"/>
        <path id="Path_19967" data-name="Path 19967" d="M667.413,488.654a2.747,2.747,0,0,1-5.495,0" transform="translate(-545.24 -405.773)" opacity="0.2"/>
        <path id="Path_19968" data-name="Path 19968" d="M661.918,480.519a2.747,2.747,0,1,1,5.495,0" transform="translate(-545.24 -398.096)" opacity="0.2"/>
        <ellipse id="Ellipse_353" data-name="Ellipse 353" cx="0.229" cy="0.343" rx="0.229" ry="0.343" transform="translate(117.823 81.049)" fill="#3d8ccb"/>
        <ellipse id="Ellipse_354" data-name="Ellipse 354" cx="0.229" cy="0.343" rx="0.229" ry="0.343" transform="translate(119.196 80.591)" fill="#3d8ccb"/>
        <ellipse id="Ellipse_355" data-name="Ellipse 355" cx="0.229" cy="0.343" rx="0.229" ry="0.343" transform="translate(119.196 83.568)" fill="#3d8ccb"/>
        <ellipse id="Ellipse_356" data-name="Ellipse 356" cx="0.229" cy="0.343" rx="0.229" ry="0.343" transform="translate(120.57 81.736)" fill="#3d8ccb"/>
        <ellipse id="Ellipse_357" data-name="Ellipse 357" cx="0.229" cy="0.343" rx="0.229" ry="0.343" transform="translate(120.341 84.254)" fill="#3d8ccb"/>
        <ellipse id="Ellipse_358" data-name="Ellipse 358" cx="0.229" cy="0.343" rx="0.229" ry="0.343" transform="translate(117.594 83.11)" fill="#3d8ccb"/>
        <circle id="Ellipse_359" data-name="Ellipse 359" cx="3.663" cy="3.663" r="3.663" transform="translate(121.486 82.881)" fill="#ff6584"/>
        <path id="Path_19969" data-name="Path 19969" d="M686.847,501.869a2.747,2.747,0,1,1-5.495,0" transform="translate(-558.95 -415.096)" opacity="0.2"/>
        <path id="Path_19970" data-name="Path 19970" d="M681.352,493.734a2.747,2.747,0,1,1,5.495,0" transform="translate(-558.95 -407.419)" opacity="0.2"/>
        <ellipse id="Ellipse_360" data-name="Ellipse 360" cx="0.229" cy="0.343" rx="0.229" ry="0.343" transform="translate(123.546 84.941)" fill="#ff6584"/>
        <ellipse id="Ellipse_361" data-name="Ellipse 361" cx="0.229" cy="0.343" rx="0.229" ry="0.343" transform="translate(124.92 84.483)" fill="#ff6584"/>
        <ellipse id="Ellipse_362" data-name="Ellipse 362" cx="0.229" cy="0.343" rx="0.229" ry="0.343" transform="translate(124.92 87.46)" fill="#ff6584"/>
        <ellipse id="Ellipse_363" data-name="Ellipse 363" cx="0.229" cy="0.343" rx="0.229" ry="0.343" transform="translate(126.294 85.628)" fill="#ff6584"/>
        <ellipse id="Ellipse_364" data-name="Ellipse 364" cx="0.229" cy="0.343" rx="0.229" ry="0.343" transform="translate(126.065 88.147)" fill="#ff6584"/>
        <ellipse id="Ellipse_365" data-name="Ellipse 365" cx="0.229" cy="0.343" rx="0.229" ry="0.343" transform="translate(123.317 87.002)" fill="#ff6584"/>
        <ellipse id="Ellipse_366" data-name="Ellipse 366" cx="0.971" cy="0.971" rx="0.971" ry="0.971" transform="translate(77.069 71.607)" fill="#3f3d56"/>
        <path id="Path_19971" data-name="Path 19971" d="M408.49,342.642l-23.32-6.467.893-3.318,23.319,6.467Z" transform="translate(-304.056 -234.82)" fill="#f9a825"/>
        <path id="Path_19972" data-name="Path 19972" d="M550.835,561.332a64.29,64.29,0,0,1-24.174,0v-3.44a73.922,73.922,0,0,0,24.174,0Z" transform="translate(-449.82 -454.619)" fill="#f9a825"/>
        <path id="Path_19973" data-name="Path 19973" d="M559.273,526.3a64.286,64.286,0,0,1-24.174,0v-3.44a73.922,73.922,0,0,0,24.174,0Z" transform="translate(-455.773 -429.903)" fill="#f9a825"/>
        <path id="Path_19974" data-name="Path 19974" d="M587.655,540.311a64.286,64.286,0,0,1-24.174,0v-3.44a73.926,73.926,0,0,0,24.174,0Z" transform="translate(-475.795 -439.789)" fill="#f9a825"/>
        <path id="Path_19975" data-name="Path 19975" d="M594.558,553.546a64.286,64.286,0,0,1-24.174,0v-3.44a73.925,73.925,0,0,0,24.174,0Z" transform="translate(-480.666 -449.126)" fill="#f9a825"/>
        <path id="Path_19976" data-name="Path 19976" d="M462.079,363.7l-23.85,4.006-.553-3.394,23.85-4.006Z" transform="translate(-341.098 -254.182)" fill="#f9a825"/>
        <path id="Path_19977" data-name="Path 19977" d="M608.432,573.091a64.786,64.786,0,0,1-21.966,10.245l-1.415-3.125a74.5,74.5,0,0,0,21.966-10.245Z" transform="translate(-491.013 -463.136)" fill="#f9a825"/>
        <path id="Path_19978" data-name="Path 19978" d="M601.685,537.68a64.786,64.786,0,0,1-21.966,10.245L578.3,544.8a74.5,74.5,0,0,0,21.966-10.245Z" transform="translate(-486.253 -438.155)" fill="#f9a825"/>
        <path id="Path_19979" data-name="Path 19979" d="M633.24,538.386a64.787,64.787,0,0,1-21.966,10.245l-1.415-3.125a74.5,74.5,0,0,0,21.966-10.245Z" transform="translate(-508.514 -438.653)" fill="#f9a825"/>
        <path id="Path_19980" data-name="Path 19980" d="M644.958,547.486a64.789,64.789,0,0,1-21.966,10.245l-1.415-3.125a74.5,74.5,0,0,0,21.966-10.245Z" transform="translate(-516.781 -445.073)" fill="#f9a825"/>
        <rect id="Rectangle_3054" data-name="Rectangle 3054" width="1.145" height="1.145" transform="translate(98.133 95.702)" fill="#00bf71"/>
        <rect id="Rectangle_3055" data-name="Rectangle 3055" width="1.145" height="1.145" transform="translate(101.567 115.621)" fill="#00bf71"/>
        <rect id="Rectangle_3056" data-name="Rectangle 3056" width="1.145" height="1.145" transform="translate(83.251 95.702)" fill="#00bf71"/>
        <rect id="Rectangle_3057" data-name="Rectangle 3057" width="1.145" height="1.145" transform="translate(109.809 109.897)" fill="#00bf71"/>
        <rect id="Rectangle_3058" data-name="Rectangle 3058" width="1.145" height="1.145" transform="translate(110.496 103.257)" fill="#00bf71"/>
        <rect id="Rectangle_3059" data-name="Rectangle 3059" width="1.603" height="0.916" transform="translate(91.43 99.222) rotate(34.156)" fill="#00bf71"/>
        <rect id="Rectangle_3060" data-name="Rectangle 3060" width="1.603" height="0.916" transform="translate(104.938 101.74) rotate(34.156)" fill="#00bf71"/>
        <rect id="Rectangle_3061" data-name="Rectangle 3061" width="1.603" height="0.916" transform="translate(88.454 106.09) rotate(34.156)" fill="#00bf71"/>
        <rect id="Rectangle_3062" data-name="Rectangle 3062" width="1.603" height="0.916" transform="translate(99.078 105.599) rotate(124.156)" fill="#00bf71"/>
        <rect id="Rectangle_3063" data-name="Rectangle 3063" width="1.603" height="0.916" transform="translate(105.259 107.201) rotate(124.156)" fill="#00bf71"/>
        <rect id="Rectangle_3064" data-name="Rectangle 3064" width="1.603" height="0.916" transform="translate(121.744 101.706) rotate(124.156)" fill="#00bf71"/>
        <path id="Path_19982" data-name="Path 19982" d="M774.709,307.634l-.83,33.178-1.028,41.142H737.858l-1.2-48.2L736,307.634Z" transform="translate(-571.659 -238.886)" fill="#e6e6e6"/>
        <rect id="Rectangle_3065" data-name="Rectangle 3065" width="4.955" height="65.65" transform="translate(181.063 51.096)" fill="#3d8ccb"/>
        <path id="Path_19983" data-name="Path 19983" d="M931.4,562.03l-.937,47.157h-31.9l-1.1-55.249a21.736,21.736,0,0,1,17.187,2.364A48.233,48.233,0,0,0,931.4,562.03Z" transform="translate(-730.823 -468.283)" fill="#3f3d56"/>
        <rect id="Rectangle_3066" data-name="Rectangle 3066" width="4.546" height="4.546" transform="translate(171.09 99.056)" fill="#e6e6e6"/>
        <rect id="Rectangle_3067" data-name="Rectangle 3067" width="4.546" height="4.546" transform="translate(174.186 89.765)" fill="#e6e6e6"/>
        <rect id="Rectangle_3068" data-name="Rectangle 3068" width="4.546" height="4.546" transform="translate(184.845 93.489) rotate(36.562)" fill="#e6e6e6"/>
        <rect id="Rectangle_3069" data-name="Rectangle 3069" width="4.546" height="4.546" transform="translate(193.06 101.545) rotate(36.562)" fill="#e6e6e6"/>
        <rect id="Rectangle_3070" data-name="Rectangle 3070" width="4.546" height="4.546" transform="translate(179.124 106.19) rotate(36.562)" fill="#e6e6e6"/>
        <ellipse id="Ellipse_367" data-name="Ellipse 367" cx="0.929" cy="0.929" rx="0.929" ry="0.929" transform="translate(192.521 86.089)" fill="#3f3d56"/>
        <ellipse id="Ellipse_368" data-name="Ellipse 368" cx="0.929" cy="0.929" rx="0.929" ry="0.929" transform="translate(173.632 79.895)" fill="#3f3d56"/>
        <ellipse id="Ellipse_369" data-name="Ellipse 369" cx="0.929" cy="0.929" rx="0.929" ry="0.929" transform="translate(189.424 73.392)" fill="#3f3d56"/>
        <path id="Path_19984" data-name="Path 19984" d="M257.083,460.3H244.848a1.622,1.622,0,0,0-1.622,1.622v5.37a1.622,1.622,0,0,0,1.622,1.622h2.028v8.047h8.18v-8.047h2.028a1.622,1.622,0,0,0,1.622-1.622v-5.37A1.622,1.622,0,0,0,257.083,460.3Z" transform="translate(-231.962 -416.649)" fill="#3d8ccb"/>
        <path id="Path_19985" data-name="Path 19985" d="M254.441,520.311A62.9,62.9,0,0,1,243.5,483.016a1.327,1.327,0,0,0-1.036-1.324v-2.321H229.539v2.288h-.178a1.326,1.326,0,0,0-1.321,1.424,57.406,57.406,0,0,1-10.313,38.178,3.654,3.654,0,0,0-.661,2.214l1.413,43.707a3.784,3.784,0,0,0,3.751,3.652h29.228a3.785,3.785,0,0,0,3.754-3.716l.544-42.436A7.659,7.659,0,0,0,254.441,520.311Z" transform="translate(-217.065 -427.51)" fill="#3f3d56"/>
        <path id="Path_19986" data-name="Path 19986" d="M260.23,464.365a3.5,3.5,0,0,1-7,0" transform="translate(-237.66 -418.964)" opacity="0.2"/>
        <path id="Path_19987" data-name="Path 19987" d="M256.025,597.767h-3.539a9.289,9.289,0,0,0-18.362,0h-3.54A2.612,2.612,0,0,0,228,600.776l3.844,24.989h22.076l4.67-24.9a2.612,2.612,0,0,0-2.567-3.093Z" transform="translate(-223.277 -490.447)" fill="#3d8ccb"/>
      </g>
    </g>
  </g>
</svg>
