<svg xmlns="http://www.w3.org/2000/svg" width="22.559" height="22.851" viewBox="0 0 22.559 22.851">
  <g id="Group_8555" data-name="Group 8555" transform="translate(-141.085 -768)">
    <path id="icons8-attach_3_" data-name="icons8-attach (3)" d="M20.25,4.037A6.294,6.294,0,0,0,15.785,5.88L4.251,17.414a.857.857,0,1,0,1.213,1.213L17,7.093a4.6,4.6,0,0,1,6.5,6.5L12.617,24.483a2.376,2.376,0,0,1-3.361-3.361l8.783-8.783a.857.857,0,1,0-1.213-1.213L8.044,19.91A4.091,4.091,0,0,0,13.829,25.7L24.715,14.81A6.308,6.308,0,0,0,20.25,4.037Z" transform="translate(137.085 763.963)"/>
  </g>
</svg>
