<?xml version="1.0" standalone="no"?>
<!DOCTYPE svg PUBLIC "-//W3C//DTD SVG 20010904//EN"
 "http://www.w3.org/TR/2001/REC-SVG-20010904/DTD/svg10.dtd">
<svg version="1.0" xmlns="http://www.w3.org/2000/svg"
 width="393.000000pt" height="398.000000pt" viewBox="0 0 393.000000 398.000000"
 preserveAspectRatio="xMidYMid meet">

<g transform="translate(0.000000,398.000000) scale(0.100000,-0.100000)"
fill="#000000" stroke="none">
<path d="M1918 3974 c-3 -3 -4 -24 -2 -47 3 -23 1 -48 -3 -57 -3 -8 -7 -29 -8
-47 -2 -26 0 -30 14 -22 9 5 28 13 43 18 17 6 25 16 24 27 -3 17 -34 35 -47
28 -3 -2 -6 3 -6 11 0 8 4 12 9 9 4 -3 9 2 9 10 2 17 5 35 9 39 1 1 3 10 5 20
2 12 -3 17 -19 17 -13 0 -25 -2 -28 -6z"/>
<path d="M2105 3950 c3 -5 17 -10 30 -10 13 0 27 5 30 10 4 6 -8 10 -30 10
-22 0 -34 -4 -30 -10z"/>
<path d="M603 3826 c-47 -22 -29 -95 25 -97 29 -2 37 -3 118 -14 35 -5 54 -4
59 4 7 12 -14 46 -23 37 -3 -3 -22 8 -43 25 -22 17 -44 27 -50 23 -7 -4 -9 -3
-6 3 4 6 0 16 -7 22 -10 9 -16 9 -21 1 -4 -6 -12 -7 -18 -2 -7 4 -21 4 -34 -2z"/>
<path d="M314 3819 c-28 -7 -44 -16 -47 -29 -6 -22 10 -30 64 -30 38 0 39 1
39 35 0 19 -3 35 -7 34 -5 -1 -27 -5 -49 -10z"/>
<path d="M1190 3780 c-13 -25 -5 -40 21 -40 24 0 59 17 59 29 0 8 -44 31 -60
31 -5 0 -14 -9 -20 -20z"/>
<path d="M1060 3699 c0 -5 5 -7 10 -4 6 3 10 8 10 11 0 2 -4 4 -10 4 -5 0 -10
-5 -10 -11z"/>
<path d="M435 3651 c-3 -2 -20 -5 -37 -7 -77 -6 -143 -16 -153 -23 -5 -5 -18
-7 -29 -5 -16 2 -16 0 4 -21 13 -14 26 -22 30 -20 10 6 44 -34 64 -77 9 -20
21 -40 26 -43 11 -7 40 -66 44 -87 1 -7 5 -18 9 -24 3 -6 -2 -19 -13 -29 -11
-10 -20 -24 -20 -32 0 -7 -6 -13 -14 -13 -7 0 -24 -10 -37 -22 -22 -21 -24
-29 -21 -106 3 -79 5 -84 29 -93 29 -11 190 -1 198 12 6 9 13 57 19 139 2 30
8 63 11 73 5 11 1 25 -10 37 -23 25 -15 107 16 159 15 26 22 54 23 100 l1 65
-68 11 c-37 6 -70 9 -72 6z"/>
<path d="M2453 3625 c-65 -24 -122 -62 -122 -82 -1 -6 -10 -15 -21 -18 -11 -3
-20 -11 -20 -17 0 -6 -9 -8 -20 -5 -15 4 -20 0 -20 -16 0 -11 -9 -30 -19 -41
-11 -12 -35 -74 -54 -140 -19 -65 -40 -122 -45 -125 -17 -10 -32 -59 -32 -100
0 -20 -5 -42 -11 -48 -5 -5 -12 -59 -15 -119 -3 -60 -9 -113 -14 -118 -7 -7
-10 -4 -10 7 0 29 -18 18 -25 -15 -11 -50 -24 -62 -44 -40 -26 29 -89 64 -95
53 -4 -5 -2 -12 3 -16 15 -8 38 -59 34 -72 -3 -7 -11 -9 -19 -6 -10 4 -12 0
-8 -11 5 -14 2 -14 -40 0 -25 9 -46 21 -46 27 0 7 -5 5 -10 -3 -5 -8 -10 -10
-10 -5 0 6 -4 3 -10 -5 -7 -11 -13 -12 -32 -3 -13 7 -41 17 -63 24 -22 7 -46
17 -52 22 -9 7 -13 4 -14 -9 0 -11 -3 -14 -6 -6 -6 16 -61 15 -112 -3 -27 -9
-41 -10 -41 -3 0 7 -5 6 -15 -2 -8 -7 -15 -9 -15 -5 0 4 -6 2 -13 -4 -8 -6
-17 -8 -20 -5 -3 3 -13 -10 -21 -31 -9 -20 -20 -34 -25 -30 -13 7 -37 -38 -62
-117 -20 -65 -18 -84 6 -52 8 10 15 15 15 11 0 -5 -9 -20 -20 -34 -11 -14 -20
-34 -20 -43 0 -10 -7 -34 -15 -54 -8 -20 -15 -38 -15 -41 1 -29 -2 -35 -12
-33 -6 2 -18 -9 -25 -24 -11 -22 -11 -38 2 -98 21 -101 6 -193 -39 -233 -22
-19 -25 -25 -11 -21 11 4 26 11 33 17 13 10 18 -4 5 -17 -4 -4 -6 -39 -4 -77
2 -48 -2 -77 -11 -92 -8 -12 -18 -38 -22 -57 -3 -19 -20 -58 -37 -86 -29 -48
-33 -51 -63 -45 -47 10 -48 46 -2 65 34 14 35 15 21 43 -25 52 -38 145 -24
178 7 17 13 35 15 42 3 15 -24 38 -53 47 -13 4 -24 16 -24 27 -1 10 -2 38 -3
62 -2 23 -4 62 -5 87 -3 53 7 90 24 90 6 0 20 9 30 20 10 11 28 20 39 20 12 1
35 13 52 28 47 41 38 75 -45 160 -36 38 -78 72 -93 76 -16 3 -49 20 -75 37
-97 61 -233 85 -335 59 -103 -26 -163 -62 -200 -119 -10 -14 -21 -26 -25 -27
-5 0 -16 -4 -25 -8 -9 -4 -25 -9 -35 -11 -10 -1 -17 -8 -15 -15 1 -6 -2 -9 -7
-6 -14 9 -45 -40 -67 -104 -29 -83 -26 -274 6 -350 30 -75 33 -99 15 -149 -8
-24 -12 -47 -9 -52 3 -5 -8 -31 -23 -57 -16 -26 -39 -67 -50 -92 -12 -25 -49
-102 -82 -173 l-61 -127 0 -655 0 -655 1140 0 c627 0 1140 2 1140 4 0 9 -168
146 -179 146 -6 0 -11 4 -11 9 0 5 -32 37 -70 70 l-71 61 -57 -6 c-31 -2 -126
-6 -209 -7 -119 -2 -153 0 -153 10 0 12 52 15 353 18 20 0 37 3 37 6 0 3 -11
16 -25 29 -14 13 -30 40 -36 61 l-12 37 -92 11 c-116 15 -179 13 -163 -6 8
-10 6 -13 -6 -13 -9 0 -16 7 -16 15 0 9 -10 15 -26 15 -14 0 -62 15 -107 34
-45 18 -107 41 -137 51 -30 10 -76 28 -102 41 -58 29 -56 29 -60 2 -3 -20 -10
-23 -60 -26 -57 -3 -59 -2 -99 40 -39 41 -40 43 -17 46 12 2 28 8 33 12 6 4
62 11 125 15 63 3 125 8 138 11 14 3 22 0 22 -9 0 -18 77 -23 318 -23 167 1
185 3 197 20 13 17 15 17 37 2 34 -24 57 -20 64 12 3 15 8 33 10 41 4 13 -17
11 -61 -5 -14 -6 -16 -3 -10 15 10 32 -11 54 -37 38 -16 -9 -22 -9 -25 1 -3 6
-13 12 -22 12 -25 0 -48 45 -32 64 10 12 8 15 -11 18 -15 2 -25 13 -31 35 -9
28 -3 46 47 148 31 63 60 115 66 115 5 0 7 7 3 16 -3 9 -2 19 3 23 5 3 18 23
29 44 25 48 28 50 50 33 18 -13 17 -16 -16 -67 -59 -90 -80 -127 -77 -136 2
-5 -9 -22 -24 -38 -16 -16 -28 -33 -28 -37 0 -15 35 7 63 39 16 18 34 33 41
33 6 0 27 -14 46 -30 l35 -29 -32 -1 c-18 0 -48 -9 -67 -19 -26 -15 -37 -17
-47 -8 -7 7 0 -5 17 -25 26 -34 33 -37 64 -32 19 3 50 6 68 7 40 2 40 5 1 19
-18 6 -28 15 -25 24 3 7 0 15 -7 18 -7 2 -3 5 8 5 11 1 30 -6 42 -14 12 -8 24
-11 27 -7 3 5 22 82 42 172 42 191 57 236 86 267 21 23 13 34 -9 12 -6 -6 0
12 14 39 14 29 22 56 17 63 -5 9 -10 7 -15 -7 -7 -17 -8 -17 -8 4 -1 18 -11
28 -41 40 -36 15 -55 42 -30 42 5 0 7 7 3 16 -5 14 -8 13 -18 -6 -8 -14 -15
-19 -19 -12 -4 6 7 46 24 89 34 89 38 114 10 63 l-20 -35 6 60 c4 33 15 75 25
93 21 36 31 77 21 86 -12 12 -11 36 1 29 7 -4 17 -8 22 -8 14 0 7 -48 -16
-117 -26 -80 -24 -83 11 -13 30 60 31 58 10 -24 -9 -35 -9 -46 2 -52 14 -9 15
-12 17 -68 1 -37 24 -62 40 -45 3 4 0 9 -6 11 -8 3 -13 25 -13 59 0 39 -4 54
-13 54 -9 0 -14 12 -15 30 0 16 2 29 6 29 19 -3 25 2 12 11 -18 11 -13 16 21
25 21 5 27 2 32 -14 3 -12 14 -24 25 -28 14 -6 17 -13 11 -28 -6 -17 -8 -17
-8 -2 -1 9 -5 17 -11 17 -15 0 -12 -27 4 -33 19 -8 76 107 76 151 0 36 18 118
31 145 7 12 5 17 -5 17 -8 0 -18 5 -22 11 -4 8 3 9 23 5 21 -5 47 1 94 22 35
16 89 32 119 36 30 4 66 14 80 23 15 9 20 10 13 2 -7 -7 -13 -25 -13 -40 0
-26 -29 -75 -76 -132 -16 -19 -24 -42 -24 -65 0 -20 -5 -55 -10 -77 -8 -35 -7
-42 11 -58 20 -16 20 -19 6 -41 -14 -21 -14 -32 10 -129 16 -64 30 -104 37
-102 6 3 90 25 186 50 222 58 216 55 223 101 7 44 42 84 73 84 44 0 74 18 74
44 0 14 5 28 10 31 6 4 8 10 6 14 -12 19 40 216 89 340 55 137 64 168 45 156
-5 -3 -7 0 -4 8 3 8 17 20 32 27 20 9 23 14 12 18 -8 3 -18 10 -22 16 -5 8
-13 7 -28 -1 -11 -7 -37 -13 -57 -14 -31 0 -34 -2 -18 -9 18 -8 17 -9 -8 -9
-16 -1 -26 3 -22 9 3 6 0 10 -9 10 -8 0 -17 -6 -19 -12 -4 -8 -6 -7 -6 3 -1
18 -68 32 -78 17 -2 -5 -15 -2 -28 6 -17 12 -26 13 -31 4 -4 -6 -3 -8 4 -4 6
3 13 2 17 -4 4 -6 -5 -10 -20 -10 -15 0 -24 -4 -20 -10 3 -5 1 -10 -5 -10 -7
0 -8 -6 -1 -19 7 -12 7 -38 -1 -78 -9 -50 -8 -68 5 -106 21 -62 6 -68 -25 -9
-21 39 -25 57 -21 107 4 51 2 63 -17 83 -11 12 -25 22 -30 22 -8 0 -17 -148
-11 -182 0 -5 -4 -8 -10 -8 -6 0 -9 -15 -8 -34 2 -19 0 -38 -4 -42 -4 -4 -2
-13 3 -19 7 -9 6 -16 -5 -25 -14 -12 -14 -15 1 -38 9 -13 11 -21 5 -18 -6 4
-11 2 -11 -3 0 -6 8 -11 18 -12 11 0 13 -2 4 -6 -16 -6 -97 23 -117 43 -12 12
-16 10 -31 -14 -9 -16 -25 -34 -36 -41 -16 -10 -19 -10 -12 1 9 13 10 18 13
38 0 6 6 10 12 10 20 0 66 46 63 64 -1 10 3 86 11 169 7 84 12 153 10 155 -1
2 -12 -12 -24 -31 -29 -48 -57 -70 -91 -72 -37 -3 -42 25 -8 40 20 9 68 75 54
75 -3 0 -12 -13 -20 -29 -9 -16 -24 -31 -35 -34 -17 -4 -18 -2 -9 27 6 17 15
37 21 44 6 8 5 17 -4 28 -11 14 -10 16 6 13 27 -4 64 18 74 43 7 18 2 25 -33
42 -34 17 -40 25 -37 46 1 14 7 27 12 30 5 3 10 16 12 28 2 12 6 24 9 28 4 3
3 17 -2 30 -7 17 -6 23 2 21 7 -1 17 8 23 21 5 12 12 22 15 22 3 0 30 16 60
35 31 20 58 31 63 26 5 -5 -5 -39 -23 -81 -17 -39 -29 -75 -25 -78 3 -4 16 -7
28 -7 20 0 22 -5 19 -45 l-2 -45 16 30 c9 16 23 36 31 43 7 8 21 28 29 44 12
23 18 27 24 18 6 -10 14 -4 29 21 12 19 21 37 21 42 0 12 -17 8 -30 -7 -16
-20 -40 -9 -40 19 0 23 20 52 92 132 21 24 38 52 38 63 0 11 5 19 11 18 6 -2
12 11 14 27 1 17 5 57 9 90 8 71 -4 121 -27 117 -14 -2 -29 36 -32 81 0 4 -6
11 -13 16 -8 5 -19 19 -26 32 -6 13 -21 28 -34 34 -12 5 -25 18 -28 28 -5 17
-123 78 -204 107 -170 60 -158 58 -247 25z m-818 -941 c-4 -47 -15 -56 -15
-12 0 30 6 48 16 48 1 0 1 -16 -1 -36z m89 13 c13 -10 17 -24 14 -62 l-4 -50
-13 48 c-7 26 -17 50 -22 53 -11 7 -12 24 -1 24 5 0 16 -6 26 -13z m-184 -13
c0 -8 3 -13 8 -11 4 3 8 -11 9 -31 l2 -37 -19 44 c-23 50 -23 51 -10 51 6 0
10 -7 10 -16z m-130 -88 c0 -2 -7 -7 -16 -10 -8 -3 -12 -2 -9 4 6 10 25 14 25
6z m1010 -50 c0 -28 -15 -42 -26 -25 -3 6 -1 15 6 19 7 4 9 13 6 19 -4 6 -2
11 3 11 6 0 11 -11 11 -24z m-40 -88 c0 -19 5 -28 16 -28 24 0 12 -22 -26 -47
-72 -50 -78 -19 -24 127 8 23 34 -16 34 -52z m735 -58 c3 -5 1 -10 -4 -10 -6
0 -11 5 -11 10 0 6 2 10 4 10 3 0 8 -4 11 -10z m29 -6 c3 -8 2 -12 -4 -9 -6 3
-10 10 -10 16 0 14 7 11 14 -7z m-162 -26 c-3 -14 -7 -16 -18 -7 -16 13 -11
26 9 26 9 0 12 -7 9 -19z m-1165 -226 c7 -8 11 -18 8 -23 -4 -5 0 -9 8 -9 8 0
22 -9 32 -20 10 -11 15 -20 10 -20 -4 0 -2 -7 5 -15 7 -8 17 -12 24 -8 6 3 8
3 4 -1 -4 -5 2 -17 13 -29 17 -19 24 -38 20 -60 -1 -5 3 -6 8 -3 17 11 23 -13
12 -47 -5 -17 -12 -68 -15 -112 -3 -44 -12 -103 -21 -132 -8 -28 -15 -55 -14
-60 3 -16 -13 -68 -26 -87 -14 -19 -39 -13 -32 7 2 7 -3 18 -10 26 -8 7 -12
26 -10 45 2 17 -2 43 -9 58 -8 15 -15 47 -15 72 -2 27 -6 43 -12 39 -6 -4 -7
4 -3 21 4 18 3 25 -6 24 -13 -3 -15 3 -17 58 0 19 -5 33 -10 30 -5 -4 -3 16 4
44 8 29 9 52 4 56 -11 6 0 107 13 115 5 3 7 17 4 32 -5 27 6 47 13 25 2 -7 10
-19 18 -26z m850 -34 c-3 -7 -5 -2 -5 12 0 14 2 19 5 13 2 -7 2 -19 0 -25z
m-70 -94 c-3 -3 -12 -4 -19 -1 -8 3 -5 6 6 6 11 1 17 -2 13 -5z m-43 -29 c-15
-39 -74 -138 -74 -125 0 8 9 29 20 45 11 17 20 44 20 62 0 17 6 33 13 36 18 6
27 -2 21 -18z m-2041 -104 c38 -42 57 -93 57 -152 0 -40 -6 -50 -26 -42 -9 3
-14 21 -14 49 0 46 -35 129 -64 153 -15 13 -13 31 3 31 5 0 25 -18 44 -39z
m2091 3 c8 -21 -1 -34 -25 -34 -14 0 -19 7 -19 25 0 29 34 36 44 9z m213 -26
c-3 -8 -6 -5 -6 6 -1 11 2 17 5 13 3 -3 4 -12 1 -19z m-1864 6 c6 -7 -14 -44
-24 -44 -5 0 -5 38 0 48 2 4 18 2 24 -4z m-451 -126 c-1 -28 -3 -53 -6 -56 -3
-3 -6 18 -6 47 0 28 -7 68 -15 88 -21 50 -18 55 6 9 13 -24 21 -57 21 -88z
m478 8 c0 -7 -9 -29 -20 -51 -18 -35 -27 -66 -29 -102 -2 -30 -39 -11 -59 30
-39 79 -48 117 -32 127 22 14 140 10 140 -4z m-598 -156 c31 0 38 -4 38 -19 0
-13 -15 -25 -49 -40 -27 -11 -52 -21 -55 -21 -8 0 -8 64 0 85 5 12 10 13 17 6
6 -6 28 -11 49 -11z m1608 2 c0 -13 -12 -22 -22 -16 -10 6 -1 24 13 24 5 0 9
-4 9 -8z m26 -38 c-3 -9 -6 -22 -6 -30 0 -8 -5 -14 -10 -14 -8 0 -9 34 -1 58
1 1 6 2 12 2 6 0 8 -7 5 -16z m-946 -24 c0 -5 6 -10 14 -10 18 0 229 -104 265
-131 17 -12 34 -18 42 -14 7 5 10 4 5 -3 -3 -6 -2 -13 4 -17 5 -3 10 -1 10 4
0 19 26 12 70 -20 38 -28 41 -34 36 -62 -4 -18 -6 -39 -6 -47 1 -62 -3 -87
-15 -99 -12 -12 -16 -12 -31 -1 -16 14 -16 48 -1 160 5 30 -9 50 -33 50 -11 0
-27 -22 -48 -67 l-32 -68 4 75 c2 41 1 62 -1 45 -2 -16 -10 -44 -18 -62 -8
-17 -15 -38 -15 -47 0 -9 -4 -16 -9 -16 -9 0 -13 13 -26 93 -5 29 -10 37 -23
35 -20 -4 -21 -65 -7 -248 13 -171 -1 -110 -25 110 -12 113 -26 215 -31 228
-9 24 -29 30 -29 9 0 -7 -7 -23 -16 -36 l-17 -23 -17 36 c-9 20 -19 33 -23 29
-4 -3 -7 3 -7 14 0 11 -11 26 -25 33 -15 8 -24 19 -20 28 3 7 5 18 5 23 0 5 5
9 10 9 6 0 10 -4 10 -10z m930 -45 c0 -9 12 -18 30 -21 17 -4 30 -10 30 -15 0
-12 -7 -11 -48 8 -47 21 -45 20 -37 32 9 16 25 13 25 -4z m-980 -39 c0 -8 -9
-24 -19 -37 -16 -19 -23 -22 -37 -13 -28 17 -27 32 3 48 35 19 53 20 53 2z
m68 -68 c7 -24 14 -68 17 -98 3 -30 8 -68 12 -85 4 -22 7 -365 4 -419 -1 -5
-10 -1 -20 8 -13 12 -21 14 -26 6 -5 -8 -10 -8 -20 0 -9 8 -14 8 -17 -1 -5
-16 -44 -2 -53 19 -4 9 -9 53 -12 97 -4 81 4 110 39 149 27 29 42 111 44 231
0 61 2 116 2 123 4 26 20 10 30 -30z m-228 -11 c0 -7 -7 -22 -15 -33 -14 -18
-14 -17 -15 14 0 22 5 32 15 32 8 0 15 -6 15 -13z m101 -123 c1 -122 -5 -150
-42 -195 -11 -14 -21 -32 -22 -40 -4 -26 -48 -88 -65 -91 -29 -7 -62 14 -68
41 -2 14 -10 46 -17 71 -9 30 -10 58 -5 84 10 49 24 66 49 61 10 -2 19 0 19 6
0 5 -4 9 -8 9 -5 0 -13 16 -19 35 -11 35 -11 35 33 54 26 12 52 32 62 50 12
21 26 31 47 33 16 2 31 3 32 2 2 0 3 -54 4 -120z m645 -9 c10 -8 14 -15 7 -15
-7 0 -9 -13 -6 -40 4 -31 2 -40 -7 -38 -8 2 -24 -16 -38 -40 -29 -52 -37 -50
-18 5 8 22 16 53 17 69 2 16 7 34 12 41 5 7 6 17 2 23 -9 15 8 12 31 -5z m77
-61 c16 -19 26 -42 23 -50 -9 -24 -77 -126 -81 -122 -16 16 -13 74 6 115 11
25 19 56 16 69 -6 33 3 30 36 -12z m-293 -144 c0 -5 -4 -10 -10 -10 -5 0 -10
5 -10 10 0 6 5 10 10 10 6 0 10 -4 10 -10z m-741 -99 c10 -41 14 -74 9 -77
-13 -8 -16 -4 -22 42 -4 22 -11 56 -16 75 -13 44 -13 56 1 42 5 -5 18 -43 28
-82z m276 20 c3 -5 2 -12 -3 -15 -5 -3 -9 1 -9 9 0 17 3 19 12 6z m-122 -98
c-7 -2 -19 -2 -25 0 -7 3 -2 5 12 5 14 0 19 -2 13 -5z m135 -8 c13 -14 35 -85
28 -92 -3 -3 -13 11 -23 31 -12 26 -26 39 -45 43 -15 3 -28 11 -28 17 0 14 56
15 68 1z m-141 -31 c-3 -3 -12 -4 -19 -1 -8 3 -5 6 6 6 11 1 17 -2 13 -5z
m132 -40 c24 -31 17 -53 -9 -29 -20 18 -33 55 -20 55 5 0 18 -12 29 -26z m861
-54 c0 -5 -10 -10 -22 -10 -19 0 -20 2 -8 10 19 13 30 13 30 0z m264 -570 c-3
-3 -14 -6 -25 -6 -10 -1 -20 -3 -21 -4 -2 -1 -23 -3 -48 -5 -25 -1 -57 -5 -71
-9 -18 -5 -29 -3 -35 6 -4 7 -4 10 1 6 4 -4 14 -3 21 3 8 6 19 9 26 7 7 -3 21
-2 30 1 21 7 129 9 122 1z m-220 -19 c-3 -4 -10 -7 -15 -7 -5 -1 -11 -2 -14
-3 -3 0 -8 -1 -12 -2 -5 0 -14 -6 -22 -12 -20 -17 -41 -17 -41 -1 0 9 4 13 9
9 5 -3 12 -1 16 5 4 6 10 8 15 5 5 -3 11 -2 14 3 2 4 16 8 30 8 14 0 23 -2 20
-5z m-77 -82 c-1 -4 3 -6 8 -5 6 0 9 4 8 7 -1 3 4 6 12 6 8 0 13 -3 12 -6 -1
-3 3 -6 8 -6 6 0 9 4 7 9 -2 5 4 4 12 -3 9 -7 13 -18 10 -23 -3 -5 -9 -7 -12
-4 -3 3 -11 1 -18 -5 -8 -7 -14 -7 -19 1 -5 8 -10 8 -20 0 -9 -8 -15 -8 -20 0
-3 6 -10 8 -15 5 -5 -3 -12 -1 -15 5 -4 6 -1 9 7 8 7 -2 12 2 11 8 -1 6 4 11
12 11 8 0 13 -4 12 -8z"/>
<path d="M855 1240 c3 -5 8 -10 11 -10 2 0 4 5 4 10 0 6 -5 10 -11 10 -5 0 -7
-4 -4 -10z"/>
<path d="M800 1225 c0 -8 4 -15 10 -15 5 0 7 7 4 15 -4 8 -8 15 -10 15 -2 0
-4 -7 -4 -15z"/>
<path d="M55 3248 c-43 -11 -55 -46 -55 -159 0 -73 3 -97 13 -95 27 6 49 20
77 47 16 16 36 29 44 29 11 0 16 10 17 33 1 46 6 102 8 102 2 0 4 8 6 18 6 31
-45 42 -110 25z"/>
<path d="M1645 3016 l-39 -13 39 -6 c87 -15 141 -2 96 22 -24 13 -44 13 -96
-3z"/>
<path d="M0 2957 c0 -13 7 -30 15 -37 8 -7 15 -9 15 -5 0 4 6 2 14 -4 9 -8 16
-8 20 -2 4 6 16 5 32 -4 15 -7 35 -12 45 -10 12 2 19 -2 19 -11 0 -9 -5 -12
-12 -8 -10 5 -10 3 0 -7 7 -8 17 -15 22 -15 6 -1 15 -2 20 -3 6 0 10 -6 10
-12 0 -5 -6 -7 -12 -3 -8 5 -7 0 2 -11 8 -10 10 -16 4 -12 -7 4 -18 -1 -25
-10 -8 -9 -9 -14 -3 -10 16 9 60 -44 68 -83 1 -3 6 -12 11 -20 5 -8 11 -24 12
-34 2 -11 8 -25 13 -31 5 -6 12 -22 14 -36 3 -13 5 -25 7 -26 1 -2 2 -7 3 -13
0 -5 5 -11 10 -12 11 -3 12 2 32 146 8 60 18 114 22 120 3 6 8 20 9 30 2 11 9
26 16 35 10 12 9 13 -3 6 -12 -6 -13 -5 -2 6 6 7 12 23 12 34 0 34 -55 45
-216 43 -106 -2 -146 1 -158 11 -14 12 -16 10 -16 -12z"/>
<path d="M2900 2738 c-11 -13 -23 -34 -27 -48 -3 -14 -12 -35 -19 -47 -9 -14
-10 -23 -4 -23 6 0 16 11 22 25 6 14 20 25 30 25 12 0 24 13 34 35 23 55 2 73
-36 33z"/>
<path d="M2830 2600 c0 -5 4 -10 9 -10 6 0 13 5 16 10 3 6 -1 10 -9 10 -9 0
-16 -4 -16 -10z"/>
<path d="M2830 2490 c8 -5 20 -10 25 -10 6 0 3 5 -5 10 -8 5 -19 10 -25 10 -5
0 -3 -5 5 -10z"/>
<path d="M2830 2461 c0 -5 7 -11 15 -15 9 -3 15 0 15 9 0 8 -7 15 -15 15 -8 0
-15 -4 -15 -9z"/>
<path d="M3296 2391 c-63 -121 -108 -217 -125 -269 -22 -64 -64 -290 -56 -302
3 -4 64 -7 137 -6 l133 1 -3 65 c-3 81 6 140 19 119 7 -11 9 -10 9 7 0 11 20
47 45 80 24 32 45 65 45 73 0 8 -14 -5 -30 -28 -17 -23 -37 -44 -46 -48 -8 -3
-29 -19 -46 -35 -29 -27 -36 -29 -82 -24 -28 3 -52 5 -53 6 -7 1 -2 51 6 73 5
14 24 41 42 62 18 20 33 44 34 54 0 9 11 27 23 39 13 13 19 28 15 37 -5 14 -9
13 -29 -6 -13 -12 -24 -27 -24 -33 0 -6 -14 -22 -31 -36 -17 -14 -45 -45 -61
-70 -18 -27 -27 -35 -23 -21 16 55 37 93 78 143 83 103 94 129 60 146 -15 8
-22 3 -37 -27z m-112 -330 c-4 -17 -9 -30 -11 -27 -3 2 -2 19 2 36 9 41 17 33
9 -9z m-19 -121 c-4 -39 -9 -69 -12 -67 -2 3 -1 37 3 76 3 40 9 70 11 67 3 -3
2 -37 -2 -76z"/>
<path d="M3336 2174 c-8 -21 -8 -21 12 -29 13 -5 14 -3 5 6 -6 6 -9 18 -6 25
3 8 3 14 0 14 -3 0 -8 -7 -11 -16z"/>
<path d="M3302 2095 c-12 -25 -18 -45 -13 -45 14 0 63 69 56 80 -11 18 -21 10
-43 -35z"/>
<path d="M3420 1923 c0 -12 3 -13 13 -4 8 6 16 10 18 8 2 -1 3 0 1 2 -7 12
-32 7 -32 -6z"/>
<path d="M3551 1890 c0 -19 4 -44 9 -55 7 -16 9 -11 9 20 0 22 -4 47 -9 55 -7
11 -10 6 -9 -20z"/>
<path d="M3407 1868 c-6 -41 -2 -48 29 -48 30 0 30 3 0 46 l-24 35 -5 -33z"/>
<path d="M1154 1865 c-7 -30 -20 -32 -29 -5 -3 11 -10 20 -15 20 -14 0 -32
-39 -28 -63 3 -21 20 -26 58 -16 10 3 16 -5 18 -24 6 -49 22 -17 22 43 0 62
-15 88 -26 45z"/>
<path d="M2231 1835 c-25 -62 -52 -175 -44 -187 4 -7 8 -18 9 -23 6 -39 40
-125 49 -125 13 0 116 30 128 37 5 3 -7 22 -26 42 -24 24 -41 55 -52 96 -9 33
-25 89 -34 125 l-18 65 -12 -30z"/>
<path d="M3887 1783 c-10 -9 -9 -35 1 -29 5 3 9 -1 9 -9 0 -8 -4 -12 -9 -9 -7
5 -5 -45 2 -53 2 -2 3 -9 4 -15 1 -7 7 -12 12 -11 6 1 11 -4 11 -11 0 -7 -6
-13 -13 -13 -7 0 -11 4 -8 8 2 4 0 10 -5 13 -4 3 -9 -17 -10 -44 0 -27 -2 -55
-3 -62 -2 -8 6 -13 18 -12 11 1 21 -5 21 -12 0 -7 -4 -12 -8 -11 -4 1 -6 -2
-6 -8 1 -5 5 -9 8 -8 3 1 6 -4 6 -11 0 -7 -6 -13 -13 -13 -7 0 -12 5 -11 11 1
6 -4 10 -12 8 -12 -3 -12 -1 -1 15 8 10 10 15 5 10 -4 -4 -18 1 -29 10 -21 18
-21 18 -2 -4 17 -20 15 -27 -5 -25 -3 1 -5 -14 -5 -31 1 -18 -4 -31 -10 -30
-6 1 -11 -4 -11 -11 0 -8 7 -13 16 -11 9 1 16 11 15 23 -1 12 2 19 7 17 4 -3
6 4 4 16 -2 12 -1 19 3 15 11 -12 9 -75 -2 -73 -6 1 -10 -3 -9 -10 2 -7 -6
-10 -17 -8 -14 3 -18 0 -13 -8 11 -18 12 -38 2 -31 -5 3 -7 9 -5 13 3 4 -1 8
-8 8 -7 0 -13 -6 -13 -13 0 -7 4 -11 9 -8 4 3 8 -2 8 -11 0 -10 5 -13 13 -9 9
6 9 4 -1 -8 -7 -9 -21 -15 -31 -13 -10 2 -18 -3 -18 -10 0 -8 4 -12 9 -9 4 3
8 -2 8 -11 0 -10 -5 -13 -12 -9 -7 5 -8 3 -2 -7 14 -22 13 -36 -2 -36 -9 0
-11 4 -4 12 7 8 5 12 -4 12 -15 0 -15 -13 -2 -37 5 -8 6 -12 1 -8 -12 11 -36
-12 -28 -26 13 -19 11 -33 -3 -33 -9 0 -11 4 -4 12 7 8 5 12 -4 12 -22 0 -13
-22 32 -83 57 -77 56 -100 -23 -429 -36 -148 -65 -280 -65 -291 0 -23 11 -24
100 -9 40 7 63 10 133 14 16 1 17 36 17 590 0 567 -1 590 -18 586 -11 -2 -19
3 -19 10 0 7 8 12 16 10 14 -3 17 12 19 106 3 102 2 109 -16 109 -10 0 -22 -3
-25 -7z m30 -178 c0 -6 -6 -12 -12 -12 -6 0 -12 6 -12 12 0 6 6 12 12 12 6 0
12 -6 12 -12z"/>
<path d="M2055 1720 c-3 -5 -1 -10 4 -10 6 0 11 5 11 10 0 6 -2 10 -4 10 -3 0
-8 -4 -11 -10z"/>
<path d="M3863 1705 c0 -8 4 -12 9 -9 5 3 6 10 3 15 -9 13 -12 11 -12 -6z"/>
<path d="M2020 1676 c0 -3 9 -10 20 -16 11 -6 20 -8 20 -6 0 3 -9 10 -20 16
-11 6 -20 8 -20 6z"/>
<path d="M2070 1623 c0 -5 9 -14 20 -21 11 -7 20 -8 20 -2 0 5 -9 14 -20 20
-11 6 -20 7 -20 3z"/>
<path d="M2860 1585 c-25 -7 -108 -30 -185 -50 -77 -20 -141 -38 -143 -39 -1
-2 3 -17 9 -35 20 -58 -3 -58 -81 0 -21 15 -180 -27 -180 -47 0 -7 9 -29 20
-49 11 -19 20 -37 20 -40 0 -3 1 -7 1 -10 7 -25 3 -53 -9 -67 -16 -19 -37 -14
-69 15 -13 11 -23 16 -23 12 0 -5 -10 4 -22 19 -13 16 -30 38 -40 50 -9 11
-19 18 -23 14 -8 -8 -85 -323 -104 -423 -6 -33 -16 -76 -21 -95 -39 -154 -52
-211 -48 -215 3 -3 56 2 117 10 72 10 117 13 124 7 34 -28 145 -65 190 -63 39
1 47 -2 47 -17 0 -21 75 -44 150 -47 70 -2 164 -25 152 -37 -7 -7 -16 -6 -30
1 -10 5 -34 13 -53 16 -19 3 -47 8 -64 11 l-29 7 32 -37 c18 -20 32 -41 32
-46 0 -5 10 -19 22 -30 l23 -21 -20 -37 c-18 -32 -25 -37 -50 -34 -17 2 -31 5
-33 7 -8 8 16 60 27 58 6 -2 11 8 11 21 0 47 -90 54 -265 20 -34 -7 -281 -5
-345 2 -39 4 -60 3 -60 -4 0 -5 23 -31 51 -56 40 -36 59 -46 88 -47 28 0 32
-2 16 -8 -11 -5 -24 -6 -30 -4 -5 3 10 -12 35 -34 24 -21 102 -89 174 -151
l129 -113 241 3 c206 3 241 5 241 18 1 8 7 14 15 12 11 -3 11 0 1 12 -11 13
-9 15 9 11 17 -3 19 -1 11 9 -9 10 -3 13 27 11 26 -1 39 2 39 12 0 14 -62 74
-70 67 -2 -2 -10 2 -16 10 -11 13 -9 15 8 11 12 -2 19 -1 17 4 -3 4 -22 8 -43
9 -21 2 -47 5 -58 7 -11 2 -23 4 -27 4 -5 1 -8 6 -8 12 0 5 4 8 9 5 5 -3 14 0
20 8 6 7 23 12 38 11 16 -1 35 4 45 12 11 10 18 11 23 3 5 -8 13 -6 28 7 11
10 18 13 14 7 -6 -11 77 -14 88 -3 3 3 -13 5 -34 4 -22 -1 -38 1 -36 5 2 3 25
5 52 5 30 -1 55 4 68 14 l20 16 -20 -24 -20 -24 110 7 c61 4 116 8 123 8 27 2
10 24 -20 26 -18 2 -36 7 -40 12 -5 6 -5 8 -2 5 4 -3 13 0 21 6 8 7 71 13 159
14 80 2 148 6 151 8 14 15 143 588 143 638 0 36 -8 50 -48 84 -17 14 -23 16
-20 5 2 -8 -2 -14 -8 -13 -6 1 -11 -5 -11 -12 0 -11 4 -12 13 -4 8 7 14 6 20
-2 4 -7 3 -9 -3 -6 -11 7 -47 -26 -38 -35 3 -2 -1 -5 -9 -5 -8 0 -14 5 -13 11
1 6 -4 10 -11 8 -8 -1 -11 2 -8 7 4 5 16 8 28 6 11 -3 18 -1 14 2 -12 12 -55
11 -53 -1 1 -6 -4 -10 -12 -8 -12 3 -12 0 -1 -12 12 -15 7 -21 -14 -17 -5 1
-4 -4 2 -12 9 -11 8 -18 -6 -31 -10 -9 -23 -13 -27 -9 -5 5 -3 -1 5 -12 8 -11
10 -17 6 -13 -5 4 -16 2 -24 -5 -13 -10 -14 -9 -7 3 8 13 7 13 -8 1 -9 -7 -17
-10 -17 -6 0 4 -6 2 -13 -4 -8 -6 -17 -9 -20 -6 -4 3 -5 2 -2 -2 3 -3 -3 -16
-12 -27 -14 -15 -14 -18 -2 -8 9 6 20 8 24 4 5 -4 5 -1 0 7 -6 10 -4 12 5 6 9
-6 11 -4 5 6 -5 8 -4 10 0 6 17 -15 13 -36 -5 -32 -10 2 -24 -2 -30 -9 -6 -8
-24 -12 -40 -11 -20 2 -35 -4 -47 -19 -18 -20 -18 -20 2 -6 18 14 19 14 7 -2
-7 -9 -22 -15 -32 -13 -11 2 -19 -1 -17 -8 1 -6 -5 -12 -13 -12 -8 0 -14 -7
-12 -15 3 -11 0 -11 -12 -1 -10 8 -16 9 -21 1 -3 -6 -12 -7 -18 -3 -7 4 -6 -1
2 -11 8 -9 10 -16 5 -15 -11 3 -44 -10 -63 -25 -17 -13 -43 -17 -35 -5 3 5 9
7 14 4 5 -3 11 -1 14 4 8 12 -18 8 -35 -6 -8 -6 -22 -9 -32 -8 -9 2 -15 -1
-11 -6 3 -5 9 -7 14 -4 5 3 11 2 14 -3 3 -4 -14 -8 -37 -8 -28 1 -41 -3 -40
-11 2 -9 -4 -10 -22 -3 -16 6 -27 6 -31 -2 -5 -7 -3 -8 6 -3 9 6 11 4 5 -4 -5
-9 -10 -10 -18 -2 -8 8 -16 6 -31 -7 -11 -9 -17 -12 -13 -6 4 6 -2 19 -12 28
-15 13 -18 14 -18 1 0 -8 4 -12 9 -9 14 9 9 -3 -8 -16 -12 -11 -15 -11 -12 1
2 8 -3 13 -10 11 -9 -2 -11 2 -6 10 14 21 13 35 -2 35 -11 0 -11 -3 -1 -16 11
-14 10 -14 -5 -2 -10 7 -16 16 -13 20 2 4 -3 20 -11 35 -7 16 -14 38 -15 50
-1 17 -17 -25 -35 -91 -9 -33 -162 -26 -171 8 -3 10 -8 19 -12 19 -3 0 -7 19
-8 41 -3 51 -42 106 -81 115 -15 4 -41 17 -59 30 -17 13 -40 24 -51 24 -11 0
-31 9 -45 20 -14 11 -36 20 -50 20 -29 0 -83 39 -55 40 9 0 49 -7 88 -15 127
-27 275 -35 384 -21 102 14 116 21 116 66 0 14 13 124 30 245 16 121 33 241
36 268 7 52 8 51 -56 32z m736 -610 c0 -14 -3 -22 -9 -18 -6 4 -8 -3 -4 -16 4
-17 3 -20 -7 -12 -7 6 -17 7 -22 3 -5 -4 0 3 10 16 11 12 16 22 11 22 -4 0 -2
6 4 13 6 8 9 17 6 20 -3 4 -2 5 2 2 4 -3 8 -17 9 -30z m-825 -325 c6 0 8 -15
6 -32 l-3 -33 -123 -5 c-67 -3 -130 -2 -139 2 -16 6 -16 7 1 7 9 1 19 1 22 1
3 -1 12 6 20 13 8 8 33 17 57 21 24 4 61 13 83 21 22 8 46 12 53 10 8 -3 18
-5 23 -5z m-284 -66 c-3 -3 -12 -4 -19 -1 -8 3 -5 6 6 6 11 1 17 -2 13 -5z
m-13 -193 c-9 -9 -34 -9 -40 0 -3 5 6 8 20 7 14 -1 23 -4 20 -7z m426 -92 c0
-8 6 -7 18 2 15 13 16 12 3 -3 -12 -16 -9 -22 10 -20 3 1 6 -6 6 -13 0 -10 -4
-12 -12 -5 -7 6 -16 5 -23 -2 -9 -9 -11 -6 -7 10 2 12 0 24 -6 27 -7 5 -13
-13 -11 -36 1 -3 -5 -6 -12 -6 -10 0 -15 35 -7 55 3 8 41 0 41 -9z m-24 -262
c0 -13 -6 -24 -13 -24 -6 0 -9 5 -5 11 4 6 7 14 8 19 5 26 10 23 10 -6z"/>
<path d="M1796 811 c-19 -21 -12 -28 13 -12 7 5 12 14 9 21 -2 7 -10 4 -22 -9z"/>
<path d="M3623 125 c0 -6 6 -12 12 -12 6 0 12 6 12 12 0 6 -6 12 -12 12 -6 0
-12 -6 -12 -12z"/>
</g>
</svg>
