<svg xmlns="http://www.w3.org/2000/svg" width="25" height="20.603" viewBox="0 0 25 20.603">
  <path id="icons8-megaphone" d="M26.052,8.028a2.761,2.761,0,0,0-.665.112L6.01,13.9A2.822,2.822,0,0,0,4,16.6v2.827a2.822,2.822,0,0,0,2.01,2.7l3.123.928A4.884,4.884,0,0,0,18.4,25.8l6.989,2.078A2.835,2.835,0,0,0,29,25.183V10.835a2.841,2.841,0,0,0-2.3-2.759A2.738,2.738,0,0,0,26.052,8.028Zm.1,1.868a.912.912,0,0,1,.974.94V25.183a.916.916,0,0,1-1.2.9L6.545,20.321a.932.932,0,0,1-.67-.9V16.6a.932.932,0,0,1,.67-.9L25.92,9.937A1.032,1.032,0,0,1,26.151,9.9ZM10.927,23.581,16.6,25.268a3.055,3.055,0,0,1-5.675-1.687Z" transform="translate(-4 -8.025)"/>
</svg>
