<svg xmlns="http://www.w3.org/2000/svg" width="25" height="25" viewBox="0 0 25 25">
  <path id="icons8-note_1_" data-name="icons8-note (1)" d="M9.125,6A3.141,3.141,0,0,0,6,9.125v18.75A3.141,3.141,0,0,0,9.125,31H22.319a1.042,1.042,0,0,0,.736-.305l.011-.011,7.628-7.628A1.042,1.042,0,0,0,31,22.319V9.125A3.141,3.141,0,0,0,27.875,6Zm0,2.083h18.75a1.026,1.026,0,0,1,1.042,1.042V21.278H24.4A3.141,3.141,0,0,0,21.278,24.4v4.514H9.125a1.026,1.026,0,0,1-1.042-1.042V9.125A1.026,1.026,0,0,1,9.125,8.083ZM12.6,11.554a1.042,1.042,0,1,0,0,2.083H24.4a1.042,1.042,0,1,0,0-2.083Zm0,4.861a1.042,1.042,0,1,0,0,2.083h9.028a1.042,1.042,0,1,0,0-2.083ZM24.4,23.361h3.041l-4.083,4.083V24.4A1.026,1.026,0,0,1,24.4,23.361Z" transform="translate(-6 -6)"/>
</svg>
