<svg xmlns="http://www.w3.org/2000/svg" width="20.833" height="25" viewBox="0 0 20.833 25">
  <path id="icons8-fire-exit" d="M6,4V29H8.083V18.583H9.591l1.868-2.091L13.813,21.6,10.063,29h2.395l3.259-6.425,1.86-.533.14,2.791h8.075V22.75H19.7l-.167-3.373L17.3,14.417h1.355L20.671,19l1.908-.838-2.566-5.831H15.528l-4.384,1.385L8.659,16.5H8.083V6.083H24.75V21.708h2.083V4Zm6.25,4.167a2.083,2.083,0,1,0,2.083,2.083A2.089,2.089,0,0,0,12.25,8.167Zm2.869,6.48,2.35,5.227,0,.035-1.98.566-2.38-5.192ZM24.75,25.875V29h2.083V25.875Z" transform="translate(-6 -4)"/>
</svg>
