<svg xmlns="http://www.w3.org/2000/svg" width="25" height="20.695" viewBox="0 0 25 20.695">
  <path id="icons8-megaphone_1_" data-name="icons8-megaphone (1)" d="M26.632,8.708A2.172,2.172,0,0,0,26.1,8.8L5.589,15.069A2.251,2.251,0,0,0,4,17.215v3.23a2.251,2.251,0,0,0,1.589,2.146l3.672,1.122A5.005,5.005,0,0,0,18.712,26.6L26.1,28.86h0A2.267,2.267,0,0,0,29,26.714V10.946a2.272,2.272,0,0,0-1.848-2.2A2.191,2.191,0,0,0,26.632,8.708ZM11.1,24.275l5.778,1.767A3.139,3.139,0,0,1,11.1,24.275Z" transform="translate(-4 -8.705)"/>
</svg>
