<svg xmlns="http://www.w3.org/2000/svg" width="22" height="22" viewBox="0 0 22 22">
  <path id="icons8-help" d="M15,4A11,11,0,1,0,26,15,11.013,11.013,0,0,0,15,4Zm0,1.65A9.35,9.35,0,1,1,5.65,15,9.338,9.338,0,0,1,15,5.65Zm0,3.3a3.313,3.313,0,0,0-3.3,3.3v.275a.825.825,0,1,0,1.65,0V12.25a1.65,1.65,0,1,1,3.3,0,1.814,1.814,0,0,1-.922,1.91,4.709,4.709,0,0,0-1.007.944,3.06,3.06,0,0,0-.547,1.821.825.825,0,1,0,1.65,0,1.234,1.234,0,0,1,.227-.844,3.859,3.859,0,0,1,.7-.623A3.89,3.89,0,0,0,18.3,12.25,3.313,3.313,0,0,0,15,8.95ZM15,19.4a1.1,1.1,0,1,0,1.1,1.1A1.1,1.1,0,0,0,15,19.4Z" transform="translate(-4 -4)"/>
</svg>
