<svg xmlns="http://www.w3.org/2000/svg" width="25" height="23.125" viewBox="0 0 25 23.125">
  <path id="icons8-open-book_3_" data-name="icons8-open-book (3)" d="M28.062,6.875h-.937V5.938A.937.937,0,0,0,26.188,5H20.25A4.679,4.679,0,0,0,16.5,6.887,4.679,4.679,0,0,0,12.75,5H6.813a.937.937,0,0,0-.937.938v.938H4.938A.938.938,0,0,0,4,7.812V27.188a.938.938,0,0,0,.938.938H28.062A.938.938,0,0,0,29,27.188V7.812A.938.938,0,0,0,28.062,6.875Zm-20.312,0h5a2.816,2.816,0,0,1,2.813,2.813v13.75a.937.937,0,0,0,1.875,0V9.688A2.816,2.816,0,0,1,20.25,6.875h5v17.5h-5a4.676,4.676,0,0,0-3.75,1.9,4.676,4.676,0,0,0-3.75-1.9h-5Z" transform="translate(-4 -5)"/>
</svg>
