<?xml version="1.0" encoding="utf-8"?>
<!-- Generator: Adobe Illustrator 26.5.0, SVG Export Plug-In . SVG Version: 6.00 Build 0)  -->
<svg version="1.1" id="Layer_1" xmlns="http://www.w3.org/2000/svg" xmlns:xlink="http://www.w3.org/1999/xlink" x="0px" y="0px"
	 viewBox="0 0 64 64" style="enable-background:new 0 0 64 64;" xml:space="preserve">
<style type="text/css">
	.st0{fill:#FFB300;}
	.st1{fill:#EAA211;}
	.st2{fill:#FFD2C0;}
	.st3{fill:#F2AD97;}
	.st4{fill:#FCC4AE;}
	.st5{fill:#E59076;}
	.st6{fill:#7C3108;}
	.st7{fill:#8C3F0A;}
	.st8{fill:#995222;}
	.st9{fill:#FFFFFF;}
	.st10{fill:#E6E7E8;}
	.st11{fill:#E63950;}
	.st12{fill:#D10028;}
</style>
<path class="st0" d="M36.4,6.7L36.4,6.7c3.8-4.2,10.6-1.3,10.4,4.3l0,0c-0.2,3.5,2.7,6.4,6.2,6.2l0,0c5.6-0.3,8.4,6.6,4.3,10.4l0,0
	c-2.6,2.4-2.6,6.5,0,8.8l0,0c4.2,3.8,1.3,10.6-4.3,10.4l0,0c-3.5-0.2-6.4,2.7-6.2,6.2l0,0c0.3,5.6-6.6,8.4-10.4,4.3l0,0
	c-2.4-2.6-6.5-2.6-8.8,0l0,0c-3.8,4.2-10.6,1.3-10.4-4.3l0,0c0.2-3.5-2.7-6.4-6.2-6.2l0,0c-5.6,0.3-8.4-6.6-4.3-10.4l0,0
	c2.6-2.4,2.6-6.5,0-8.8l0,0C2.5,23.8,5.4,16.9,11,17.2l0,0c3.5,0.2,6.4-2.7,6.2-6.2l0,0c-0.3-5.6,6.6-8.4,10.4-4.3l0,0
	C29.9,9.3,34.1,9.3,36.4,6.7z"/>
<path class="st1" d="M35.3,12.8L35.3,12.8c2.8-3.2,8.1-1,7.9,3.3l0,0c-0.1,2.7,2.1,4.9,4.7,4.7l0,0c4.2-0.2,6.4,5,3.3,7.9l0,0
	c-2,1.8-2,4.9,0,6.7l0,0c3.2,2.8,1,8.1-3.3,7.9l0,0c-2.7-0.1-4.9,2.1-4.7,4.7l0,0c0.2,4.2-5,6.4-7.9,3.3l0,0c-1.8-2-4.9-2-6.7,0l0,0
	c-2.8,3.2-8.1,1-7.9-3.3l0,0c0.1-2.7-2.1-4.9-4.7-4.7l0,0c-4.2,0.2-6.4-5-3.3-7.9l0,0c2-1.8,2-4.9,0-6.7l0,0c-3.2-2.8-1-8.1,3.3-7.9
	l0,0c2.7,0.1,4.9-2.1,4.7-4.7l0,0c-0.2-4.2,5-6.4,7.9-3.3l0,0C30.4,14.8,33.6,14.8,35.3,12.8z"/>
<circle class="st2" cx="19.3" cy="37.7" r="4.1"/>
<circle class="st3" cx="19.3" cy="37.7" r="2.3"/>
<circle class="st2" cx="44.7" cy="37.7" r="4.1"/>
<circle class="st3" cx="44.7" cy="37.7" r="2.3"/>
<path class="st2" d="M44.7,31v6.6c0,7.1-5.9,12.7-12.7,12.7c-6.8,0.1-12.7-5.6-12.7-12.7V31c0-7,5.7-12.7,12.7-12.7
	C39,18.3,44.7,24,44.7,31z"/>
<path class="st4" d="M38.7,20.2c1.2,1.9,1.9,4.2,1.9,6.7v6.6c0,7.1-5.9,12.7-12.7,12.7c-2.4,0-4.7-0.7-6.7-1.9
	c2.3,3.7,6.3,6.1,10.8,6c6.8,0.1,12.7-5.6,12.7-12.7V31C44.7,26.4,42.3,22.4,38.7,20.2z"/>
<path class="st3" d="M39.9,21.1c1.7,2.2,2.7,4.9,2.7,7.9v6.6c0,7.1-5.9,12.7-12.7,12.7c-2.9,0-5.7-1-7.9-2.8c2.4,3,6,4.9,9.9,4.8
	c6.8,0.1,12.7-5.6,12.7-12.7V31C44.7,27,42.8,23.4,39.9,21.1z"/>
<path class="st5" d="M29.7,42.9c-0.3,0-0.6-0.3-0.5-0.7c0.3-1.3,1.4-2.2,2.8-2.2c1.4,0,2.5,0.9,2.8,2.2c0.1,0.3-0.2,0.7-0.5,0.7
	H29.7z"/>
<path class="st6" d="M27.4,15.8c0,6.7-3.7,12.8-9.5,15.9c-1.2,0.7-2.7-0.3-2.6-1.7c0.4-4.7,2.5-9,5.8-12c1.8-1.6,3.9-2.9,6.3-3.7
	C27.4,14.9,27.4,15.3,27.4,15.8z"/>
<g>
	<path class="st7" d="M47.6,30.6c-10.6,5.5-24-0.8-26.5-12.5c1.8-1.6,3.9-2.9,6.2-3.6c9.9-3.2,19.7,4.3,21.2,14.4
		C48.7,29.6,48.3,30.3,47.6,30.6z"/>
</g>
<g>
	<path class="st8" d="M43,22.4c-0.2,0-0.3-0.1-0.4-0.2c-2.7-3.5-6.6-5.5-10.6-5.5h0c-1.3,0-2.5,0.2-3.7,0.6L28,17.4h0
		c-0.7,0.2-1.5,0.6-2.2,0.9c-0.2,0.1-0.6,0-0.7-0.2c-0.1-0.1-0.1-0.3,0-0.4c0-0.1,0.1-0.2,0.2-0.3c0.7-0.4,1.5-0.8,2.3-1l0,0
		l0.2-0.1c1.3-0.4,2.7-0.6,4-0.6c2.1,0,4.3,0.6,6.3,1.6c1.9,1,3.7,2.5,5.1,4.3c0.1,0.1,0.1,0.2,0.1,0.4c0,0.1-0.1,0.2-0.2,0.3
		C43.2,22.4,43.1,22.4,43,22.4z M23.9,19.5c-0.2,0-0.3-0.1-0.4-0.2c-0.2-0.2-0.1-0.5,0.1-0.7c0,0,0,0,0,0c0.2-0.2,0.5-0.1,0.7,0.1
		c0.2,0.2,0.1,0.5-0.1,0.7c0,0,0,0,0,0C24.1,19.4,24,19.5,23.9,19.5z"/>
</g>
<g>
	<path class="st9" d="M35.5,28h-6.9V14.2c0-1.9,1.6-3.5,3.5-3.5l0,0c1.9,0,3.5,1.6,3.5,3.5V28z"/>
	<circle class="st9" cx="32" cy="28" r="5.6"/>
	<circle class="st10" cx="32" cy="28" r="4.4"/>
	<circle class="st11" cx="32" cy="28" r="3.2"/>
	<path class="st12" d="M33.6,25.2c0.3,0.5,0.4,1,0.4,1.6c0,1.8-1.4,3.2-3.2,3.2c-0.6,0-1.1-0.2-1.6-0.4c0.5,1,1.6,1.6,2.8,1.6
		c1.8,0,3.2-1.4,3.2-3.2C35.2,26.8,34.5,25.8,33.6,25.2z"/>
	<g>
		<path class="st10" d="M32,13.3c-0.8,0-1.4,0.6-1.4,1.4v1.5h2.7v-1.5C33.4,13.9,32.8,13.3,32,13.3z"/>
	</g>
	<g>
		<rect x="30.6" y="16.1" class="st11" width="2.7" height="11.9"/>
	</g>
</g>
<g>
	<path class="st8" d="M24.3,38.2c-0.2,0-0.3-0.1-0.4-0.2c-0.1-0.2-0.1-0.5,0.2-0.7l2.2-1.3l-2.2-1.3c-0.2-0.1-0.3-0.4-0.2-0.7
		s0.4-0.3,0.7-0.2l2.9,1.7c0.2,0.1,0.2,0.3,0.2,0.4s-0.1,0.3-0.2,0.4l-2.9,1.7C24.5,38.1,24.4,38.2,24.3,38.2z"/>
	<path class="st8" d="M39.7,38.2c-0.1,0-0.2,0-0.3-0.1l-2.9-1.7c-0.2-0.1-0.2-0.3-0.2-0.4s0.1-0.3,0.2-0.4l2.9-1.7
		c0.2-0.1,0.5-0.1,0.7,0.2c0.1,0.2,0.1,0.5-0.2,0.7l-2.2,1.3l2.2,1.3c0.2,0.1,0.3,0.4,0.2,0.7C40,38.1,39.8,38.2,39.7,38.2z"/>
</g>
</svg>
