<svg xmlns="http://www.w3.org/2000/svg" width="24.339" height="24.339" viewBox="0 0 24.339 24.339">
  <path id="icons8-note_2_" data-name="icons8-note (2)" d="M9.042,6A3.058,3.058,0,0,0,6,9.042V27.3a3.058,3.058,0,0,0,3.042,3.042H20.874V23.916a3.027,3.027,0,0,1,3.042-3.042h6.423V9.042A3.058,3.058,0,0,0,27.3,6Zm3.38,5.407H23.916a1.014,1.014,0,1,1,0,2.028H12.423a1.014,1.014,0,1,1,0-2.028Zm0,4.733h8.789a1.014,1.014,0,0,1,0,2.028H12.423a1.014,1.014,0,0,1,0-2.028ZM24.254,22.9A1.352,1.352,0,0,0,22.9,24.254v5.489L29.744,22.9Z" transform="translate(-6 -6)"/>
</svg>
