<svg xmlns="http://www.w3.org/2000/svg" width="22" height="22" viewBox="0 0 22 22">
  <path id="icons8-info-squared_1_" data-name="icons8-info-squared (1)" d="M9.361,6A3.375,3.375,0,0,0,6,9.361V24.639A3.375,3.375,0,0,0,9.361,28H24.639A3.375,3.375,0,0,0,28,24.639V9.361A3.375,3.375,0,0,0,24.639,6Zm0,1.833H24.639a1.514,1.514,0,0,1,1.528,1.528V24.639a1.514,1.514,0,0,1-1.528,1.528H9.361a1.514,1.514,0,0,1-1.528-1.528V9.361A1.514,1.514,0,0,1,9.361,7.833ZM17,10.889a1.222,1.222,0,1,0,1.222,1.222A1.222,1.222,0,0,0,17,10.889Zm-.014,4.265a.917.917,0,0,0-.9.93v6.722a.917.917,0,1,0,1.833,0V16.083a.917.917,0,0,0-.931-.93Z" transform="translate(-6 -6)"/>
</svg>
