<svg xmlns="http://www.w3.org/2000/svg" width="21.944" height="23.773" viewBox="0 0 21.944 23.773">
  <path id="icons8-home_6_" data-name="icons8-home (6)" d="M26.42,27.773H20.934a1.524,1.524,0,0,1-1.524-1.524V20.763a1.219,1.219,0,0,0-1.219-1.219H15.753a1.219,1.219,0,0,0-1.219,1.219v5.486a1.524,1.524,0,0,1-1.524,1.524H7.524A1.524,1.524,0,0,1,6,26.249V14.614a4.573,4.573,0,0,1,1.743-3.592L16.406,4.2a.916.916,0,0,1,1.132,0L26.2,11.022a4.571,4.571,0,0,1,1.742,3.591V26.249A1.524,1.524,0,0,1,26.42,27.773Z" transform="translate(-6 -4)"/>
</svg>
