<svg xmlns="http://www.w3.org/2000/svg" width="23.18" height="22" viewBox="0 0 23.18 22">
  <path id="icons8-comments_6_" data-name="icons8-comments (6)" d="M7.767,7A3.78,3.78,0,0,0,4,10.767v9.851a3.78,3.78,0,0,0,3.767,3.767h.869v3.187a1.481,1.481,0,0,0,2.318,1.159l5.795-4.346h6.664a3.78,3.78,0,0,0,3.767-3.767V10.767A3.78,3.78,0,0,0,23.413,7Zm0,1.738H23.413a2.016,2.016,0,0,1,2.028,2.028v9.851a2.016,2.016,0,0,1-2.028,2.028H16.459a.869.869,0,0,0-.522.174l-5.563,4.172V23.516a.869.869,0,0,0-.869-.869H7.767a2.016,2.016,0,0,1-2.028-2.028V10.767A2.016,2.016,0,0,1,7.767,8.738Zm2.9,4.055a.869.869,0,1,0,0,1.739h9.851a.869.869,0,1,0,0-1.739Zm0,4.056a.869.869,0,1,0,0,1.739H18.2a.869.869,0,1,0,0-1.739Z" transform="translate(-4 -7)"/>
</svg>
