<svg xmlns="http://www.w3.org/2000/svg"  viewBox="0 0 64 64" width="48px" height="48px"><path d="M 20 10 C 16.686 10 14 12.686 14 16 L 14 48 C 14 51.314 16.686 54 20 54 L 44 54 C 47.314 54 50 51.314 50 48 L 50 16 C 50 12.686 47.314 10 44 10 L 39 10 L 25 10 L 20 10 z M 20 14 L 25 14 C 25 15.657 26.343 17 28 17 L 36 17 C 37.657 17 39 15.657 39 14 L 44 14 C 45.105 14 46 14.895 46 16 L 46 48 C 46 49.105 45.105 50 44 50 L 20 50 C 18.895 50 18 49.105 18 48 L 18 16 C 18 14.895 18.895 14 20 14 z M 31 20 C 30.448 20 30 20.448 30 21 L 30 23 L 28 23 C 27.448 23 27 23.448 27 24 L 27 26 C 27 26.552 27.448 27 28 27 L 30 27 L 30 29 C 30 29.552 30.448 30 31 30 L 33 30 C 33.552 30 34 29.552 34 29 L 34 27 L 36 27 C 36.552 27 37 26.552 37 26 L 37 24 C 37 23.448 36.552 23 36 23 L 34 23 L 34 21 C 34 20.448 33.552 20 33 20 L 31 20 z M 25 34 C 23.896 34 23 34.895 23 36 C 23 37.105 23.896 38 25 38 L 39 38 C 40.104 38 41 37.105 41 36 C 41 34.895 40.104 34 39 34 L 25 34 z M 25 41 C 23.896 41 23 41.895 23 43 C 23 44.105 23.896 45 25 45 L 35 45 C 36.104 45 37 44.105 37 43 C 37 41.895 36.104 41 35 41 L 25 41 z"/></svg>