<svg id="Icon_feather-search" data-name="Icon feather-search" xmlns="http://www.w3.org/2000/svg" width="22" height="22.911" viewBox="0 0 22 22.911">
  <path id="icons8-settings_8_" data-name="icons8-settings (8)" d="M15.795,4a11.478,11.478,0,0,0-2.605.308.859.859,0,0,0-.659.744l-.182,1.662A1.717,1.717,0,0,1,9.949,8.1h0L8.421,7.427a.859.859,0,0,0-.973.2,11.434,11.434,0,0,0-2.615,4.508.859.859,0,0,0,.314.942l1.355.993a1.719,1.719,0,0,1,0,2.772l-1.355.992a.859.859,0,0,0-.314.942,11.431,11.431,0,0,0,2.615,4.509.859.859,0,0,0,.973.2l1.527-.672a1.719,1.719,0,0,1,2.4,1.386l.182,1.662a.859.859,0,0,0,.658.743,11.172,11.172,0,0,0,5.212,0,.859.859,0,0,0,.659-.744l.182-1.662a1.719,1.719,0,0,1,2.4-1.386l1.528.672a.859.859,0,0,0,.973-.2,11.438,11.438,0,0,0,2.615-4.509.859.859,0,0,0-.314-.942l-1.355-.992a1.719,1.719,0,0,1,0-2.772l1.355-.992a.859.859,0,0,0,.314-.942,11.438,11.438,0,0,0-2.615-4.509.859.859,0,0,0-.973-.2L21.641,8.1a1.719,1.719,0,0,1-2.4-1.386l-.182-1.662a.859.859,0,0,0-.658-.743A11.451,11.451,0,0,0,15.795,4Zm0,1.718a9.357,9.357,0,0,1,1.631.195l.107.988a3.438,3.438,0,0,0,4.8,2.772l.908-.4a9.656,9.656,0,0,1,1.636,2.82l-.805.591a3.437,3.437,0,0,0,0,5.542l.805.591a9.656,9.656,0,0,1-1.636,2.82l-.908-.4a3.438,3.438,0,0,0-4.8,2.772L17.426,25a9.385,9.385,0,0,1-1.631.195A9.357,9.357,0,0,1,14.164,25l-.107-.988a3.438,3.438,0,0,0-4.8-2.772l-.908.4a9.65,9.65,0,0,1-1.636-2.82l.805-.591a3.438,3.438,0,0,0,0-5.543l-.805-.591a9.652,9.652,0,0,1,1.637-2.82l.907.4a3.436,3.436,0,0,0,4.8-2.771l.107-.988A9.385,9.385,0,0,1,15.795,5.718Zm0,5.155a4.582,4.582,0,1,0,4.582,4.582A4.6,4.6,0,0,0,15.795,10.873Zm0,1.718a2.864,2.864,0,1,1-2.864,2.864A2.851,2.851,0,0,1,15.795,12.591Z" transform="translate(-4.795 -4)"/>
</svg>
