<svg xmlns="http://www.w3.org/2000/svg" width="22" height="22" viewBox="0 0 22 22">
  <path id="icons8-four-squares_1_" data-name="icons8-four-squares (1)" d="M13.639,16.389H8.75A2.753,2.753,0,0,1,6,13.639V8.75A2.753,2.753,0,0,1,8.75,6h4.889a2.753,2.753,0,0,1,2.75,2.75v4.889A2.753,2.753,0,0,1,13.639,16.389Zm11.611,0H20.361a2.753,2.753,0,0,1-2.75-2.75V8.75A2.753,2.753,0,0,1,20.361,6H25.25A2.753,2.753,0,0,1,28,8.75v4.889A2.753,2.753,0,0,1,25.25,16.389ZM13.639,28H8.75A2.753,2.753,0,0,1,6,25.25V20.361a2.753,2.753,0,0,1,2.75-2.75h4.889a2.753,2.753,0,0,1,2.75,2.75V25.25A2.753,2.753,0,0,1,13.639,28ZM25.25,28H20.361a2.753,2.753,0,0,1-2.75-2.75V20.361a2.753,2.753,0,0,1,2.75-2.75H25.25A2.753,2.753,0,0,1,28,20.361V25.25A2.753,2.753,0,0,1,25.25,28Z" transform="translate(-6 -6)"/>
</svg>
