<svg xmlns="http://www.w3.org/2000/svg" width="22" height="22" viewBox="0 0 22 22">
  <path id="icons8-four-squares" d="M8.75,6A2.764,2.764,0,0,0,6,8.75v4.889a2.764,2.764,0,0,0,2.75,2.75h4.889a2.764,2.764,0,0,0,2.75-2.75V8.75A2.764,2.764,0,0,0,13.639,6ZM20.361,6a2.764,2.764,0,0,0-2.75,2.75v4.889a2.764,2.764,0,0,0,2.75,2.75H25.25A2.764,2.764,0,0,0,28,13.639V8.75A2.764,2.764,0,0,0,25.25,6ZM8.75,7.833h4.889a.9.9,0,0,1,.917.917v4.889a.9.9,0,0,1-.917.917H8.75a.9.9,0,0,1-.917-.917V8.75A.9.9,0,0,1,8.75,7.833Zm11.611,0H25.25a.9.9,0,0,1,.917.917v4.889a.9.9,0,0,1-.917.917H20.361a.9.9,0,0,1-.917-.917V8.75A.9.9,0,0,1,20.361,7.833ZM8.75,17.611A2.764,2.764,0,0,0,6,20.361V25.25A2.764,2.764,0,0,0,8.75,28h4.889a2.764,2.764,0,0,0,2.75-2.75V20.361a2.764,2.764,0,0,0-2.75-2.75Zm11.611,0a2.764,2.764,0,0,0-2.75,2.75V25.25A2.764,2.764,0,0,0,20.361,28H25.25A2.764,2.764,0,0,0,28,25.25V20.361a2.764,2.764,0,0,0-2.75-2.75ZM8.75,19.444h4.889a.9.9,0,0,1,.917.917V25.25a.9.9,0,0,1-.917.917H8.75a.9.9,0,0,1-.917-.917V20.361A.9.9,0,0,1,8.75,19.444Zm11.611,0H25.25a.9.9,0,0,1,.917.917V25.25a.9.9,0,0,1-.917.917H20.361a.9.9,0,0,1-.917-.917V20.361A.9.9,0,0,1,20.361,19.444Z" transform="translate(-6 -6)"/>
</svg>
