<svg xmlns="http://www.w3.org/2000/svg" width="19.8" height="22" viewBox="0 0 19.8 22">
  <path id="icons8-technical-support-wearing-glasses" d="M16.625,4a8.887,8.887,0,0,0-6.273,2.15A7.8,7.8,0,0,0,8.1,11.975v2.067A2.643,2.643,0,0,0,7,16.1a2.726,2.726,0,0,0,2.156,2.63,11.658,11.658,0,0,0,2.467,4.976A6.416,6.416,0,0,0,16.35,26a.825.825,0,1,0,0-1.65,4.726,4.726,0,0,1-3.5-1.751,10.279,10.279,0,0,1-2.257-4.747.825.825,0,0,0-.808-.655c-.169,0-.179,0-.033,0a1.088,1.088,0,0,1-1.1-1.1,1.072,1.072,0,0,1,.628-.98A.825.825,0,0,0,9.462,15h2.2v.55a2.2,2.2,0,1,0,4.4,0h1.1a2.2,2.2,0,1,0,4.4,0V15H22.95v3.575a2.462,2.462,0,0,1-2.475,2.475H19.463a1.926,1.926,0,1,0,0,1.65h1.013a4.136,4.136,0,0,0,4.111-3.85H24.6a2.2,2.2,0,0,0,2.2-2.2v-1.1a2.2,2.2,0,0,0-2.2-2.2v-.275a6.867,6.867,0,0,0-.321-2.027,1.7,1.7,0,0,0,.708-2.19A8.874,8.874,0,0,0,16.625,4Zm0,1.65c3.475,0,5.76,1.593,6.873,3.92.011.023.009.031-.032.043a15.138,15.138,0,0,1-3.816.437,10.98,10.98,0,0,1-4.35-.758,3.524,3.524,0,0,1-1.117-.65.825.825,0,0,0-1.358.3,3.107,3.107,0,0,1-1.1,1.28.826.826,0,0,0,1.008,1.308,5.377,5.377,0,0,0,1.131-1.2,2.8,2.8,0,0,0,.79.483,12.659,12.659,0,0,0,5,.892,18.7,18.7,0,0,0,3.024-.236,5.124,5.124,0,0,1,.276,1.611v.275H17.988a.825.825,0,0,0-.777.55h-1.2a.825.825,0,0,0-.777-.55H9.75V11.975a6.082,6.082,0,0,1,1.736-4.628A7.223,7.223,0,0,1,16.625,5.65ZM13.313,15h1.1v.55a.55.55,0,1,1-1.1,0Zm5.5,0h1.1v.55a.55.55,0,1,1-1.1,0Z" transform="translate(-7 -4)"/>
</svg>
