<svg xmlns="http://www.w3.org/2000/svg" width="24" height="24" viewBox="0 0 24 24">
  <path id="icons8-english-to-arabic_1_" data-name="icons8-english-to-arabic (1)" d="M4,4V22h6v6H28V10H22V4ZM6,6H20v4.586l-5.025,5.025L12.26,8H10.709L8,15.686V17h2v-.973L10.01,16h2.98l.01.029V17h.586l-3,3H6Zm5.49,5.8.785,2.2H10.715Zm9.924.2H26V26H12V21.414Zm-1.3,3A2.365,2.365,0,0,0,17.9,17.035a2.912,2.912,0,0,0,.863,1.871A3.156,3.156,0,0,0,17,21.451C17,23.151,18.97,24,20.52,24A5.135,5.135,0,0,0,24,22.877s-3.938.191-4.85-1.723a1.737,1.737,0,0,1,.912-1.951,1.946,1.946,0,0,1,2.113.3l.58-2.094a8.439,8.439,0,0,1-1.795.232c-.31,0-1.391-.2-1.391-.881,0-.546.7-.764.947-.764a5.345,5.345,0,0,1,1.717.326v-.8A3.918,3.918,0,0,0,20.117,15Z" transform="translate(-4 -4)"/>
</svg>
