<svg xmlns="http://www.w3.org/2000/svg" width="23.051" height="21.322" viewBox="0 0 23.051 21.322">
  <path id="icons8-open-book_2_" data-name="icons8-open-book (2)" d="M7.746,5a.864.864,0,0,0-.864.864v.864H4.864A.864.864,0,0,0,4,7.593V25.457a.864.864,0,0,0,.864.864H26.186a.864.864,0,0,0,.864-.864V7.593a.864.864,0,0,0-.864-.864H24.169V5.864A.864.864,0,0,0,23.3,5H18.983a4.252,4.252,0,0,0-3.458,1.869A4.252,4.252,0,0,0,12.068,5ZM8.61,6.729h3.458a2.58,2.58,0,0,1,2.593,2.593V22.593a4.294,4.294,0,0,0-2.593-.881H8.61V7.735a.864.864,0,0,0,0-.28Zm10.373,0H22.44v.723a.865.865,0,0,0,0,.28v13.98H18.983a4.294,4.294,0,0,0-2.593.881V9.322A2.58,2.58,0,0,1,18.983,6.729ZM5.729,8.458H6.881V22.576a.864.864,0,0,0,.864.864h4.322a2.581,2.581,0,0,1,2.155,1.153H5.729Zm18.44,0h1.153V24.593H16.828a2.581,2.581,0,0,1,2.155-1.153H23.3a.864.864,0,0,0,.864-.864Z" transform="translate(-4 -5)"/>
</svg>
