<svg xmlns="http://www.w3.org/2000/svg" width="25" height="16.146" viewBox="0 0 25 16.146">
  <path id="icons8-download-from-cloud_1_" data-name="icons8-download-from-cloud (1)" d="M12.5,7a7.561,7.561,0,0,0-7.51,6.771h-.3a4.687,4.687,0,1,0,0,9.375H9.9L8.23,21.583H4.688a3.125,3.125,0,1,1,0-6.25H5.729a.78.78,0,0,0,.781-.781,5.99,5.99,0,1,1,11.979,0,.78.78,0,0,0,.781.781h1.042a3.125,3.125,0,1,1,0,6.25H16.77L15.1,23.146h5.213a4.687,4.687,0,1,0,0-9.375h-.3A7.561,7.561,0,0,0,12.5,7Zm-.012,5.718a.781.781,0,0,0-.769.792v7.056L9.127,18.148a.781.781,0,1,0-1.066,1.141l3.906,3.646a.781.781,0,0,0,1.066,0l3.906-3.646a.781.781,0,1,0-1.066-1.141l-2.592,2.418V13.51a.781.781,0,0,0-.793-.792Z" transform="translate(0 -7)"/>
</svg>
