<?xml version="1.0" standalone="no"?>
<!DOCTYPE svg PUBLIC "-//W3C//DTD SVG 20010904//EN"
 "http://www.w3.org/TR/2001/REC-SVG-20010904/DTD/svg10.dtd">
<svg version="1.0" xmlns="http://www.w3.org/2000/svg"
 width="48.000000pt" height="48.000000pt" viewBox="0 0 48.000000 48.000000"
 preserveAspectRatio="xMidYMid meet">

<g transform="translate(0.000000,48.000000) scale(0.100000,-0.100000)"
fill="#000000" stroke="none">
<path d="M235 421 c-3 -5 -1 -12 5 -16 6 -4 2 -21 -10 -45 -17 -32 -20 -59
-20 -153 0 -74 4 -117 12 -125 7 -7 41 -12 85 -12 90 0 93 4 93 140 0 80 -4
109 -19 139 -11 21 -17 48 -14 60 5 20 2 21 -60 21 -36 0 -68 -4 -72 -9z m108
-56 c9 -20 17 -40 17 -45 0 -6 -25 -10 -55 -10 -30 0 -55 4 -55 10 0 5 8 25
17 45 23 47 53 47 76 0z m27 -175 l0 -90 -65 0 -65 0 0 90 0 90 65 0 65 0 0
-90z"/>
<path d="M90 300 c0 -5 9 -14 21 -21 21 -11 21 -11 -8 -29 -86 -52 -53 -180
47 -180 32 0 40 4 40 18 0 15 -6 17 -34 14 -27 -3 -37 1 -55 23 -11 15 -21 33
-21 40 0 7 10 25 21 40 18 22 28 26 55 23 42 -5 43 5 2 48 -31 32 -68 46 -68
24z"/>
</g>
</svg>
