<svg xmlns="http://www.w3.org/2000/svg" width="20.652" height="25" viewBox="0 0 20.652 25">
  <path id="icons8-school-building_3_" data-name="icons8-school-building (3)" d="M15.87,0a.544.544,0,0,0-.543.543V1.63a.544.544,0,0,0,.543.543,2.055,2.055,0,0,1,1.329.452,3.121,3.121,0,0,0,1.932.635.544.544,0,0,0,.543-.543V1.63a.544.544,0,0,0-.543-.543A2.055,2.055,0,0,1,17.8.635,3.121,3.121,0,0,0,15.87,0Zm-.555,3.8a.815.815,0,0,0-.565.239L9.043,9.75a.815.815,0,0,0-.239.576V12.5H7.989A3,3,0,0,0,5,15.489v8.7A.815.815,0,0,0,5.815,25H12.88a.815.815,0,0,0,.815-.815V21.2a1.63,1.63,0,0,1,3.261,0v2.989a.815.815,0,0,0,.815.815h7.065a.815.815,0,0,0,.815-.815v-8.7A3,3,0,0,0,22.663,12.5h-.815V10.326a.815.815,0,0,0-.239-.576L15.9,4.043a.815.815,0,0,0-.588-.239Zm.012,1.968,4.891,4.891v2.652a.815.815,0,0,0,.815.815h1.631a1.347,1.347,0,0,1,1.359,1.359v7.88H18.587V21.2a3.261,3.261,0,0,0-6.522,0V23.37H6.63v-7.88A1.347,1.347,0,0,1,7.989,14.13H9.62a.815.815,0,0,0,.815-.815V10.664Zm0,3.467a2.711,2.711,0,0,0-2.036.868,2.849,2.849,0,0,0,0,3.7,2.821,2.821,0,0,0,4.072,0,2.849,2.849,0,0,0,0-3.7A2.711,2.711,0,0,0,15.326,9.239Zm0,1.63a.978.978,0,0,1,.817.321,1.224,1.224,0,0,1,0,1.533.978.978,0,0,1-.817.321.978.978,0,0,1-.817-.321,1.224,1.224,0,0,1,0-1.533A.978.978,0,0,1,15.326,10.87ZM8.8,15.761a.543.543,0,0,0-.543.543v1.087a.543.543,0,0,0,.543.543H9.891a.543.543,0,0,0,.543-.543V16.3a.543.543,0,0,0-.543-.543Zm11.957,0a.543.543,0,0,0-.543.543v1.087a.543.543,0,0,0,.543.543h1.087a.543.543,0,0,0,.543-.543V16.3a.543.543,0,0,0-.543-.543ZM8.8,19.565a.543.543,0,0,0-.543.543V21.2a.543.543,0,0,0,.543.543H9.891a.543.543,0,0,0,.543-.543V20.109a.543.543,0,0,0-.543-.543Zm11.957,0a.543.543,0,0,0-.543.543V21.2a.543.543,0,0,0,.543.543h1.087a.543.543,0,0,0,.543-.543V20.109a.543.543,0,0,0-.543-.543Z" transform="translate(-5)"/>
</svg>
