<svg xmlns="http://www.w3.org/2000/svg" width="25" height="25" viewBox="0 0 25 25">
  <path id="icons8-secure" d="M16.5,4A12.5,12.5,0,1,0,29,16.5,12.514,12.514,0,0,0,16.5,4Zm0,2.083A10.417,10.417,0,1,1,6.083,16.5,10.4,10.4,0,0,1,16.5,6.083Zm0,4.167a3.142,3.142,0,0,0-3.125,3.125v1.042H11.292v7.292H21.708V14.417H19.625V13.375A3.142,3.142,0,0,0,16.5,10.25Zm0,2.083a1.038,1.038,0,0,1,1.042,1.042v1.042H15.458V13.375A1.038,1.038,0,0,1,16.5,12.333ZM13.375,16.5h6.25v3.125h-6.25Z" transform="translate(-4 -4)"/>
</svg>
