<svg xmlns="http://www.w3.org/2000/svg" width="25" height="25" viewBox="0 0 25 25">
  <path id="icons8-comments_3_" data-name="icons8-comments (3)" d="M16.5,4A12.514,12.514,0,0,0,4,16.5a12.384,12.384,0,0,0,1.414,5.667L4.059,27.016a1.6,1.6,0,0,0,1.926,1.926l4.855-1.355A12.382,12.382,0,0,0,16.5,29a12.5,12.5,0,0,0,0-25Zm0,1.875a10.625,10.625,0,1,1-5.161,19.91.938.938,0,0,0-.708-.084L6.014,26.986,7.3,22.372a.938.938,0,0,0-.084-.709A10.619,10.619,0,0,1,16.5,5.873ZM22.438,11.5H10.563a.938.938,0,1,0,0,1.875H22.438a.938.938,0,1,0,0-1.875Zm0,4.061H10.563a.938.938,0,1,0,0,1.875H22.438a.938.938,0,1,0,0-1.875Zm-6.25,4.064H10.563a.938.938,0,1,0,0,1.875h5.625a.938.938,0,1,0,0-1.875Z" transform="translate(-4 -3.998)"/>
</svg>
