<?xml version="1.0" standalone="no"?>
<!DOCTYPE svg PUBLIC "-//W3C//DTD SVG 20010904//EN"
 "http://www.w3.org/TR/2001/REC-SVG-20010904/DTD/svg10.dtd">
<svg version="1.0" xmlns="http://www.w3.org/2000/svg"
 width="50.000000pt" height="50.000000pt" viewBox="0 0 50.000000 50.000000"
 preserveAspectRatio="xMidYMid meet">

<g transform="translate(0.000000,50.000000) scale(0.100000,-0.100000)"
fill="#000000" stroke="none">
<path d="M52 437 c-13 -14 -22 -36 -22 -55 0 -29 3 -32 30 -32 l30 0 0 -155 0
-155 75 0 c43 0 75 4 75 10 0 6 -28 10 -65 10 l-65 0 0 145 0 145 100 0 100 0
0 29 c0 34 23 61 50 61 45 0 50 -21 50 -206 l0 -174 -25 0 c-14 0 -25 -4 -25
-10 0 -5 16 -10 35 -10 l35 0 0 188 c0 246 13 232 -201 232 -150 0 -156 -1
-177 -23z m244 -32 l-11 -35 -117 0 c-110 0 -118 1 -118 19 0 42 25 51 144 51
l113 0 -11 -35z"/>
<path d="M160 310 c0 -6 40 -10 100 -10 60 0 100 4 100 10 0 6 -40 10 -100 10
-60 0 -100 -4 -100 -10z"/>
<path d="M160 250 c0 -6 40 -10 100 -10 60 0 100 4 100 10 0 6 -40 10 -100 10
-60 0 -100 -4 -100 -10z"/>
<path d="M280 193 c-31 -11 -37 -32 -32 -106 2 -39 6 -73 7 -75 2 -2 12 3 24
10 17 11 25 11 42 0 12 -7 22 -12 24 -10 9 11 11 150 1 162 -13 17 -45 26 -66
19z m44 -28 c12 -13 13 -21 4 -40 -6 -14 -19 -25 -28 -25 -9 0 -22 11 -28 25
-9 19 -8 27 4 40 9 8 19 15 24 15 5 0 15 -7 24 -15z m6 -104 c0 -20 -2 -21
-15 -11 -12 10 -18 10 -30 0 -13 -10 -15 -9 -15 11 0 20 5 24 30 24 25 0 30
-4 30 -24z"/>
</g>
</svg>
