<svg xmlns="http://www.w3.org/2000/svg" width="22" height="23.834" viewBox="0 0 22 23.834">
  <path id="icons8-home_5_" data-name="icons8-home (5)" d="M16.97,4a.917.917,0,0,0-.537.2L7.747,11.039A4.586,4.586,0,0,0,6,14.639V26.305a1.541,1.541,0,0,0,1.528,1.528h6.111a1.541,1.541,0,0,0,1.528-1.528V20.194a.292.292,0,0,1,.306-.306h3.056a.292.292,0,0,1,.306.306v6.111a1.541,1.541,0,0,0,1.528,1.528h6.111A1.541,1.541,0,0,0,28,26.305V14.639a4.586,4.586,0,0,0-1.747-3.6L17.567,4.2A.917.917,0,0,0,16.97,4ZM17,6.084l8.119,6.4a2.746,2.746,0,0,1,1.048,2.159V26h-5.5V20.194a2.153,2.153,0,0,0-2.139-2.139H15.472a2.153,2.153,0,0,0-2.139,2.139V26h-5.5V14.639A2.746,2.746,0,0,1,8.881,12.48Z" transform="translate(-6 -3.999)"/>
</svg>
