<svg width="50" height="50" viewBox="0 0 50 50" fill="none" xmlns="http://www.w3.org/2000/svg">
<path d="M41.6667 46.875H8.33337V3.125H31.25L41.6667 13.5417V46.875Z" fill="#90CAF9"/>
<path d="M40.1042 14.5833H30.2084V4.6875L40.1042 14.5833Z" fill="#E1F5FE"/>
<path d="M21.875 23.9583L14.5834 34.375H29.1667L21.875 23.9583Z" fill="#1565C0"/>
<path d="M29.1667 27.5L23.9584 34.375H34.375L29.1667 27.5ZM32.8125 23.9583C32.3981 23.9583 32.0007 24.1229 31.7077 24.416C31.4147 24.709 31.25 25.1064 31.25 25.5208C31.25 25.9352 31.4147 26.3326 31.7077 26.6257C32.0007 26.9187 32.3981 27.0833 32.8125 27.0833C33.2269 27.0833 33.6244 26.9187 33.9174 26.6257C34.2104 26.3326 34.375 25.9352 34.375 25.5208C34.375 25.1064 34.2104 24.709 33.9174 24.416C33.6244 24.1229 33.2269 23.9583 32.8125 23.9583Z" fill="#1976D2"/>
</svg>
