<?xml version="1.0" standalone="no"?>
<!DOCTYPE svg PUBLIC "-//W3C//DTD SVG 20010904//EN"
 "http://www.w3.org/TR/2001/REC-SVG-20010904/DTD/svg10.dtd">
<svg version="1.0" xmlns="http://www.w3.org/2000/svg"
 width="48.000000pt" height="48.000000pt" viewBox="0 0 48.000000 48.000000"
 preserveAspectRatio="xMidYMid meet">

<g transform="translate(0.000000,48.000000) scale(0.100000,-0.100000)"
fill="#000000" stroke="none">
<path d="M252 403 c1 -10 -3 -32 -10 -49 -13 -30 -16 -32 -53 -27 -45 6 -83
-14 -95 -49 -4 -13 -14 -28 -22 -34 -12 -9 -13 -21 -2 -85 7 -44 18 -79 28
-87 24 -18 266 -17 284 2 8 8 20 47 27 86 13 70 12 74 -7 89 -13 11 -22 33
-26 66 -13 110 -6 100 -70 103 -51 3 -57 1 -54 -15z m86 -38 c7 -14 12 -46 12
-71 l0 -45 -42 3 c-42 3 -43 4 -46 40 -6 75 51 129 76 73z m-118 -84 c15 -30
14 -31 -39 -31 -55 0 -69 10 -45 34 22 23 71 21 84 -3z m163 -98 c-15 -95 -4
-88 -145 -91 l-126 -3 -6 38 c-4 21 -9 50 -12 66 l-6 27 151 0 150 0 -6 -37z"/>
<path d="M162 159 c2 -24 8 -43 13 -41 15 3 12 75 -3 80 -10 3 -12 -7 -10 -39z"/>
<path d="M224 176 c-7 -28 3 -66 16 -66 13 0 23 45 15 69 -9 28 -23 26 -31 -3z"/>
<path d="M294 186 c-8 -21 -1 -66 11 -69 6 -1 11 17 13 41 3 41 -12 59 -24 28z"/>
</g>
</svg>
