<svg id="pdf_1_" data-name="pdf (1)" xmlns="http://www.w3.org/2000/svg" width="42.75" height="48.289" viewBox="0 0 42.75 48.289">
  <path id="Path_2957" data-name="Path 2957" d="M83.97,0H64.538L49.964,14.574V43.431a4.858,4.858,0,0,0,4.858,4.858H83.97a4.858,4.858,0,0,0,4.858-4.858V4.858A4.858,4.858,0,0,0,83.97,0Z" transform="translate(-48.021 0)" fill="#ebebf5"/>
  <path id="Path_2958" data-name="Path 2958" d="M49.964,14.574V43.431a4.858,4.858,0,0,0,4.858,4.858h3.886a4.858,4.858,0,0,1-4.858-4.858V23.887a5.426,5.426,0,0,1,5.426-5.426A5.261,5.261,0,0,0,64.538,13.2V0Z" transform="translate(-48.021 0)" fill="#e1e1f0"/>
  <path id="Path_2959" data-name="Path 2959" d="M64.538,0V9.313a5.261,5.261,0,0,1-5.261,5.261H49.964Z" transform="translate(-48.021 0)" fill="#f5f5fc"/>
  <path id="Path_2960" data-name="Path 2960" d="M31.3,245.7H70.167a1.943,1.943,0,0,1,1.943,1.943v12.631a1.943,1.943,0,0,1-1.943,1.943H31.3a1.943,1.943,0,0,1-1.943-1.943V247.641A1.943,1.943,0,0,1,31.3,245.7Z" transform="translate(-29.36 -222.525)" fill="#ff3737"/>
  <path id="Path_2961" data-name="Path 2961" d="M33.246,260.272V247.641A1.943,1.943,0,0,1,35.19,245.7H31.3a1.943,1.943,0,0,0-1.943,1.943v12.631a1.943,1.943,0,0,0,1.943,1.943H35.19A1.943,1.943,0,0,1,33.246,260.272Z" transform="translate(-29.36 -222.525)" fill="#d62727"/>
  <g id="Group_4470" data-name="Group 4470" transform="translate(10.603 26.352)">
    <path id="Path_2962" data-name="Path 2962" d="M318.616,289.84a.707.707,0,0,1-.707-.707v-8.68a.707.707,0,0,1,.707-.707h3.518a.707.707,0,0,1,0,1.415h-2.811v7.973A.707.707,0,0,1,318.616,289.84Z" transform="translate(-301.298 -279.713)" fill="#fff"/>
    <path id="Path_2963" data-name="Path 2963" d="M321.855,326.307h-3.239a.707.707,0,0,1,0-1.415h3.239a.707.707,0,1,1,0,1.415Z" transform="translate(-301.298 -320.602)" fill="#fff"/>
    <path id="Path_2964" data-name="Path 2964" d="M225.911,290.676a.707.707,0,0,1-.707-.7c0-.031-.011-3.088-.011-4.255,0-.968-.006-4.232-.006-4.232a.707.707,0,0,1,.707-.709h2.4c2.473,0,4.134,1.989,4.134,4.95a5.608,5.608,0,0,1-1.052,3.406,3.8,3.8,0,0,1-3,1.526c-.682.012-2.394.019-2.466.019h0Zm.692-8.486c0,1.017,0,2.843,0,3.526,0,.816.005,2.56.009,3.541.571,0,1.343-.008,1.739-.015,1.567-.027,2.661-1.474,2.661-3.517,0-1.709-.714-3.536-2.719-3.536H226.6Z" transform="translate(-217.321 -280.646)" fill="#fff"/>
    <path id="Path_2965" data-name="Path 2965" d="M142.5,289.565a.707.707,0,0,1-.707-.707v-8.744a.707.707,0,0,1,1.415,0v8.744A.707.707,0,0,1,142.5,289.565Z" transform="translate(-141.788 -279.406)" fill="#fff"/>
    <path id="Path_2966" data-name="Path 2966" d="M142.513,285.765a.707.707,0,0,1-.707-.7c0-.018-.011-1.8-.011-2.483,0-.564-.006-2.465-.006-2.465a.707.707,0,0,1,.707-.71h2.435a3.175,3.175,0,1,1,0,6.35c-.666,0-2.4.011-2.413.011Zm.693-4.946c0,.6,0,1.422,0,1.76,0,.4,0,1.188.007,1.767.564,0,1.322-.007,1.715-.007a1.761,1.761,0,1,0,0-3.521Z" transform="translate(-141.789 -279.404)" fill="#fff"/>
  </g>
</svg>
