<svg xmlns="http://www.w3.org/2000/svg" xmlns:xlink="http://www.w3.org/1999/xlink" width="37" height="39" viewBox="0 0 37 39">
  <defs>
    <style>
      .cls-1 {
        clip-path: url(#clip-PDF);
      }

      .cls-2 {
        fill: #ffadc8;
      }

      .cls-3 {
        fill: url(#linear-gradient);
      }

      .cls-4 {
        fill: #e52030;
      }
    </style>
    <linearGradient id="linear-gradient" x1="0.059" y1="0.941" x2="0.505" y2="0.495" gradientUnits="objectBoundingBox">
      <stop offset="0" stop-color="#f44f5a"/>
      <stop offset="0.337" stop-color="#f34c57"/>
      <stop offset="0.595" stop-color="#f0424f"/>
      <stop offset="0.825" stop-color="#eb3240"/>
      <stop offset="1" stop-color="#e52030"/>
    </linearGradient>
    <clipPath id="clip-PDF">
      <rect width="37" height="39"/>
    </clipPath>
  </defs>
  <g id="PDF" class="cls-1">
    <g id="icons8-pdf_2_" data-name="icons8-pdf (2)" transform="translate(-5 -4)">
      <path id="Path_2350" data-name="Path 2350" class="cls-2" d="M39,16V41a2,2,0,0,1-2,2H11a2,2,0,0,1-2-2V7a2,2,0,0,1,2-2H28Z"/>
      <path id="Path_2351" data-name="Path 2351" class="cls-3" d="M28,5v9a2,2,0,0,0,2,2h9Z"/>
      <path id="Path_2352" data-name="Path 2352" class="cls-4" d="M16,38a2.958,2.958,0,0,1-1-.2,1.8,1.8,0,0,1-1-2.2c.4-1.2,2.6-2.7,5.5-4h0a35.975,35.975,0,0,0,2.9-7,11.539,11.539,0,0,1-1.5-5,3.453,3.453,0,0,1,.5-1.8,2.2,2.2,0,0,1,1.8-.8,1.921,1.921,0,0,1,1.9,1.4c.5,1.2.2,3.4-.5,5.9a20.009,20.009,0,0,0,3.5,4.5,13.842,13.842,0,0,1,4.7-.4c1.9.3,2.2,1.6,2.2,2.1,0,2.1-2.2,2.1-3,2.1a6.7,6.7,0,0,1-4.3-1.7h0A37.521,37.521,0,0,0,21,33.2a17.074,17.074,0,0,1-2.9,3.9A3.521,3.521,0,0,1,16,38Zm1.2-2.9a3.528,3.528,0,0,0-1.1.9A3.175,3.175,0,0,0,17.2,35.1Zm13.6-4.7a5.019,5.019,0,0,0,1.2.2,5.846,5.846,0,0,0,1-.1h0A3.742,3.742,0,0,0,30.8,30.4Zm-7-3.6c-.4,1.2-1,2.5-1.5,3.7,1.2-.4,2.4-.8,3.6-1.1A17.085,17.085,0,0,1,23.8,26.8ZM23.2,19h-.1c-.1.1-.2.8.2,2.3A4.7,4.7,0,0,0,23.2,19Z"/>
    </g>
  </g>
</svg>
