<?xml version="1.0" encoding="UTF-8"?><svg id="Layer_1" xmlns="http://www.w3.org/2000/svg" viewBox="0 0 32 32"><defs><style>.cls-1{fill:#f88c0b;}</style></defs><path id="icons8-family" class="cls-1" d="m13.18.28c-1.89,0-3.42,1.53-3.42,3.42s1.53,3.42,3.42,3.42,3.42-1.53,3.42-3.42h0c0-1.88-1.53-3.41-3.42-3.42Zm0,1.37c1.13,0,2.05.92,2.05,2.05s-.92,2.05-2.05,2.05-2.05-.92-2.05-2.05h0c0-1.13.9-2.04,2.03-2.05,0,0,.01,0,.02,0Zm-3.08,6.15c-2.07,0-3.75,1.69-3.76,3.76v8.41s0,.09,0,.13c0,.06,0,.13.02.19.1,1.05.98,1.85,2.03,1.86.23,0,.46-.05.68-.13v7.88c0,1,.81,1.81,1.81,1.81h1.15c.42-.02.82-.18,1.13-.47.31.29.71.45,1.13.47h1.15c1,0,1.81-.81,1.81-1.82v-4.46c.22.08-1.37-8.21-1.37-6.7v11.16c0,.24-.18.44-.42.45-.01,0-.02,0-.03,0h-1.15c-.24,0-.44-.18-.45-.42,0-.01,0-.02,0-.03v-8.67c0-.2-.08-.38-.23-.51-.28-.25-.71-.23-.96.05-.11.13-.18.29-.17.46v8.67c0,.24-.18.44-.42.45-.01,0-.02,0-.03,0h-1.15c-.24,0-.44-.18-.45-.42,0-.01,0-.02,0-.03V13.27c.01-.38-.29-.69-.66-.7-.03,0-.05,0-.08,0-.03,0-.06.01-.09.02-.32.07-.54.36-.53.68v6.83c0,.38-.3.69-.68.69-.37,0-.67-.28-.69-.65v-.04s0-.09,0-.13v-8.42c0-1.32,1.06-2.39,2.38-2.39,0,0,0,0,.01,0h6.15c.49,0,.97.15,1.37.43.29.24.72.2.96-.09s.2-.72-.09-.96c-.03-.02-.05-.04-.08-.06-.63-.44-1.38-.68-2.16-.68h-6.15Zm7.17,15.72h0Z"/><path id="icons8-family-2" class="cls-1" d="m17.96,25.42v4.54c0,.96.79,1.74,1.75,1.75h2.1c.96,0,1.74-.79,1.75-1.75v-4.54c.24-.02.47-.06.7-.13,0,0,1.4-.1,1.4-2.67v-4.2c0-1.55-1.25-2.8-2.8-2.8h-4.2c-1.55,0-2.8,1.25-2.8,2.8,0,0-.05-5.24,0,1.29.02,2.77.07,4.07.62,5,.34.64,1.49.71,1.49.71Zm2.8-16.08c-1.55,0-2.8,1.25-2.8,2.8s1.25,2.8,2.8,2.8,2.8-1.25,2.8-2.8h0c0-1.55-1.25-2.8-2.8-2.8Zm0,1.4c.77,0,1.4.63,1.4,1.4s-.63,1.4-1.4,1.4-1.4-.63-1.4-1.4h0c0-.77.61-1.39,1.37-1.4,0,0,.02,0,.03,0Zm-2.1,6.29h4.2c.77,0,1.39.61,1.4,1.37,0,0,0,.02,0,.03v4.9c0,.38-.29.69-.67.7,0,0-.02,0-.03,0h-.7c-.39,0-.7.31-.7.7h0v5.25c0,.19-.14.35-.33.35,0,0-.01,0-.02,0h-2.1c-.19,0-.35-.14-.35-.33,0,0,0-.01,0-.02v-5.25c0-.39-.31-.7-.7-.7h-.7c-.38,0-.69-.29-.7-.67,0,0,0-.02,0-.03v-4.89c0-.77.61-1.39,1.37-1.4,0,0,.02,0,.03,0h0Z"/></svg>