<svg xmlns="http://www.w3.org/2000/svg" width="15.765" height="20.539" viewBox="0 0 15.765 20.539">
  <defs>
    <style>
      .cls-1 {
        fill: #7cb13b;
      }
    </style>
  </defs>
  <g id="Group_8375" data-name="Group 8375" transform="translate(149.5 -5753)">
    <path id="icons8-family-two-men" class="cls-1" d="M6.081,4A2.054,2.054,0,1,0,8.135,6.054,2.054,2.054,0,0,0,6.081,4ZM5.824,9.135A2.836,2.836,0,0,0,3,11.959v5.9a.77.77,0,0,0,.513.736v5.169a.77.77,0,1,0,1.54,0L6.232,18.4l.876,5.373a.77.77,0,1,0,1.54,0V18.6a.77.77,0,0,0,.19-.1c.239.083.12,1.135.324.986l2.054-1.477v5.758a.77.77,0,1,0,1.54,0l.736-3.008.8,3.008a.77.77,0,1,0,1.54,0V18.236l1.807,1.081c.652.487,1.516-1.033.924-1.616s-4.212-3.432-4.785-3.432h-.513a2.038,2.038,0,0,0-1.358.523l-2.75,1.982V11.959A2.836,2.836,0,0,0,6.337,9.135Zm7.7.513a1.8,1.8,0,1,0,1.8,1.8,1.8,1.8,0,0,0-1.8-1.8Z" transform="translate(-152.5 5749)"/>
  </g>
</svg>
