<svg xmlns="http://www.w3.org/2000/svg" width="17.265" height="22.039" viewBox="0 0 17.265 22.039">
  <defs>
    <style>
      .cls-1 {
        fill: #98aac9;
      }
    </style>
  </defs>
  <g id="Group_8332" data-name="Group 8332" transform="translate(-3.25 -0.211)">
    <g id="Group_8330" data-name="Group 8330" transform="translate(153.5 -5752.039)">
      <path id="icons8-family-two-men" class="cls-1" d="M6.081,3.25a2.8,2.8,0,0,1,1.3,5.289,3.581,3.581,0,0,1,2.533,3.42V15.31l1.533-1.1a2.836,2.836,0,0,1,.876-.517,2.547,2.547,0,1,1,2.239.085,18.335,18.335,0,0,1,2.058,1.393c1.017.76,2.128,1.658,2.477,2a1.66,1.66,0,0,1,.26,1.848,1.668,1.668,0,0,1-1.439,1.147,1.191,1.191,0,0,1-.682-.217l-.646-.386v4.21a1.52,1.52,0,0,1-3.036.114l-.026-.1-.022.089a1.52,1.52,0,0,1-3.037-.105V19.473L9.6,20.1a.834.834,0,0,1-.2.107v3.565a1.52,1.52,0,0,1-3.039.07l-.236-1.447L5.8,23.863a1.52,1.52,0,0,1-3.038-.095V19.013A1.52,1.52,0,0,1,2.25,17.86v-5.9a3.581,3.581,0,0,1,2.533-3.42,2.8,2.8,0,0,1,1.3-5.289Zm0,4.108a1.3,1.3,0,1,0-1.3-1.3A1.305,1.305,0,0,0,6.081,7.358ZM8.412,17.884V11.959A2.076,2.076,0,0,0,6.337,9.885H5.824A2.076,2.076,0,0,0,3.75,11.959v5.914a.02.02,0,0,0,.014.019l.5.177v5.7a.018.018,0,0,0,.006.014.018.018,0,0,0,.014.006.02.02,0,0,0,.02-.02v-.081l1.2-5.453,1.473.04.885,5.433v.061a.018.018,0,0,0,.006.014.018.018,0,0,0,.014.006.02.02,0,0,0,.02-.02v-5.7l.5-.177.005,0Zm5.114-5.392a1.047,1.047,0,1,0-1.047-1.047A1.048,1.048,0,0,0,13.526,12.492Zm.178,2.527h-.435a1.286,1.286,0,0,0-.86.334l-.029.025-3.333,2.4.036.013a.857.857,0,0,1,.506.462l2.375-1.708v7.221a.018.018,0,0,0,.006.014.018.018,0,0,0,.014.006.02.02,0,0,0,.02-.02v-.09l.758-3.1,1.453-.015.83,3.1v.1a.018.018,0,0,0,.006.014.018.018,0,0,0,.014.006.02.02,0,0,0,.02-.02V16.914l2.8,1.677a.71.71,0,0,0,.126-.38A32.179,32.179,0,0,0,13.7,15.019Z" transform="translate(-152.5 5749)"/>
    </g>
  </g>
</svg>
