<?xml version="1.0" standalone="no"?>
<!DOCTYPE svg PUBLIC "-//W3C//DTD SVG 20010904//EN"
 "http://www.w3.org/TR/2001/REC-SVG-20010904/DTD/svg10.dtd">
<svg version="1.0" xmlns="http://www.w3.org/2000/svg"
 width="220.000000pt" height="240.000000pt" viewBox="0 0 220.000000 240.000000"
 preserveAspectRatio="xMidYMid meet">

<g transform="translate(0.000000,240.000000) scale(0.100000,-0.100000)"
fill="#000000" stroke="none">
<path d="M142 2320 c-51 -31 -74 -76 -69 -135 3 -41 21 -78 94 -205 50 -85
224 -387 387 -670 164 -283 324 -560 356 -615 32 -55 124 -215 205 -355 81
-140 156 -267 166 -282 26 -35 97 -62 144 -54 48 9 102 59 116 107 14 46 2
100 -36 158 -13 20 -116 198 -230 396 -114 198 -241 419 -283 490 -41 72 -107
186 -147 255 -40 69 -132 229 -205 355 -73 127 -167 289 -208 360 -93 163
-107 182 -142 200 -41 21 -109 19 -148 -5z"/>
<path d="M789 2053 c-57 -35 -77 -124 -42 -183 40 -69 147 -80 205 -23 59 59
44 174 -27 207 -42 20 -103 20 -136 -1z"/>
<path d="M1128 1598 c-73 -19 -138 -107 -138 -186 0 -56 55 -138 112 -168 40
-21 122 -18 168 6 76 39 117 142 90 224 -32 98 -132 151 -232 124z"/>
<path d="M322 1422 c-12 -53 -22 -100 -22 -103 0 -13 81 -39 118 -39 65 0 65
7 -3 123 -35 60 -65 110 -66 112 -2 2 -14 -40 -27 -93z"/>
<path d="M405 1087 c-59 -33 -85 -78 -85 -147 0 -99 69 -170 164 -170 69 0
122 32 153 89 28 54 29 100 4 149 -49 96 -148 129 -236 79z"/>
<path d="M1765 1078 c-49 -26 -58 -69 -24 -112 40 -51 129 -20 129 46 0 51
-61 89 -105 66z"/>
<path d="M1251 880 c-15 -9 119 -240 139 -240 30 0 43 19 47 66 4 56 -22 112
-68 147 -29 21 -101 38 -118 27z"/>
<path d="M543 546 c-92 -42 -59 -186 44 -186 64 1 110 54 99 114 -12 65 -81
99 -143 72z"/>
<path d="M56 312 c-15 -59 -29 -115 -32 -124 -7 -24 35 -33 79 -19 52 17 79
53 84 108 6 57 -23 108 -73 128 l-32 13 -26 -106z"/>
</g>
</svg>
