<svg xmlns="http://www.w3.org/2000/svg" width="110.428" height="27.564" viewBox="0 0 110.428 27.564">
  <g id="Group_6207" data-name="Group 6207" transform="translate(-672.5 -217.933)">
    <path id="Intersection_2" data-name="Intersection 2" d="M109.139,27.554l1.289,0v.006h-.322C109.85,27.564,109.524,27.562,109.139,27.554ZM4.1,27.348a33.492,33.492,0,0,0,4.731-.911,37.675,37.675,0,0,0,8.936-3.254C28.537,17.168,30.466.159,54.489,0,70.3-.083,77.482,13.422,86.121,21.055c6.347,5.652,18.6,6.414,23.018,6.5ZM0,27.413V27.34l4.1.008a22.2,22.2,0,0,1-2.5.151A13.381,13.381,0,0,1,0,27.413Z" transform="translate(672.5 217.933)" fill="#fafcfc"/>
  </g>
</svg>
