<svg xmlns="http://www.w3.org/2000/svg" width="10.502" height="21.004" viewBox="0 0 10.502 21.004">
  <path id="thermometer-quarter-solid" d="M7.877,15.753A2.625,2.625,0,1,1,3.939,13.48V11.815a1.313,1.313,0,0,1,2.625,0V13.48A2.624,2.624,0,0,1,7.877,15.753ZM9.19,12.28A5.251,5.251,0,0,1,5.251,21H5.214a5.251,5.251,0,0,1-3.9-8.724V3.938a3.938,3.938,0,0,1,7.876,0Zm-.656,3.473A3.811,3.811,0,0,0,7.22,13.025V3.938a1.969,1.969,0,0,0-3.938,0v9.087a3.818,3.818,0,0,0-1.313,2.711,3.3,3.3,0,0,0,3.258,3.3h.024A3.286,3.286,0,0,0,8.533,15.753Z" transform="translate(0)" fill="#fff"/>
</svg>
