<svg xmlns="http://www.w3.org/2000/svg" width="15.75" height="20" viewBox="0 0 15.75 20">
  <path id="thumbtack-solid" d="M12.224,8.37l-.5-4.62h1.731a.962.962,0,0,0,.984-.937V.937A.962.962,0,0,0,13.453,0H2.3a.962.962,0,0,0-.984.937V2.812A.962.962,0,0,0,2.3,3.75H4.028l-.5,4.62C1.537,9.251,0,10.83,0,12.812a.962.962,0,0,0,.984.937H6.562v4.063a.3.3,0,0,0,.035.14l.984,1.875a.336.336,0,0,0,.587,0l.984-1.875a.3.3,0,0,0,.035-.14V13.75h5.578a.962.962,0,0,0,.984-.937C15.75,10.813,14.192,9.241,12.224,8.37Z" fill="#d9d6d6"/>
</svg>
