<svg xmlns="http://www.w3.org/2000/svg" width="19.6" height="19.6" viewBox="0 0 19.6 19.6">
  <path id="times-solid_4_" data-name="times-solid (4)" d="M13.515,89.8l5.572-5.572a1.752,1.752,0,0,0,0-2.477l-1.238-1.238a1.752,1.752,0,0,0-2.477,0L9.8,86.085,4.228,80.513a1.752,1.752,0,0,0-2.477,0L.513,81.751a1.752,1.752,0,0,0,0,2.477L6.085,89.8.513,95.372a1.752,1.752,0,0,0,0,2.477l1.238,1.238a1.752,1.752,0,0,0,2.477,0L9.8,93.515l5.572,5.572a1.752,1.752,0,0,0,2.477,0l1.238-1.238a1.752,1.752,0,0,0,0-2.477Z" transform="translate(0 -80)" fill="#3c92d0"/>
</svg>
